<svg width="319" height="144" viewBox="0 0 319 144" fill="none" xmlns="http://www.w3.org/2000/svg">
<rect width="279" height="42" transform="translate(20 20)" fill="white"/>
<path d="M35.845 35.5C35.835 35.5 35.835 35.51 35.845 35.53C35.865 35.55 35.885 35.595 35.905 35.665C35.935 35.725 35.965 35.8 35.995 35.89C36.055 36.05 36.095 36.315 36.115 36.685C35.605 36.765 35.27 36.815 35.11 36.835L35.035 44.56L36.07 44.695C36.07 45.105 35.955 45.54 35.725 46H32.08L31.945 45.175C32.505 44.945 32.925 44.8 33.205 44.74C33.195 44.15 33.18 43.32 33.16 42.25C33.13 39.85 33.1 38.035 33.07 36.805L31.825 36.415L31.945 35.5H35.845ZM42.1582 38.2C43.1582 38.2 43.8832 38.445 44.3332 38.935C44.7832 39.425 45.0082 40.11 45.0082 40.99C45.0082 41.87 44.9582 43.06 44.8582 44.56L46.0432 44.695C46.0432 45.105 45.9282 45.54 45.6982 46H41.9632L41.8282 45.175C42.2982 44.985 42.7332 44.835 43.1332 44.725C43.1032 43.575 43.0732 42.61 43.0432 41.83C43.0132 41.04 42.9382 40.505 42.8182 40.225C42.6982 39.945 42.4332 39.805 42.0232 39.805C41.4032 39.805 40.8482 39.915 40.3582 40.135C40.3482 40.565 40.3182 41.27 40.2682 42.25C40.2282 43.22 40.2032 43.99 40.1932 44.56L41.3632 44.695C41.3632 45.105 41.2482 45.54 41.0182 46H37.2832L37.1482 45.175C37.6482 44.985 38.0982 44.835 38.4982 44.725C38.4882 44.125 38.4532 43.295 38.3932 42.235C38.3432 41.175 38.3132 40.39 38.3032 39.88C37.9332 39.84 37.5382 39.765 37.1182 39.655L37.1932 38.575C37.8932 38.385 38.6832 38.29 39.5632 38.29C39.6732 38.36 39.8232 38.575 40.0132 38.935C40.3532 38.765 40.7682 38.6 41.2582 38.44C41.7482 38.28 42.0482 38.2 42.1582 38.2ZM48.2214 46.18L47.8914 46.165C47.8314 46.055 47.7514 45.85 47.6514 45.55C47.5514 45.25 47.4964 45.025 47.4864 44.875C47.4364 43.885 47.3814 42.17 47.3214 39.73H46.2714L46.3164 38.875C46.5464 38.715 46.8214 38.57 47.1414 38.44L48.3564 36.52C48.7464 36.56 49.0514 36.665 49.2714 36.835L49.2564 38.26C49.8864 38.28 50.4714 38.34 51.0114 38.44C51.0114 38.84 50.8864 39.27 50.6364 39.73H49.2414C49.2014 41.83 49.1764 43.405 49.1664 44.455C49.5664 44.495 50.1114 44.61 50.8014 44.8L50.7864 45.58C50.6164 45.69 50.2364 45.82 49.6464 45.97C49.0664 46.11 48.5914 46.18 48.2214 46.18ZM55.6113 44.71C55.9513 44.71 56.6413 44.475 57.6813 44.005C57.9013 44.325 58.0663 44.695 58.1763 45.115C57.6263 45.455 57.0863 45.72 56.5563 45.91C56.0363 46.09 55.6663 46.18 55.4463 46.18C54.2363 46.18 53.3163 45.845 52.6863 45.175C52.0663 44.505 51.7563 43.555 51.7563 42.325C51.7563 41.085 52.0663 40.09 52.6863 39.34C53.3063 38.58 54.2263 38.2 55.4463 38.2C56.4163 38.2 57.1563 38.515 57.6663 39.145C58.1763 39.775 58.4313 40.595 58.4313 41.605C58.4313 41.815 58.3113 42.055 58.0713 42.325L53.7513 42.25C53.7713 43.05 53.9213 43.66 54.2013 44.08C54.4813 44.5 54.9513 44.71 55.6113 44.71ZM55.3113 39.445C54.9313 39.445 54.5763 39.52 54.2463 39.67C54.0163 40.15 53.8713 40.595 53.8113 41.005C54.5913 40.975 55.4763 40.955 56.4663 40.945C56.4163 39.945 56.0313 39.445 55.3113 39.445ZM63.722 39.82C63.702 39.77 63.602 39.745 63.422 39.745C63.242 39.745 62.932 39.88 62.492 40.15C62.452 42.11 62.427 43.58 62.417 44.56L63.587 44.71C63.587 45.14 63.472 45.57 63.242 46H59.507L59.372 45.175C59.992 44.945 60.442 44.795 60.722 44.725L60.557 39.865C60.037 39.825 59.602 39.75 59.252 39.64L59.357 38.56C59.627 38.44 60.602 38.36 62.282 38.32C62.372 38.41 62.417 38.585 62.417 38.845C63.297 38.415 63.852 38.2 64.082 38.2C64.322 38.2 64.612 38.26 64.952 38.38C65.302 38.49 65.567 38.61 65.747 38.74V38.995C65.747 39.815 65.647 40.575 65.447 41.275C65.277 41.345 65.052 41.38 64.772 41.38C64.492 41.38 64.232 41.365 63.992 41.335C63.962 41.205 63.872 40.7 63.722 39.82ZM69.1553 38.32C69.3453 38.32 69.4653 38.325 69.5153 38.335C69.5153 38.825 69.4303 39.28 69.2603 39.7C69.2203 41.86 69.1953 43.48 69.1853 44.56L70.3553 44.695C70.3553 45.105 70.2403 45.54 70.0103 46H66.2753L66.1403 45.175C66.7603 44.945 67.2103 44.795 67.4903 44.725L67.3253 39.865C66.7353 39.805 66.3003 39.73 66.0203 39.64C66.0203 39.39 66.0553 39.03 66.1253 38.56C66.7153 38.4 67.7253 38.32 69.1553 38.32ZM69.1553 35.485C69.2453 35.935 69.2903 36.28 69.2903 36.52C69.2903 36.75 69.2703 37.01 69.2303 37.3C68.8303 37.39 68.4903 37.435 68.2103 37.435C67.9403 37.435 67.6103 37.42 67.2203 37.39C67.1303 36.94 67.0853 36.6 67.0853 36.37C67.0853 36.13 67.1053 35.865 67.1453 35.575C67.5453 35.485 67.8803 35.44 68.1503 35.44C68.4303 35.44 68.7653 35.455 69.1553 35.485ZM74.6096 39.4C74.2496 39.4 73.8396 39.49 73.3796 39.67C73.2496 39.87 73.1246 40.225 73.0046 40.735C72.8946 41.235 72.8396 41.74 72.8396 42.25C72.8396 43.19 72.9796 43.86 73.2596 44.26C73.5396 44.65 73.9896 44.845 74.6096 44.845C75.2396 44.845 75.6946 44.65 75.9746 44.26C76.2546 43.86 76.3946 43.18 76.3946 42.22C76.3946 41.25 76.2496 40.54 75.9596 40.09C75.6796 39.63 75.2296 39.4 74.6096 39.4ZM74.6096 38.2C75.7796 38.2 76.7196 38.56 77.4296 39.28C78.1496 39.99 78.5096 40.985 78.5096 42.265C78.5096 43.535 78.1546 44.505 77.4446 45.175C76.7346 45.845 75.7896 46.18 74.6096 46.18C73.4296 46.18 72.4846 45.845 71.7746 45.175C71.0746 44.505 70.7246 43.535 70.7246 42.265C70.7246 40.985 71.0796 39.99 71.7896 39.28C72.4996 38.56 73.4396 38.2 74.6096 38.2ZM83.1459 39.82C83.1259 39.77 83.0259 39.745 82.8459 39.745C82.6659 39.745 82.3559 39.88 81.9159 40.15C81.8759 42.11 81.8509 43.58 81.8409 44.56L83.0109 44.71C83.0109 45.14 82.8959 45.57 82.6659 46H78.9309L78.7959 45.175C79.4159 44.945 79.8659 44.795 80.1459 44.725L79.9809 39.865C79.4609 39.825 79.0259 39.75 78.6759 39.64L78.7809 38.56C79.0509 38.44 80.0259 38.36 81.7059 38.32C81.7959 38.41 81.8409 38.585 81.8409 38.845C82.7209 38.415 83.2759 38.2 83.5059 38.2C83.7459 38.2 84.0359 38.26 84.3759 38.38C84.7259 38.49 84.9909 38.61 85.1709 38.74V38.995C85.1709 39.815 85.0709 40.575 84.8709 41.275C84.7009 41.345 84.4759 41.38 84.1959 41.38C83.9159 41.38 83.6559 41.365 83.4159 41.335C83.3859 41.205 83.2959 40.7 83.1459 39.82ZM92.0256 34.855C92.2656 34.855 92.4206 34.86 92.4906 34.87C92.4906 35.39 92.4256 35.845 92.2956 36.235L92.2506 38.755C93.1806 38.385 93.8206 38.2 94.1706 38.2C95.1606 38.2 95.8906 38.57 96.3606 39.31C96.8406 40.04 97.0806 40.99 97.0806 42.16C97.0806 43.33 96.8156 44.295 96.2856 45.055C95.7556 45.805 94.9856 46.18 93.9756 46.18C93.3156 46.18 92.6206 45.93 91.8906 45.43C91.8506 45.66 91.7906 45.87 91.7106 46.06C91.5306 46.08 91.3506 46.09 91.1706 46.09C90.9906 46.09 90.7656 46.06 90.4956 46L90.1806 36.4C89.7106 36.35 89.3156 36.275 88.9956 36.175C88.9956 35.805 89.0306 35.445 89.1006 35.095C89.6806 34.935 90.6556 34.855 92.0256 34.855ZM93.9156 39.775C93.2656 39.775 92.7056 39.89 92.2356 40.12C92.2156 41.8 92.1956 43.07 92.1756 43.93C92.4156 44.13 92.6906 44.31 93.0006 44.47C93.3106 44.63 93.5756 44.71 93.7956 44.71C94.6656 44.71 95.1006 43.91 95.1006 42.31C95.1006 41.63 95.0056 41.04 94.8156 40.54C94.6356 40.03 94.3356 39.775 93.9156 39.775ZM101.255 39.4C100.895 39.4 100.485 39.49 100.025 39.67C99.8951 39.87 99.7701 40.225 99.6501 40.735C99.5401 41.235 99.4851 41.74 99.4851 42.25C99.4851 43.19 99.6251 43.86 99.9051 44.26C100.185 44.65 100.635 44.845 101.255 44.845C101.885 44.845 102.34 44.65 102.62 44.26C102.9 43.86 103.04 43.18 103.04 42.22C103.04 41.25 102.895 40.54 102.605 40.09C102.325 39.63 101.875 39.4 101.255 39.4ZM101.255 38.2C102.425 38.2 103.365 38.56 104.075 39.28C104.795 39.99 105.155 40.985 105.155 42.265C105.155 43.535 104.8 44.505 104.09 45.175C103.38 45.845 102.435 46.18 101.255 46.18C100.075 46.18 99.1301 45.845 98.4201 45.175C97.7201 44.505 97.3701 43.535 97.3701 42.265C97.3701 40.985 97.7251 39.99 98.4351 39.28C99.1451 38.56 100.085 38.2 101.255 38.2ZM112.086 34.855C112.276 34.855 112.396 34.86 112.446 34.87C112.446 35.39 112.381 35.845 112.251 36.235C112.211 37.315 112.161 38.855 112.101 40.855C112.051 42.845 112.016 44.16 111.996 44.8C112.586 44.88 113.026 44.965 113.316 45.055V45.775C112.686 46.045 111.821 46.18 110.721 46.18C110.661 46.07 110.581 45.8 110.481 45.37C109.561 45.87 108.896 46.14 108.486 46.18C107.466 46.18 106.701 45.81 106.191 45.07C105.691 44.33 105.441 43.38 105.441 42.22C105.441 41.05 105.696 40.07 106.206 39.28C106.716 38.48 107.471 38.08 108.471 38.08C109.021 38.08 109.601 38.25 110.211 38.59L110.136 36.4C109.666 36.35 109.271 36.275 108.951 36.175C108.951 35.925 108.986 35.565 109.056 35.095C109.646 34.935 110.656 34.855 112.086 34.855ZM108.711 39.55C107.851 39.55 107.421 40.38 107.421 42.04C107.421 42.99 107.591 43.705 107.931 44.185C108.121 44.465 108.366 44.605 108.666 44.605C109.176 44.605 109.751 44.43 110.391 44.08L110.256 40.21C109.686 39.77 109.171 39.55 108.711 39.55ZM115.918 49.63C115.628 49.63 115.308 49.58 114.958 49.48C114.608 49.38 114.233 49.23 113.833 49.03C113.893 47.88 113.948 47.195 113.998 46.975C114.378 46.875 114.688 46.825 114.928 46.825C115.178 46.825 115.338 46.83 115.408 46.84L115.888 48.34L116.023 48.325C116.253 48.295 116.488 48.02 116.728 47.5C116.968 46.98 117.143 46.48 117.253 46H116.623L114.403 39.82L113.233 39.685C113.233 39.275 113.348 38.84 113.578 38.38H117.313L117.448 39.205C117.038 39.395 116.693 39.525 116.413 39.595L117.553 43.15L117.688 43.795H118.018L119.293 39.595C118.953 39.535 118.533 39.405 118.033 39.205L118.168 38.38H121.903C122.133 38.84 122.248 39.275 122.248 39.685C121.858 39.745 121.468 39.785 121.078 39.805C120.178 42.445 119.473 44.485 118.963 45.925C118.463 47.365 118.008 48.34 117.598 48.85C117.188 49.37 116.628 49.63 115.918 49.63ZM131.377 46.18C130.797 46.18 130.187 45.99 129.547 45.61C129.527 46.67 129.517 47.47 129.517 48.01L130.687 48.145C130.687 48.585 130.572 49.02 130.342 49.45H126.607L126.472 48.625C127.112 48.385 127.562 48.235 127.822 48.175L127.537 39.85C127.067 39.81 126.672 39.735 126.352 39.625C126.352 39.255 126.387 38.895 126.457 38.545C126.877 38.455 127.807 38.375 129.247 38.305C129.327 38.435 129.417 38.655 129.517 38.965C130.557 38.455 131.242 38.2 131.572 38.2C132.562 38.2 133.297 38.55 133.777 39.25C134.257 39.94 134.497 40.87 134.497 42.04C134.497 43.21 134.227 44.195 133.687 44.995C133.157 45.785 132.387 46.18 131.377 46.18ZM129.637 40.285L129.577 44.08C129.807 44.29 130.077 44.475 130.387 44.635C130.707 44.785 130.977 44.86 131.197 44.86C132.077 44.86 132.517 44.015 132.517 42.325C132.517 41.695 132.452 41.19 132.322 40.81C132.202 40.43 132.057 40.165 131.887 40.015C131.727 39.855 131.537 39.775 131.317 39.775C130.877 39.775 130.317 39.945 129.637 40.285ZM137.527 46.18C136.677 46.18 136.017 46.005 135.547 45.655C135.087 45.305 134.857 44.715 134.857 43.885C134.857 43.095 135.132 42.45 135.682 41.95C136.002 41.66 136.447 41.49 137.017 41.44C137.587 41.39 138.372 41.365 139.372 41.365V41.125C139.372 40.515 139.272 40.07 139.072 39.79C138.882 39.5 138.542 39.355 138.052 39.355C137.802 39.355 137.577 39.405 137.377 39.505L137.017 40.81L135.907 40.78C135.657 40.4 135.522 39.795 135.502 38.965C135.702 38.865 136.172 38.715 136.912 38.515C137.652 38.305 138.127 38.2 138.337 38.2C139.417 38.2 140.202 38.425 140.692 38.875C141.182 39.315 141.427 40.02 141.427 40.99C141.427 41.95 141.382 43.22 141.292 44.8C141.862 44.85 142.302 44.935 142.612 45.055C142.622 45.175 142.627 45.32 142.627 45.49L142.612 45.82C141.892 46.06 141.167 46.18 140.437 46.18C140.247 46.18 140.107 46.175 140.017 46.165C139.867 45.865 139.777 45.505 139.747 45.085H139.672C139.482 45.265 139.147 45.495 138.667 45.775C138.197 46.045 137.817 46.18 137.527 46.18ZM136.777 43.975C136.777 44.305 136.877 44.55 137.077 44.71C137.287 44.86 137.522 44.935 137.782 44.935C138.042 44.935 138.352 44.82 138.712 44.59C139.072 44.35 139.362 44.135 139.582 43.945L139.507 42.565C138.717 42.605 138.122 42.68 137.722 42.79C137.092 42.92 136.777 43.315 136.777 43.975ZM147.218 39.82C147.198 39.77 147.098 39.745 146.918 39.745C146.738 39.745 146.428 39.88 145.988 40.15C145.948 42.11 145.923 43.58 145.913 44.56L147.083 44.71C147.083 45.14 146.968 45.57 146.738 46H143.003L142.868 45.175C143.488 44.945 143.938 44.795 144.218 44.725L144.053 39.865C143.533 39.825 143.098 39.75 142.748 39.64L142.853 38.56C143.123 38.44 144.098 38.36 145.778 38.32C145.868 38.41 145.913 38.585 145.913 38.845C146.793 38.415 147.348 38.2 147.578 38.2C147.818 38.2 148.108 38.26 148.448 38.38C148.798 38.49 149.063 38.61 149.243 38.74V38.995C149.243 39.815 149.143 40.575 148.943 41.275C148.773 41.345 148.548 41.38 148.268 41.38C147.988 41.38 147.728 41.365 147.488 41.335C147.458 41.205 147.368 40.7 147.218 39.82ZM151.346 46.18L151.016 46.165C150.956 46.055 150.876 45.85 150.776 45.55C150.676 45.25 150.621 45.025 150.611 44.875C150.561 43.885 150.506 42.17 150.446 39.73H149.396L149.441 38.875C149.671 38.715 149.946 38.57 150.266 38.44L151.481 36.52C151.871 36.56 152.176 36.665 152.396 36.835L152.381 38.26C153.011 38.28 153.596 38.34 154.136 38.44C154.136 38.84 154.011 39.27 153.761 39.73H152.366C152.326 41.83 152.301 43.405 152.291 44.455C152.691 44.495 153.236 44.61 153.926 44.8L153.911 45.58C153.741 45.69 153.361 45.82 152.771 45.97C152.191 46.11 151.716 46.18 151.346 46.18ZM160.266 38.845L160.281 39.31C160.281 40.09 160.221 40.6 160.101 40.84C159.771 40.96 159.311 41.02 158.721 41.02L158.241 39.505C158.111 39.455 157.931 39.43 157.701 39.43C157.471 39.43 157.281 39.5 157.131 39.64C156.991 39.78 156.921 39.945 156.921 40.135C156.921 40.325 156.996 40.5 157.146 40.66C157.296 40.81 157.451 40.93 157.611 41.02C157.771 41.11 158.001 41.23 158.301 41.38C158.611 41.52 158.841 41.63 158.991 41.71C159.151 41.79 159.351 41.91 159.591 42.07C159.841 42.23 160.031 42.38 160.161 42.52C160.481 42.9 160.641 43.315 160.641 43.765C160.641 44.535 160.346 45.13 159.756 45.55C159.176 45.97 158.461 46.18 157.611 46.18C157.161 46.18 156.666 46.1 156.126 45.94C155.596 45.78 155.146 45.565 154.776 45.295C154.776 44.575 154.846 43.905 154.986 43.285C155.386 43.235 155.711 43.21 155.961 43.21C156.211 43.21 156.381 43.215 156.471 43.225L156.651 44.68C156.901 44.77 157.201 44.815 157.551 44.815C157.901 44.815 158.176 44.745 158.376 44.605C158.586 44.465 158.691 44.27 158.691 44.02C158.691 43.76 158.576 43.545 158.346 43.375C158.116 43.205 157.801 43.03 157.401 42.85C157.001 42.66 156.691 42.505 156.471 42.385C156.251 42.255 156.016 42.09 155.766 41.89C155.256 41.5 155.001 41.02 155.001 40.45C155.001 39.74 155.246 39.19 155.736 38.8C156.236 38.4 156.906 38.2 157.746 38.2C158.586 38.2 159.426 38.415 160.266 38.845Z" fill="#535E65"/>
<path d="M280.306 34.7862C280.11 34.9694 280 35.218 280 35.4771C280 35.7363 280.11 35.9848 280.306 36.1681L285.478 41.0059L280.306 45.8437C280.116 46.028 280.01 46.2749 280.013 46.5312C280.015 46.7874 280.125 47.0325 280.319 47.2137C280.512 47.395 280.774 47.4977 281.048 47.5C281.322 47.5022 281.586 47.4037 281.783 47.2257L287.694 41.6969C287.89 41.5136 288 41.2651 288 41.0059C288 40.7467 287.89 40.4982 287.694 40.3149L281.783 34.7862C281.587 34.6029 281.322 34.5 281.045 34.5C280.768 34.5 280.502 34.6029 280.306 34.7862Z" fill="#535E65"/>
<rect x="0.5" y="0.5" width="318" height="143" rx="4.5" stroke="#9747FF" stroke-dasharray="10 5"/>
</svg>
