<svg width="319" height="144" viewBox="0 0 319 144" fill="none" xmlns="http://www.w3.org/2000/svg">
<rect x="20" y="20" width="279" height="42" rx="5" fill="white"/>
<path d="M35.41 44.56C36.57 44.56 37.15 44.065 37.15 43.075C37.15 42.655 36.93 42.3 36.49 42.01C36.17 41.79 35.73 41.555 35.17 41.305C34.62 41.045 34.205 40.84 33.925 40.69C33.655 40.54 33.34 40.33 32.98 40.06C32.29 39.53 31.945 38.87 31.945 38.08C31.945 37.29 32.25 36.635 32.86 36.115C33.48 35.585 34.315 35.32 35.365 35.32C36.415 35.32 37.535 35.655 38.725 36.325C38.725 37.045 38.65 37.825 38.5 38.665C38.18 38.765 37.705 38.815 37.075 38.815L36.64 37.03C36.27 36.92 35.865 36.865 35.425 36.865C34.985 36.865 34.645 36.96 34.405 37.15C34.165 37.34 34.045 37.625 34.045 38.005C34.045 38.375 34.23 38.71 34.6 39.01C34.98 39.3 35.435 39.57 35.965 39.82C36.495 40.06 36.86 40.23 37.06 40.33C37.26 40.43 37.515 40.58 37.825 40.78C38.135 40.98 38.37 41.17 38.53 41.35C38.94 41.83 39.145 42.365 39.145 42.955C39.145 43.995 38.8 44.795 38.11 45.355C37.42 45.915 36.52 46.195 35.41 46.195C34.82 46.195 34.17 46.095 33.46 45.895C32.76 45.685 32.165 45.42 31.675 45.1C31.695 44.49 31.775 43.665 31.915 42.625C32.315 42.545 32.795 42.505 33.355 42.505L33.67 44.305C34.22 44.475 34.8 44.56 35.41 44.56ZM47.2336 38.32C47.4236 38.32 47.5436 38.325 47.5936 38.335C47.5936 38.845 47.5086 39.285 47.3386 39.655C47.2786 41.855 47.2286 43.48 47.1886 44.53C47.6386 44.57 48.0336 44.645 48.3736 44.755L48.3436 45.805C47.7336 45.995 47.2086 46.09 46.7686 46.09C46.3286 46.09 46.0286 46.08 45.8686 46.06C45.7486 45.82 45.6486 45.58 45.5686 45.34C44.7386 45.9 44.1386 46.18 43.7686 46.18C41.9786 46.18 41.0836 45.275 41.0836 43.465C41.0836 42.975 41.1236 41.77 41.2036 39.85C40.6736 39.85 40.1886 39.78 39.7486 39.64C39.7486 39.39 39.7836 39.03 39.8536 38.56C40.4436 38.4 41.4536 38.32 42.8836 38.32C43.0736 38.32 43.1936 38.325 43.2436 38.335C43.2436 38.825 43.1586 39.28 42.9886 39.7V42.73C42.9886 43.37 43.0536 43.84 43.1836 44.14C43.3236 44.43 43.6136 44.575 44.0536 44.575C44.5036 44.575 44.9636 44.42 45.4336 44.11L45.3436 39.85C44.9036 39.83 44.4886 39.76 44.0986 39.64C44.0986 39.39 44.1336 39.03 44.2036 38.56C44.7936 38.4 45.8036 38.32 47.2336 38.32ZM54.5045 38.845L54.5195 39.31C54.5195 40.09 54.4595 40.6 54.3395 40.84C54.0095 40.96 53.5495 41.02 52.9595 41.02L52.4795 39.505C52.3495 39.455 52.1695 39.43 51.9395 39.43C51.7095 39.43 51.5195 39.5 51.3695 39.64C51.2295 39.78 51.1595 39.945 51.1595 40.135C51.1595 40.325 51.2345 40.5 51.3845 40.66C51.5345 40.81 51.6895 40.93 51.8495 41.02C52.0095 41.11 52.2395 41.23 52.5395 41.38C52.8495 41.52 53.0795 41.63 53.2295 41.71C53.3895 41.79 53.5895 41.91 53.8295 42.07C54.0795 42.23 54.2695 42.38 54.3995 42.52C54.7195 42.9 54.8795 43.315 54.8795 43.765C54.8795 44.535 54.5845 45.13 53.9945 45.55C53.4145 45.97 52.6995 46.18 51.8495 46.18C51.3995 46.18 50.9045 46.1 50.3645 45.94C49.8345 45.78 49.3845 45.565 49.0145 45.295C49.0145 44.575 49.0845 43.905 49.2245 43.285C49.6245 43.235 49.9495 43.21 50.1995 43.21C50.4495 43.21 50.6195 43.215 50.7095 43.225L50.8895 44.68C51.1395 44.77 51.4395 44.815 51.7895 44.815C52.1395 44.815 52.4145 44.745 52.6145 44.605C52.8245 44.465 52.9295 44.27 52.9295 44.02C52.9295 43.76 52.8145 43.545 52.5845 43.375C52.3545 43.205 52.0395 43.03 51.6395 42.85C51.2395 42.66 50.9295 42.505 50.7095 42.385C50.4895 42.255 50.2545 42.09 50.0045 41.89C49.4945 41.5 49.2395 41.02 49.2395 40.45C49.2395 39.74 49.4845 39.19 49.9745 38.8C50.4745 38.4 51.1445 38.2 51.9845 38.2C52.8245 38.2 53.6645 38.415 54.5045 38.845ZM60.5518 46.18C59.9718 46.18 59.3618 45.99 58.7218 45.61C58.7018 46.67 58.6918 47.47 58.6918 48.01L59.8618 48.145C59.8618 48.585 59.7468 49.02 59.5168 49.45H55.7818L55.6468 48.625C56.2868 48.385 56.7368 48.235 56.9968 48.175L56.7118 39.85C56.2418 39.81 55.8468 39.735 55.5268 39.625C55.5268 39.255 55.5618 38.895 55.6318 38.545C56.0518 38.455 56.9818 38.375 58.4218 38.305C58.5018 38.435 58.5918 38.655 58.6918 38.965C59.7318 38.455 60.4168 38.2 60.7468 38.2C61.7368 38.2 62.4718 38.55 62.9518 39.25C63.4318 39.94 63.6718 40.87 63.6718 42.04C63.6718 43.21 63.4018 44.195 62.8618 44.995C62.3318 45.785 61.5618 46.18 60.5518 46.18ZM58.8118 40.285L58.7518 44.08C58.9818 44.29 59.2518 44.475 59.5618 44.635C59.8818 44.785 60.1518 44.86 60.3718 44.86C61.2518 44.86 61.6918 44.015 61.6918 42.325C61.6918 41.695 61.6268 41.19 61.4968 40.81C61.3768 40.43 61.2318 40.165 61.0618 40.015C60.9018 39.855 60.7118 39.775 60.4918 39.775C60.0518 39.775 59.4918 39.945 58.8118 40.285ZM67.872 44.71C68.212 44.71 68.902 44.475 69.942 44.005C70.162 44.325 70.327 44.695 70.437 45.115C69.887 45.455 69.347 45.72 68.817 45.91C68.297 46.09 67.927 46.18 67.707 46.18C66.497 46.18 65.577 45.845 64.947 45.175C64.327 44.505 64.017 43.555 64.017 42.325C64.017 41.085 64.327 40.09 64.947 39.34C65.567 38.58 66.487 38.2 67.707 38.2C68.677 38.2 69.417 38.515 69.927 39.145C70.437 39.775 70.692 40.595 70.692 41.605C70.692 41.815 70.572 42.055 70.332 42.325L66.012 42.25C66.032 43.05 66.182 43.66 66.462 44.08C66.742 44.5 67.212 44.71 67.872 44.71ZM67.572 39.445C67.192 39.445 66.837 39.52 66.507 39.67C66.277 40.15 66.132 40.595 66.072 41.005C66.852 40.975 67.737 40.955 68.727 40.945C68.677 39.945 68.292 39.445 67.572 39.445ZM76.5528 38.2C77.5528 38.2 78.2778 38.445 78.7278 38.935C79.1778 39.425 79.4028 40.11 79.4028 40.99C79.4028 41.87 79.3528 43.06 79.2528 44.56L80.4378 44.695C80.4378 45.105 80.3228 45.54 80.0928 46H76.3578L76.2228 45.175C76.6928 44.985 77.1278 44.835 77.5278 44.725C77.4978 43.575 77.4678 42.61 77.4378 41.83C77.4078 41.04 77.3328 40.505 77.2128 40.225C77.0928 39.945 76.8278 39.805 76.4178 39.805C75.7978 39.805 75.2428 39.915 74.7528 40.135C74.7428 40.565 74.7128 41.27 74.6628 42.25C74.6228 43.22 74.5978 43.99 74.5878 44.56L75.7578 44.695C75.7578 45.105 75.6428 45.54 75.4128 46H71.6778L71.5428 45.175C72.0428 44.985 72.4928 44.835 72.8928 44.725C72.8828 44.125 72.8478 43.295 72.7878 42.235C72.7378 41.175 72.7078 40.39 72.6978 39.88C72.3278 39.84 71.9328 39.765 71.5128 39.655L71.5878 38.575C72.2878 38.385 73.0778 38.29 73.9578 38.29C74.0678 38.36 74.2178 38.575 74.4078 38.935C74.7478 38.765 75.1628 38.6 75.6528 38.44C76.1428 38.28 76.4428 38.2 76.5528 38.2ZM86.3209 38.845L86.3359 39.31C86.3359 40.09 86.2759 40.6 86.1559 40.84C85.8259 40.96 85.3659 41.02 84.7759 41.02L84.2959 39.505C84.1659 39.455 83.9859 39.43 83.7559 39.43C83.5259 39.43 83.3359 39.5 83.1859 39.64C83.0459 39.78 82.9759 39.945 82.9759 40.135C82.9759 40.325 83.0509 40.5 83.2009 40.66C83.3509 40.81 83.5059 40.93 83.6659 41.02C83.8259 41.11 84.0559 41.23 84.3559 41.38C84.6659 41.52 84.8959 41.63 85.0459 41.71C85.2059 41.79 85.4059 41.91 85.6459 42.07C85.8959 42.23 86.0859 42.38 86.2159 42.52C86.5359 42.9 86.6959 43.315 86.6959 43.765C86.6959 44.535 86.4009 45.13 85.8109 45.55C85.2309 45.97 84.5159 46.18 83.6659 46.18C83.2159 46.18 82.7209 46.1 82.1809 45.94C81.6509 45.78 81.2009 45.565 80.8309 45.295C80.8309 44.575 80.9009 43.905 81.0409 43.285C81.4409 43.235 81.7659 43.21 82.0159 43.21C82.2659 43.21 82.4359 43.215 82.5259 43.225L82.7059 44.68C82.9559 44.77 83.2559 44.815 83.6059 44.815C83.9559 44.815 84.2309 44.745 84.4309 44.605C84.6409 44.465 84.7459 44.27 84.7459 44.02C84.7459 43.76 84.6309 43.545 84.4009 43.375C84.1709 43.205 83.8559 43.03 83.4559 42.85C83.0559 42.66 82.7459 42.505 82.5259 42.385C82.3059 42.255 82.0709 42.09 81.8209 41.89C81.3109 41.5 81.0559 41.02 81.0559 40.45C81.0559 39.74 81.3009 39.19 81.7909 38.8C82.2909 38.4 82.9609 38.2 83.8009 38.2C84.6409 38.2 85.4809 38.415 86.3209 38.845ZM90.7032 38.32C90.8932 38.32 91.0132 38.325 91.0632 38.335C91.0632 38.825 90.9782 39.28 90.8082 39.7C90.7682 41.86 90.7432 43.48 90.7332 44.56L91.9032 44.695C91.9032 45.105 91.7882 45.54 91.5582 46H87.8232L87.6882 45.175C88.3082 44.945 88.7582 44.795 89.0382 44.725L88.8732 39.865C88.2832 39.805 87.8482 39.73 87.5682 39.64C87.5682 39.39 87.6032 39.03 87.6732 38.56C88.2632 38.4 89.2732 38.32 90.7032 38.32ZM90.7032 35.485C90.7932 35.935 90.8382 36.28 90.8382 36.52C90.8382 36.75 90.8182 37.01 90.7782 37.3C90.3782 37.39 90.0382 37.435 89.7582 37.435C89.4882 37.435 89.1582 37.42 88.7682 37.39C88.6782 36.94 88.6332 36.6 88.6332 36.37C88.6332 36.13 88.6532 35.865 88.6932 35.575C89.0932 35.485 89.4282 35.44 89.6982 35.44C89.9782 35.44 90.3132 35.455 90.7032 35.485ZM96.1574 39.4C95.7974 39.4 95.3874 39.49 94.9274 39.67C94.7974 39.87 94.6724 40.225 94.5524 40.735C94.4424 41.235 94.3874 41.74 94.3874 42.25C94.3874 43.19 94.5274 43.86 94.8074 44.26C95.0874 44.65 95.5374 44.845 96.1574 44.845C96.7874 44.845 97.2424 44.65 97.5224 44.26C97.8024 43.86 97.9424 43.18 97.9424 42.22C97.9424 41.25 97.7974 40.54 97.5074 40.09C97.2274 39.63 96.7774 39.4 96.1574 39.4ZM96.1574 38.2C97.3274 38.2 98.2674 38.56 98.9774 39.28C99.6974 39.99 100.057 40.985 100.057 42.265C100.057 43.535 99.7024 44.505 98.9924 45.175C98.2824 45.845 97.3374 46.18 96.1574 46.18C94.9774 46.18 94.0324 45.845 93.3224 45.175C92.6224 44.505 92.2724 43.535 92.2724 42.265C92.2724 40.985 92.6274 39.99 93.3374 39.28C94.0474 38.56 94.9874 38.2 96.1574 38.2ZM105.264 38.2C106.264 38.2 106.989 38.445 107.439 38.935C107.889 39.425 108.114 40.11 108.114 40.99C108.114 41.87 108.064 43.06 107.964 44.56L109.149 44.695C109.149 45.105 109.034 45.54 108.804 46H105.069L104.934 45.175C105.404 44.985 105.839 44.835 106.239 44.725C106.209 43.575 106.179 42.61 106.149 41.83C106.119 41.04 106.044 40.505 105.924 40.225C105.804 39.945 105.539 39.805 105.129 39.805C104.509 39.805 103.954 39.915 103.464 40.135C103.454 40.565 103.424 41.27 103.374 42.25C103.334 43.22 103.309 43.99 103.299 44.56L104.469 44.695C104.469 45.105 104.354 45.54 104.124 46H100.389L100.254 45.175C100.754 44.985 101.204 44.835 101.604 44.725C101.594 44.125 101.559 43.295 101.499 42.235C101.449 41.175 101.419 40.39 101.409 39.88C101.039 39.84 100.644 39.765 100.224 39.655L100.299 38.575C100.999 38.385 101.789 38.29 102.669 38.29C102.779 38.36 102.929 38.575 103.119 38.935C103.459 38.765 103.874 38.6 104.364 38.44C104.854 38.28 105.154 38.2 105.264 38.2ZM116.228 46.18C115.378 46.18 114.718 46.005 114.248 45.655C113.788 45.305 113.558 44.715 113.558 43.885C113.558 43.095 113.833 42.45 114.383 41.95C114.703 41.66 115.148 41.49 115.718 41.44C116.288 41.39 117.073 41.365 118.073 41.365V41.125C118.073 40.515 117.973 40.07 117.773 39.79C117.583 39.5 117.243 39.355 116.753 39.355C116.503 39.355 116.278 39.405 116.078 39.505L115.718 40.81L114.608 40.78C114.358 40.4 114.223 39.795 114.203 38.965C114.403 38.865 114.873 38.715 115.613 38.515C116.353 38.305 116.828 38.2 117.038 38.2C118.118 38.2 118.903 38.425 119.393 38.875C119.883 39.315 120.128 40.02 120.128 40.99C120.128 41.95 120.083 43.22 119.993 44.8C120.563 44.85 121.003 44.935 121.313 45.055C121.323 45.175 121.328 45.32 121.328 45.49L121.313 45.82C120.593 46.06 119.868 46.18 119.138 46.18C118.948 46.18 118.808 46.175 118.718 46.165C118.568 45.865 118.478 45.505 118.448 45.085H118.373C118.183 45.265 117.848 45.495 117.368 45.775C116.898 46.045 116.518 46.18 116.228 46.18ZM115.478 43.975C115.478 44.305 115.578 44.55 115.778 44.71C115.988 44.86 116.223 44.935 116.483 44.935C116.743 44.935 117.053 44.82 117.413 44.59C117.773 44.35 118.063 44.135 118.283 43.945L118.208 42.565C117.418 42.605 116.823 42.68 116.423 42.79C115.793 42.92 115.478 43.315 115.478 43.975ZM126.489 38.2C127.489 38.2 128.214 38.445 128.664 38.935C129.114 39.425 129.339 40.11 129.339 40.99C129.339 41.87 129.289 43.06 129.189 44.56L130.374 44.695C130.374 45.105 130.259 45.54 130.029 46H126.294L126.159 45.175C126.629 44.985 127.064 44.835 127.464 44.725C127.434 43.575 127.404 42.61 127.374 41.83C127.344 41.04 127.269 40.505 127.149 40.225C127.029 39.945 126.764 39.805 126.354 39.805C125.734 39.805 125.179 39.915 124.689 40.135C124.679 40.565 124.649 41.27 124.599 42.25C124.559 43.22 124.534 43.99 124.524 44.56L125.694 44.695C125.694 45.105 125.579 45.54 125.349 46H121.614L121.479 45.175C121.979 44.985 122.429 44.835 122.829 44.725C122.819 44.125 122.784 43.295 122.724 42.235C122.674 41.175 122.644 40.39 122.634 39.88C122.264 39.84 121.869 39.765 121.449 39.655L121.524 38.575C122.224 38.385 123.014 38.29 123.894 38.29C124.004 38.36 124.154 38.575 124.344 38.935C124.684 38.765 125.099 38.6 125.589 38.44C126.079 38.28 126.379 38.2 126.489 38.2ZM137.457 34.855C137.647 34.855 137.767 34.86 137.817 34.87C137.817 35.39 137.752 35.845 137.622 36.235C137.582 37.315 137.532 38.855 137.472 40.855C137.422 42.845 137.387 44.16 137.367 44.8C137.957 44.88 138.397 44.965 138.687 45.055V45.775C138.057 46.045 137.192 46.18 136.092 46.18C136.032 46.07 135.952 45.8 135.852 45.37C134.932 45.87 134.267 46.14 133.857 46.18C132.837 46.18 132.072 45.81 131.562 45.07C131.062 44.33 130.812 43.38 130.812 42.22C130.812 41.05 131.067 40.07 131.577 39.28C132.087 38.48 132.842 38.08 133.842 38.08C134.392 38.08 134.972 38.25 135.582 38.59L135.507 36.4C135.037 36.35 134.642 36.275 134.322 36.175C134.322 35.925 134.357 35.565 134.427 35.095C135.017 34.935 136.027 34.855 137.457 34.855ZM134.082 39.55C133.222 39.55 132.792 40.38 132.792 42.04C132.792 42.99 132.962 43.705 133.302 44.185C133.492 44.465 133.737 44.605 134.037 44.605C134.547 44.605 135.122 44.43 135.762 44.08L135.627 40.21C135.057 39.77 134.542 39.55 134.082 39.55ZM150.285 38.32C150.475 38.32 150.595 38.325 150.645 38.335C150.645 38.845 150.56 39.285 150.39 39.655C150.33 41.855 150.28 43.48 150.24 44.53C150.69 44.57 151.085 44.645 151.425 44.755L151.395 45.805C150.785 45.995 150.26 46.09 149.82 46.09C149.38 46.09 149.08 46.08 148.92 46.06C148.8 45.82 148.7 45.58 148.62 45.34C147.79 45.9 147.19 46.18 146.82 46.18C145.03 46.18 144.135 45.275 144.135 43.465C144.135 42.975 144.175 41.77 144.255 39.85C143.725 39.85 143.24 39.78 142.8 39.64C142.8 39.39 142.835 39.03 142.905 38.56C143.495 38.4 144.505 38.32 145.935 38.32C146.125 38.32 146.245 38.325 146.295 38.335C146.295 38.825 146.21 39.28 146.04 39.7V42.73C146.04 43.37 146.105 43.84 146.235 44.14C146.375 44.43 146.665 44.575 147.105 44.575C147.555 44.575 148.015 44.42 148.485 44.11L148.395 39.85C147.955 39.83 147.54 39.76 147.15 39.64C147.15 39.39 147.185 39.03 147.255 38.56C147.845 38.4 148.855 38.32 150.285 38.32ZM157.031 38.2C158.031 38.2 158.756 38.445 159.206 38.935C159.656 39.425 159.881 40.11 159.881 40.99C159.881 41.87 159.831 43.06 159.731 44.56L160.916 44.695C160.916 45.105 160.801 45.54 160.571 46H156.836L156.701 45.175C157.171 44.985 157.606 44.835 158.006 44.725C157.976 43.575 157.946 42.61 157.916 41.83C157.886 41.04 157.811 40.505 157.691 40.225C157.571 39.945 157.306 39.805 156.896 39.805C156.276 39.805 155.721 39.915 155.231 40.135C155.221 40.565 155.191 41.27 155.141 42.25C155.101 43.22 155.076 43.99 155.066 44.56L156.236 44.695C156.236 45.105 156.121 45.54 155.891 46H152.156L152.021 45.175C152.521 44.985 152.971 44.835 153.371 44.725C153.361 44.125 153.326 43.295 153.266 42.235C153.216 41.175 153.186 40.39 153.176 39.88C152.806 39.84 152.411 39.765 151.991 39.655L152.066 38.575C152.766 38.385 153.556 38.29 154.436 38.29C154.546 38.36 154.696 38.575 154.886 38.935C155.226 38.765 155.641 38.6 156.131 38.44C156.621 38.28 156.921 38.2 157.031 38.2ZM167.999 34.855C168.189 34.855 168.309 34.86 168.359 34.87C168.359 35.39 168.294 35.845 168.164 36.235C168.124 37.315 168.074 38.855 168.014 40.855C167.964 42.845 167.929 44.16 167.909 44.8C168.499 44.88 168.939 44.965 169.229 45.055V45.775C168.599 46.045 167.734 46.18 166.634 46.18C166.574 46.07 166.494 45.8 166.394 45.37C165.474 45.87 164.809 46.14 164.399 46.18C163.379 46.18 162.614 45.81 162.104 45.07C161.604 44.33 161.354 43.38 161.354 42.22C161.354 41.05 161.609 40.07 162.119 39.28C162.629 38.48 163.384 38.08 164.384 38.08C164.934 38.08 165.514 38.25 166.124 38.59L166.049 36.4C165.579 36.35 165.184 36.275 164.864 36.175C164.864 35.925 164.899 35.565 164.969 35.095C165.559 34.935 166.569 34.855 167.999 34.855ZM164.624 39.55C163.764 39.55 163.334 40.38 163.334 42.04C163.334 42.99 163.504 43.705 163.844 44.185C164.034 44.465 164.279 44.605 164.579 44.605C165.089 44.605 165.664 44.43 166.304 44.08L166.169 40.21C165.599 39.77 165.084 39.55 164.624 39.55ZM173.751 44.71C174.091 44.71 174.781 44.475 175.821 44.005C176.041 44.325 176.206 44.695 176.316 45.115C175.766 45.455 175.226 45.72 174.696 45.91C174.176 46.09 173.806 46.18 173.586 46.18C172.376 46.18 171.456 45.845 170.826 45.175C170.206 44.505 169.896 43.555 169.896 42.325C169.896 41.085 170.206 40.09 170.826 39.34C171.446 38.58 172.366 38.2 173.586 38.2C174.556 38.2 175.296 38.515 175.806 39.145C176.316 39.775 176.571 40.595 176.571 41.605C176.571 41.815 176.451 42.055 176.211 42.325L171.891 42.25C171.911 43.05 172.061 43.66 172.341 44.08C172.621 44.5 173.091 44.71 173.751 44.71ZM173.451 39.445C173.071 39.445 172.716 39.52 172.386 39.67C172.156 40.15 172.011 40.595 171.951 41.005C172.731 40.975 173.616 40.955 174.606 40.945C174.556 39.945 174.171 39.445 173.451 39.445ZM181.862 39.82C181.842 39.77 181.742 39.745 181.562 39.745C181.382 39.745 181.072 39.88 180.632 40.15C180.592 42.11 180.567 43.58 180.557 44.56L181.727 44.71C181.727 45.14 181.612 45.57 181.382 46H177.647L177.512 45.175C178.132 44.945 178.582 44.795 178.862 44.725L178.697 39.865C178.177 39.825 177.742 39.75 177.392 39.64L177.497 38.56C177.767 38.44 178.742 38.36 180.422 38.32C180.512 38.41 180.557 38.585 180.557 38.845C181.437 38.415 181.992 38.2 182.222 38.2C182.462 38.2 182.752 38.26 183.092 38.38C183.442 38.49 183.707 38.61 183.887 38.74V38.995C183.887 39.815 183.787 40.575 183.587 41.275C183.417 41.345 183.192 41.38 182.912 41.38C182.632 41.38 182.372 41.365 182.132 41.335C182.102 41.205 182.012 40.7 181.862 39.82ZM189.17 38.2C190.17 38.2 190.895 38.445 191.345 38.935C191.795 39.425 192.02 40.11 192.02 40.99C192.02 41.87 191.97 43.06 191.87 44.56L193.055 44.695C193.055 45.105 192.94 45.54 192.71 46H188.975L188.84 45.175C189.31 44.985 189.745 44.835 190.145 44.725C190.115 43.575 190.085 42.61 190.055 41.83C190.025 41.04 189.95 40.505 189.83 40.225C189.71 39.945 189.445 39.805 189.035 39.805C188.415 39.805 187.86 39.915 187.37 40.135C187.36 40.565 187.33 41.27 187.28 42.25C187.24 43.22 187.215 43.99 187.205 44.56L188.375 44.695C188.375 45.105 188.26 45.54 188.03 46H184.295L184.16 45.175C184.66 44.985 185.11 44.835 185.51 44.725C185.5 44.125 185.465 43.295 185.405 42.235C185.355 41.175 185.325 40.39 185.315 39.88C184.945 39.84 184.55 39.765 184.13 39.655L184.205 38.575C184.905 38.385 185.695 38.29 186.575 38.29C186.685 38.36 186.835 38.575 187.025 38.935C187.365 38.765 187.78 38.6 188.27 38.44C188.76 38.28 189.06 38.2 189.17 38.2ZM197.408 44.71C197.748 44.71 198.438 44.475 199.478 44.005C199.698 44.325 199.863 44.695 199.973 45.115C199.423 45.455 198.883 45.72 198.353 45.91C197.833 46.09 197.463 46.18 197.243 46.18C196.033 46.18 195.113 45.845 194.483 45.175C193.863 44.505 193.553 43.555 193.553 42.325C193.553 41.085 193.863 40.09 194.483 39.34C195.103 38.58 196.023 38.2 197.243 38.2C198.213 38.2 198.953 38.515 199.463 39.145C199.973 39.775 200.228 40.595 200.228 41.605C200.228 41.815 200.108 42.055 199.868 42.325L195.548 42.25C195.568 43.05 195.718 43.66 195.998 44.08C196.278 44.5 196.748 44.71 197.408 44.71ZM197.108 39.445C196.728 39.445 196.373 39.52 196.043 39.67C195.813 40.15 195.668 40.595 195.608 41.005C196.388 40.975 197.273 40.955 198.263 40.945C198.213 39.945 197.828 39.445 197.108 39.445ZM203.914 46.18C203.064 46.18 202.404 46.005 201.934 45.655C201.474 45.305 201.244 44.715 201.244 43.885C201.244 43.095 201.519 42.45 202.069 41.95C202.389 41.66 202.834 41.49 203.404 41.44C203.974 41.39 204.759 41.365 205.759 41.365V41.125C205.759 40.515 205.659 40.07 205.459 39.79C205.269 39.5 204.929 39.355 204.439 39.355C204.189 39.355 203.964 39.405 203.764 39.505L203.404 40.81L202.294 40.78C202.044 40.4 201.909 39.795 201.889 38.965C202.089 38.865 202.559 38.715 203.299 38.515C204.039 38.305 204.514 38.2 204.724 38.2C205.804 38.2 206.589 38.425 207.079 38.875C207.569 39.315 207.814 40.02 207.814 40.99C207.814 41.95 207.769 43.22 207.679 44.8C208.249 44.85 208.689 44.935 208.999 45.055C209.009 45.175 209.014 45.32 209.014 45.49L208.999 45.82C208.279 46.06 207.554 46.18 206.824 46.18C206.634 46.18 206.494 46.175 206.404 46.165C206.254 45.865 206.164 45.505 206.134 45.085H206.059C205.869 45.265 205.534 45.495 205.054 45.775C204.584 46.045 204.204 46.18 203.914 46.18ZM203.164 43.975C203.164 44.305 203.264 44.55 203.464 44.71C203.674 44.86 203.909 44.935 204.169 44.935C204.429 44.935 204.739 44.82 205.099 44.59C205.459 44.35 205.749 44.135 205.969 43.945L205.894 42.565C205.104 42.605 204.509 42.68 204.109 42.79C203.479 42.92 203.164 43.315 203.164 43.975ZM210.995 46.18L210.665 46.165C210.605 46.055 210.525 45.85 210.425 45.55C210.325 45.25 210.27 45.025 210.26 44.875C210.21 43.885 210.155 42.17 210.095 39.73H209.045L209.09 38.875C209.32 38.715 209.595 38.57 209.915 38.44L211.13 36.52C211.52 36.56 211.825 36.665 212.045 36.835L212.03 38.26C212.66 38.28 213.245 38.34 213.785 38.44C213.785 38.84 213.66 39.27 213.41 39.73H212.015C211.975 41.83 211.95 43.405 211.94 44.455C212.34 44.495 212.885 44.61 213.575 44.8L213.56 45.58C213.39 45.69 213.01 45.82 212.42 45.97C211.84 46.11 211.365 46.18 210.995 46.18ZM217.365 34.855L217.725 34.87C217.725 35.39 217.66 35.845 217.53 36.235C217.51 37.375 217.5 38.23 217.5 38.8C217.82 38.66 218.185 38.525 218.595 38.395C219.005 38.265 219.26 38.2 219.36 38.2C220.38 38.2 221.11 38.43 221.55 38.89C222 39.35 222.225 40.075 222.225 41.065C222.225 41.165 222.175 42.33 222.075 44.56L223.245 44.71C223.245 45.14 223.13 45.57 222.9 46H219.165L219.03 45.175C219.7 44.905 220.13 44.76 220.32 44.74C220.3 43.66 220.275 42.705 220.245 41.875C220.215 41.035 220.135 40.48 220.005 40.21C219.875 39.94 219.665 39.805 219.375 39.805C219.095 39.805 218.77 39.84 218.4 39.91C218.04 39.97 217.76 40.045 217.56 40.135L217.395 44.56L218.565 44.695C218.565 45.105 218.45 45.54 218.22 46H214.485L214.35 45.175C214.97 44.945 215.42 44.795 215.7 44.725L215.415 36.4C214.945 36.35 214.55 36.275 214.23 36.175C214.23 35.925 214.265 35.565 214.335 35.095C214.925 34.935 215.935 34.855 217.365 34.855Z" fill="#535E65"/>
<path d="M280.306 34.7862C280.11 34.9694 280 35.218 280 35.4771C280 35.7363 280.11 35.9848 280.306 36.1681L285.478 41.0059L280.306 45.8437C280.116 46.028 280.01 46.2749 280.013 46.5312C280.015 46.7874 280.125 47.0325 280.319 47.2137C280.512 47.395 280.774 47.4977 281.048 47.5C281.322 47.5022 281.586 47.4037 281.783 47.2257L287.694 41.6969C287.89 41.5136 288 41.2651 288 41.0059C288 40.7467 287.89 40.4982 287.694 40.3149L281.783 34.7862C281.587 34.6029 281.322 34.5 281.045 34.5C280.768 34.5 280.502 34.6029 280.306 34.7862Z" fill="#535E65"/>
<rect x="0.5" y="0.5" width="318" height="143" rx="4.5" stroke="#9747FF" stroke-dasharray="10 5"/>
</svg>
