<svg width="319" height="144" viewBox="0 0 319 144" fill="none" xmlns="http://www.w3.org/2000/svg">
<rect width="279" height="42" transform="translate(20 20)" fill="white"/>
<path d="M34.735 37C34.735 38.14 34.725 39.12 34.705 39.94H36.235L36.385 38.905C36.895 38.905 37.39 39.03 37.87 39.28V42.28L36.88 42.325C36.64 41.965 36.5 41.65 36.46 41.38H34.69C34.67 42.78 34.66 43.835 34.66 44.545H37.225L37.555 43.24C38.175 43.24 38.645 43.27 38.965 43.33C39.115 43.9 39.19 44.42 39.19 44.89C39.19 45.35 39.175 45.72 39.145 46H31.705L31.57 45.175C32.22 44.925 32.64 44.78 32.83 44.74C32.82 44.15 32.81 43.32 32.8 42.25C32.76 39.85 32.725 38.035 32.695 36.805L31.45 36.415L31.57 35.5H38.935C38.965 35.77 38.98 36.11 38.98 36.52C38.98 36.92 38.905 37.48 38.755 38.2C38.445 38.3 37.975 38.35 37.345 38.35L37 37H34.735ZM48.1859 38.38C48.2459 38.49 48.2759 38.595 48.2759 38.695C48.2759 38.785 48.2659 38.87 48.2459 38.95C48.2259 39.03 48.1959 39.12 48.1559 39.22C48.1159 39.32 48.0909 39.39 48.0809 39.43C47.6509 39.57 47.1909 39.66 46.7009 39.7L45.0809 42.025L47.1059 44.575C47.4659 44.575 47.8659 44.615 48.3059 44.695C48.3059 45.125 48.2209 45.56 48.0509 46H44.0009L43.8809 45.22C44.2509 45.02 44.6459 44.86 45.0659 44.74L44.0159 43.375L42.1709 46H39.8609C39.7909 45.76 39.7559 45.475 39.7559 45.145C40.3259 44.875 40.8859 44.685 41.4359 44.575L43.1309 42.265L41.2109 39.85L39.8009 39.655C39.8009 39.245 39.8859 38.82 40.0559 38.38H44.1059L44.1959 39.205C43.8259 39.395 43.4809 39.52 43.1609 39.58L44.1809 40.9L46.0409 38.38H48.1859ZM50.4187 46.18L50.0887 46.165C50.0287 46.055 49.9487 45.85 49.8487 45.55C49.7487 45.25 49.6937 45.025 49.6837 44.875C49.6337 43.885 49.5787 42.17 49.5187 39.73H48.4687L48.5137 38.875C48.7437 38.715 49.0187 38.57 49.3387 38.44L50.5537 36.52C50.9437 36.56 51.2487 36.665 51.4687 36.835L51.4537 38.26C52.0837 38.28 52.6687 38.34 53.2087 38.44C53.2087 38.84 53.0837 39.27 52.8337 39.73H51.4387C51.3987 41.83 51.3737 43.405 51.3637 44.455C51.7637 44.495 52.3087 44.61 52.9987 44.8L52.9837 45.58C52.8137 45.69 52.4337 45.82 51.8437 45.97C51.2637 46.11 50.7887 46.18 50.4187 46.18ZM57.8085 44.71C58.1485 44.71 58.8385 44.475 59.8785 44.005C60.0985 44.325 60.2635 44.695 60.3735 45.115C59.8235 45.455 59.2835 45.72 58.7535 45.91C58.2335 46.09 57.8635 46.18 57.6435 46.18C56.4335 46.18 55.5135 45.845 54.8835 45.175C54.2635 44.505 53.9535 43.555 53.9535 42.325C53.9535 41.085 54.2635 40.09 54.8835 39.34C55.5035 38.58 56.4235 38.2 57.6435 38.2C58.6135 38.2 59.3535 38.515 59.8635 39.145C60.3735 39.775 60.6285 40.595 60.6285 41.605C60.6285 41.815 60.5085 42.055 60.2685 42.325L55.9485 42.25C55.9685 43.05 56.1185 43.66 56.3985 44.08C56.6785 44.5 57.1485 44.71 57.8085 44.71ZM57.5085 39.445C57.1285 39.445 56.7735 39.52 56.4435 39.67C56.2135 40.15 56.0685 40.595 56.0085 41.005C56.7885 40.975 57.6735 40.955 58.6635 40.945C58.6135 39.945 58.2285 39.445 57.5085 39.445ZM65.9193 39.82C65.8993 39.77 65.7993 39.745 65.6193 39.745C65.4393 39.745 65.1293 39.88 64.6893 40.15C64.6493 42.11 64.6243 43.58 64.6143 44.56L65.7843 44.71C65.7843 45.14 65.6693 45.57 65.4393 46H61.7043L61.5693 45.175C62.1893 44.945 62.6393 44.795 62.9193 44.725L62.7543 39.865C62.2343 39.825 61.7993 39.75 61.4493 39.64L61.5543 38.56C61.8243 38.44 62.7993 38.36 64.4793 38.32C64.5693 38.41 64.6143 38.585 64.6143 38.845C65.4943 38.415 66.0493 38.2 66.2793 38.2C66.5193 38.2 66.8093 38.26 67.1493 38.38C67.4993 38.49 67.7643 38.61 67.9443 38.74V38.995C67.9443 39.815 67.8443 40.575 67.6443 41.275C67.4743 41.345 67.2493 41.38 66.9693 41.38C66.6893 41.38 66.4293 41.365 66.1893 41.335C66.1593 41.205 66.0693 40.7 65.9193 39.82ZM71.3526 38.32C71.5426 38.32 71.6626 38.325 71.7126 38.335C71.7126 38.825 71.6276 39.28 71.4576 39.7C71.4176 41.86 71.3926 43.48 71.3826 44.56L72.5526 44.695C72.5526 45.105 72.4376 45.54 72.2076 46H68.4726L68.3376 45.175C68.9576 44.945 69.4076 44.795 69.6876 44.725L69.5226 39.865C68.9326 39.805 68.4976 39.73 68.2176 39.64C68.2176 39.39 68.2526 39.03 68.3226 38.56C68.9126 38.4 69.9226 38.32 71.3526 38.32ZM71.3526 35.485C71.4426 35.935 71.4876 36.28 71.4876 36.52C71.4876 36.75 71.4676 37.01 71.4276 37.3C71.0276 37.39 70.6876 37.435 70.4076 37.435C70.1376 37.435 69.8076 37.42 69.4176 37.39C69.3276 36.94 69.2826 36.6 69.2826 36.37C69.2826 36.13 69.3026 35.865 69.3426 35.575C69.7426 35.485 70.0776 35.44 70.3476 35.44C70.6276 35.44 70.9626 35.455 71.3526 35.485ZM76.8068 39.4C76.4468 39.4 76.0368 39.49 75.5768 39.67C75.4468 39.87 75.3218 40.225 75.2018 40.735C75.0918 41.235 75.0368 41.74 75.0368 42.25C75.0368 43.19 75.1768 43.86 75.4568 44.26C75.7368 44.65 76.1868 44.845 76.8068 44.845C77.4368 44.845 77.8918 44.65 78.1718 44.26C78.4518 43.86 78.5918 43.18 78.5918 42.22C78.5918 41.25 78.4468 40.54 78.1568 40.09C77.8768 39.63 77.4268 39.4 76.8068 39.4ZM76.8068 38.2C77.9768 38.2 78.9168 38.56 79.6268 39.28C80.3468 39.99 80.7068 40.985 80.7068 42.265C80.7068 43.535 80.3518 44.505 79.6418 45.175C78.9318 45.845 77.9868 46.18 76.8068 46.18C75.6268 46.18 74.6818 45.845 73.9718 45.175C73.2718 44.505 72.9218 43.535 72.9218 42.265C72.9218 40.985 73.2768 39.99 73.9868 39.28C74.6968 38.56 75.6368 38.2 76.8068 38.2ZM85.3431 39.82C85.3231 39.77 85.2231 39.745 85.0431 39.745C84.8631 39.745 84.5531 39.88 84.1131 40.15C84.0731 42.11 84.0481 43.58 84.0381 44.56L85.2081 44.71C85.2081 45.14 85.0931 45.57 84.8631 46H81.1281L80.9931 45.175C81.6131 44.945 82.0631 44.795 82.3431 44.725L82.1781 39.865C81.6581 39.825 81.2231 39.75 80.8731 39.64L80.9781 38.56C81.2481 38.44 82.2231 38.36 83.9031 38.32C83.9931 38.41 84.0381 38.585 84.0381 38.845C84.9181 38.415 85.4731 38.2 85.7031 38.2C85.9431 38.2 86.2331 38.26 86.5731 38.38C86.9231 38.49 87.1881 38.61 87.3681 38.74V38.995C87.3681 39.815 87.2681 40.575 87.0681 41.275C86.8981 41.345 86.6731 41.38 86.3931 41.38C86.1131 41.38 85.8531 41.365 85.6131 41.335C85.5831 41.205 85.4931 40.7 85.3431 39.82ZM94.2229 34.855C94.4629 34.855 94.6179 34.86 94.6879 34.87C94.6879 35.39 94.6229 35.845 94.4929 36.235L94.4479 38.755C95.3779 38.385 96.0179 38.2 96.3679 38.2C97.3579 38.2 98.0879 38.57 98.5579 39.31C99.0379 40.04 99.2779 40.99 99.2779 42.16C99.2779 43.33 99.0129 44.295 98.4829 45.055C97.9529 45.805 97.1829 46.18 96.1729 46.18C95.5129 46.18 94.8179 45.93 94.0879 45.43C94.0479 45.66 93.9879 45.87 93.9079 46.06C93.7279 46.08 93.5479 46.09 93.3679 46.09C93.1879 46.09 92.9629 46.06 92.6929 46L92.3779 36.4C91.9079 36.35 91.5129 36.275 91.1929 36.175C91.1929 35.805 91.2279 35.445 91.2979 35.095C91.8779 34.935 92.8529 34.855 94.2229 34.855ZM96.1129 39.775C95.4629 39.775 94.9029 39.89 94.4329 40.12C94.4129 41.8 94.3929 43.07 94.3729 43.93C94.6129 44.13 94.8879 44.31 95.1979 44.47C95.5079 44.63 95.7729 44.71 95.9929 44.71C96.8629 44.71 97.2979 43.91 97.2979 42.31C97.2979 41.63 97.2029 41.04 97.0129 40.54C96.8329 40.03 96.5329 39.775 96.1129 39.775ZM103.452 39.4C103.092 39.4 102.682 39.49 102.222 39.67C102.092 39.87 101.967 40.225 101.847 40.735C101.737 41.235 101.682 41.74 101.682 42.25C101.682 43.19 101.822 43.86 102.102 44.26C102.382 44.65 102.832 44.845 103.452 44.845C104.082 44.845 104.537 44.65 104.817 44.26C105.097 43.86 105.237 43.18 105.237 42.22C105.237 41.25 105.092 40.54 104.802 40.09C104.522 39.63 104.072 39.4 103.452 39.4ZM103.452 38.2C104.622 38.2 105.562 38.56 106.272 39.28C106.992 39.99 107.352 40.985 107.352 42.265C107.352 43.535 106.997 44.505 106.287 45.175C105.577 45.845 104.632 46.18 103.452 46.18C102.272 46.18 101.327 45.845 100.617 45.175C99.9173 44.505 99.5673 43.535 99.5673 42.265C99.5673 40.985 99.9223 39.99 100.632 39.28C101.342 38.56 102.282 38.2 103.452 38.2ZM114.284 34.855C114.474 34.855 114.594 34.86 114.644 34.87C114.644 35.39 114.579 35.845 114.449 36.235C114.409 37.315 114.359 38.855 114.299 40.855C114.249 42.845 114.214 44.16 114.194 44.8C114.784 44.88 115.224 44.965 115.514 45.055V45.775C114.884 46.045 114.019 46.18 112.919 46.18C112.859 46.07 112.779 45.8 112.679 45.37C111.759 45.87 111.094 46.14 110.684 46.18C109.664 46.18 108.899 45.81 108.389 45.07C107.889 44.33 107.639 43.38 107.639 42.22C107.639 41.05 107.894 40.07 108.404 39.28C108.914 38.48 109.669 38.08 110.669 38.08C111.219 38.08 111.799 38.25 112.409 38.59L112.334 36.4C111.864 36.35 111.469 36.275 111.149 36.175C111.149 35.925 111.184 35.565 111.254 35.095C111.844 34.935 112.854 34.855 114.284 34.855ZM110.909 39.55C110.049 39.55 109.619 40.38 109.619 42.04C109.619 42.99 109.789 43.705 110.129 44.185C110.319 44.465 110.564 44.605 110.864 44.605C111.374 44.605 111.949 44.43 112.589 44.08L112.454 40.21C111.884 39.77 111.369 39.55 110.909 39.55ZM118.115 49.63C117.825 49.63 117.505 49.58 117.155 49.48C116.805 49.38 116.43 49.23 116.03 49.03C116.09 47.88 116.145 47.195 116.195 46.975C116.575 46.875 116.885 46.825 117.125 46.825C117.375 46.825 117.535 46.83 117.605 46.84L118.085 48.34L118.22 48.325C118.45 48.295 118.685 48.02 118.925 47.5C119.165 46.98 119.34 46.48 119.45 46H118.82L116.6 39.82L115.43 39.685C115.43 39.275 115.545 38.84 115.775 38.38H119.51L119.645 39.205C119.235 39.395 118.89 39.525 118.61 39.595L119.75 43.15L119.885 43.795H120.215L121.49 39.595C121.15 39.535 120.73 39.405 120.23 39.205L120.365 38.38H124.1C124.33 38.84 124.445 39.275 124.445 39.685C124.055 39.745 123.665 39.785 123.275 39.805C122.375 42.445 121.67 44.485 121.16 45.925C120.66 47.365 120.205 48.34 119.795 48.85C119.385 49.37 118.825 49.63 118.115 49.63ZM133.574 46.18C132.994 46.18 132.384 45.99 131.744 45.61C131.724 46.67 131.714 47.47 131.714 48.01L132.884 48.145C132.884 48.585 132.769 49.02 132.539 49.45H128.804L128.669 48.625C129.309 48.385 129.759 48.235 130.019 48.175L129.734 39.85C129.264 39.81 128.869 39.735 128.549 39.625C128.549 39.255 128.584 38.895 128.654 38.545C129.074 38.455 130.004 38.375 131.444 38.305C131.524 38.435 131.614 38.655 131.714 38.965C132.754 38.455 133.439 38.2 133.769 38.2C134.759 38.2 135.494 38.55 135.974 39.25C136.454 39.94 136.694 40.87 136.694 42.04C136.694 43.21 136.424 44.195 135.884 44.995C135.354 45.785 134.584 46.18 133.574 46.18ZM131.834 40.285L131.774 44.08C132.004 44.29 132.274 44.475 132.584 44.635C132.904 44.785 133.174 44.86 133.394 44.86C134.274 44.86 134.714 44.015 134.714 42.325C134.714 41.695 134.649 41.19 134.519 40.81C134.399 40.43 134.254 40.165 134.084 40.015C133.924 39.855 133.734 39.775 133.514 39.775C133.074 39.775 132.514 39.945 131.834 40.285ZM139.724 46.18C138.874 46.18 138.214 46.005 137.744 45.655C137.284 45.305 137.054 44.715 137.054 43.885C137.054 43.095 137.329 42.45 137.879 41.95C138.199 41.66 138.644 41.49 139.214 41.44C139.784 41.39 140.569 41.365 141.569 41.365V41.125C141.569 40.515 141.469 40.07 141.269 39.79C141.079 39.5 140.739 39.355 140.249 39.355C139.999 39.355 139.774 39.405 139.574 39.505L139.214 40.81L138.104 40.78C137.854 40.4 137.719 39.795 137.699 38.965C137.899 38.865 138.369 38.715 139.109 38.515C139.849 38.305 140.324 38.2 140.534 38.2C141.614 38.2 142.399 38.425 142.889 38.875C143.379 39.315 143.624 40.02 143.624 40.99C143.624 41.95 143.579 43.22 143.489 44.8C144.059 44.85 144.499 44.935 144.809 45.055C144.819 45.175 144.824 45.32 144.824 45.49L144.809 45.82C144.089 46.06 143.364 46.18 142.634 46.18C142.444 46.18 142.304 46.175 142.214 46.165C142.064 45.865 141.974 45.505 141.944 45.085H141.869C141.679 45.265 141.344 45.495 140.864 45.775C140.394 46.045 140.014 46.18 139.724 46.18ZM138.974 43.975C138.974 44.305 139.074 44.55 139.274 44.71C139.484 44.86 139.719 44.935 139.979 44.935C140.239 44.935 140.549 44.82 140.909 44.59C141.269 44.35 141.559 44.135 141.779 43.945L141.704 42.565C140.914 42.605 140.319 42.68 139.919 42.79C139.289 42.92 138.974 43.315 138.974 43.975ZM149.415 39.82C149.395 39.77 149.295 39.745 149.115 39.745C148.935 39.745 148.625 39.88 148.185 40.15C148.145 42.11 148.12 43.58 148.11 44.56L149.28 44.71C149.28 45.14 149.165 45.57 148.935 46H145.2L145.065 45.175C145.685 44.945 146.135 44.795 146.415 44.725L146.25 39.865C145.73 39.825 145.295 39.75 144.945 39.64L145.05 38.56C145.32 38.44 146.295 38.36 147.975 38.32C148.065 38.41 148.11 38.585 148.11 38.845C148.99 38.415 149.545 38.2 149.775 38.2C150.015 38.2 150.305 38.26 150.645 38.38C150.995 38.49 151.26 38.61 151.44 38.74V38.995C151.44 39.815 151.34 40.575 151.14 41.275C150.97 41.345 150.745 41.38 150.465 41.38C150.185 41.38 149.925 41.365 149.685 41.335C149.655 41.205 149.565 40.7 149.415 39.82ZM153.544 46.18L153.214 46.165C153.154 46.055 153.074 45.85 152.974 45.55C152.874 45.25 152.819 45.025 152.809 44.875C152.759 43.885 152.704 42.17 152.644 39.73H151.594L151.639 38.875C151.869 38.715 152.144 38.57 152.464 38.44L153.679 36.52C154.069 36.56 154.374 36.665 154.594 36.835L154.579 38.26C155.209 38.28 155.794 38.34 156.334 38.44C156.334 38.84 156.209 39.27 155.959 39.73H154.564C154.524 41.83 154.499 43.405 154.489 44.455C154.889 44.495 155.434 44.61 156.124 44.8L156.109 45.58C155.939 45.69 155.559 45.82 154.969 45.97C154.389 46.11 153.914 46.18 153.544 46.18ZM162.464 38.845L162.479 39.31C162.479 40.09 162.419 40.6 162.299 40.84C161.969 40.96 161.509 41.02 160.919 41.02L160.439 39.505C160.309 39.455 160.129 39.43 159.899 39.43C159.669 39.43 159.479 39.5 159.329 39.64C159.189 39.78 159.119 39.945 159.119 40.135C159.119 40.325 159.194 40.5 159.344 40.66C159.494 40.81 159.649 40.93 159.809 41.02C159.969 41.11 160.199 41.23 160.499 41.38C160.809 41.52 161.039 41.63 161.189 41.71C161.349 41.79 161.549 41.91 161.789 42.07C162.039 42.23 162.229 42.38 162.359 42.52C162.679 42.9 162.839 43.315 162.839 43.765C162.839 44.535 162.544 45.13 161.954 45.55C161.374 45.97 160.659 46.18 159.809 46.18C159.359 46.18 158.864 46.1 158.324 45.94C157.794 45.78 157.344 45.565 156.974 45.295C156.974 44.575 157.044 43.905 157.184 43.285C157.584 43.235 157.909 43.21 158.159 43.21C158.409 43.21 158.579 43.215 158.669 43.225L158.849 44.68C159.099 44.77 159.399 44.815 159.749 44.815C160.099 44.815 160.374 44.745 160.574 44.605C160.784 44.465 160.889 44.27 160.889 44.02C160.889 43.76 160.774 43.545 160.544 43.375C160.314 43.205 159.999 43.03 159.599 42.85C159.199 42.66 158.889 42.505 158.669 42.385C158.449 42.255 158.214 42.09 157.964 41.89C157.454 41.5 157.199 41.02 157.199 40.45C157.199 39.74 157.444 39.19 157.934 38.8C158.434 38.4 159.104 38.2 159.944 38.2C160.784 38.2 161.624 38.415 162.464 38.845Z" fill="#535E65"/>
<path d="M280.306 34.7862C280.11 34.9694 280 35.218 280 35.4771C280 35.7363 280.11 35.9848 280.306 36.1681L285.478 41.0059L280.306 45.8437C280.116 46.028 280.01 46.2749 280.013 46.5312C280.015 46.7874 280.125 47.0325 280.319 47.2137C280.512 47.395 280.774 47.4977 281.048 47.5C281.322 47.5022 281.586 47.4037 281.783 47.2257L287.694 41.6969C287.89 41.5136 288 41.2651 288 41.0059C288 40.7467 287.89 40.4982 287.694 40.3149L281.783 34.7862C281.587 34.6029 281.322 34.5 281.045 34.5C280.768 34.5 280.502 34.6029 280.306 34.7862Z" fill="#535E65"/>
<rect x="0.5" y="0.5" width="318" height="143" rx="4.5" stroke="#9747FF" stroke-dasharray="10 5"/>
</svg>
