<svg width="319" height="144" viewBox="0 0 319 144" fill="none" xmlns="http://www.w3.org/2000/svg">
<path d="M20 20H299V57C299 59.7614 296.761 62 294 62H25C22.2386 62 20 59.7614 20 57V20Z" fill="white"/>
<path d="M31.54 38.23C31.38 37.54 31.3 36.995 31.3 36.595C31.3 36.195 31.315 35.83 31.345 35.5H40.06C40.1 35.98 40.12 36.305 40.12 36.475C40.12 36.905 40.04 37.49 39.88 38.23C39.59 38.31 39.115 38.35 38.455 38.35L38.11 36.835H36.835C36.825 37.215 36.78 39.79 36.7 44.56L37.78 44.695C37.78 45.155 37.665 45.59 37.435 46H33.79L33.655 45.175C34.345 44.915 34.78 44.77 34.96 44.74C34.96 44.7 34.9 42.07 34.78 36.85H33.295L32.965 38.32C32.375 38.32 31.9 38.29 31.54 38.23ZM45.2064 39.82C45.1864 39.77 45.0864 39.745 44.9064 39.745C44.7264 39.745 44.4164 39.88 43.9764 40.15C43.9364 42.11 43.9114 43.58 43.9014 44.56L45.0714 44.71C45.0714 45.14 44.9564 45.57 44.7264 46H40.9914L40.8564 45.175C41.4764 44.945 41.9264 44.795 42.2064 44.725L42.0414 39.865C41.5214 39.825 41.0864 39.75 40.7364 39.64L40.8414 38.56C41.1114 38.44 42.0864 38.36 43.7664 38.32C43.8564 38.41 43.9014 38.585 43.9014 38.845C44.7814 38.415 45.3364 38.2 45.5664 38.2C45.8064 38.2 46.0964 38.26 46.4364 38.38C46.7864 38.49 47.0514 38.61 47.2314 38.74V38.995C47.2314 39.815 47.1314 40.575 46.9314 41.275C46.7614 41.345 46.5364 41.38 46.2564 41.38C45.9764 41.38 45.7164 41.365 45.4764 41.335C45.4464 41.205 45.3564 40.7 45.2064 39.82ZM50.3397 46.18C49.4897 46.18 48.8297 46.005 48.3597 45.655C47.8997 45.305 47.6697 44.715 47.6697 43.885C47.6697 43.095 47.9447 42.45 48.4947 41.95C48.8147 41.66 49.2597 41.49 49.8297 41.44C50.3997 41.39 51.1847 41.365 52.1847 41.365V41.125C52.1847 40.515 52.0847 40.07 51.8847 39.79C51.6947 39.5 51.3547 39.355 50.8647 39.355C50.6147 39.355 50.3897 39.405 50.1897 39.505L49.8297 40.81L48.7197 40.78C48.4697 40.4 48.3347 39.795 48.3147 38.965C48.5147 38.865 48.9847 38.715 49.7247 38.515C50.4647 38.305 50.9397 38.2 51.1497 38.2C52.2297 38.2 53.0147 38.425 53.5047 38.875C53.9947 39.315 54.2397 40.02 54.2397 40.99C54.2397 41.95 54.1947 43.22 54.1047 44.8C54.6747 44.85 55.1147 44.935 55.4247 45.055C55.4347 45.175 55.4397 45.32 55.4397 45.49L55.4247 45.82C54.7047 46.06 53.9797 46.18 53.2497 46.18C53.0597 46.18 52.9197 46.175 52.8297 46.165C52.6797 45.865 52.5897 45.505 52.5597 45.085H52.4847C52.2947 45.265 51.9597 45.495 51.4797 45.775C51.0097 46.045 50.6297 46.18 50.3397 46.18ZM49.5897 43.975C49.5897 44.305 49.6897 44.55 49.8897 44.71C50.0997 44.86 50.3347 44.935 50.5947 44.935C50.8547 44.935 51.1647 44.82 51.5247 44.59C51.8847 44.35 52.1747 44.135 52.3947 43.945L52.3197 42.565C51.5297 42.605 50.9347 42.68 50.5347 42.79C49.9047 42.92 49.5897 43.315 49.5897 43.975ZM60.6006 38.2C61.6006 38.2 62.3256 38.445 62.7756 38.935C63.2256 39.425 63.4506 40.11 63.4506 40.99C63.4506 41.87 63.4006 43.06 63.3006 44.56L64.4856 44.695C64.4856 45.105 64.3706 45.54 64.1406 46H60.4056L60.2706 45.175C60.7406 44.985 61.1756 44.835 61.5756 44.725C61.5456 43.575 61.5156 42.61 61.4856 41.83C61.4556 41.04 61.3806 40.505 61.2606 40.225C61.1406 39.945 60.8756 39.805 60.4656 39.805C59.8456 39.805 59.2906 39.915 58.8006 40.135C58.7906 40.565 58.7606 41.27 58.7106 42.25C58.6706 43.22 58.6456 43.99 58.6356 44.56L59.8056 44.695C59.8056 45.105 59.6906 45.54 59.4606 46H55.7256L55.5906 45.175C56.0906 44.985 56.5406 44.835 56.9406 44.725C56.9306 44.125 56.8956 43.295 56.8356 42.235C56.7856 41.175 56.7556 40.39 56.7456 39.88C56.3756 39.84 55.9806 39.765 55.5606 39.655L55.6356 38.575C56.3356 38.385 57.1256 38.29 58.0056 38.29C58.1156 38.36 58.2656 38.575 58.4556 38.935C58.7956 38.765 59.2106 38.6 59.7006 38.44C60.1906 38.28 60.4906 38.2 60.6006 38.2ZM70.3688 38.845L70.3838 39.31C70.3838 40.09 70.3238 40.6 70.2038 40.84C69.8738 40.96 69.4138 41.02 68.8238 41.02L68.3438 39.505C68.2138 39.455 68.0338 39.43 67.8038 39.43C67.5738 39.43 67.3838 39.5 67.2338 39.64C67.0938 39.78 67.0238 39.945 67.0238 40.135C67.0238 40.325 67.0988 40.5 67.2488 40.66C67.3988 40.81 67.5538 40.93 67.7138 41.02C67.8738 41.11 68.1038 41.23 68.4038 41.38C68.7138 41.52 68.9438 41.63 69.0938 41.71C69.2538 41.79 69.4538 41.91 69.6938 42.07C69.9438 42.23 70.1338 42.38 70.2638 42.52C70.5838 42.9 70.7438 43.315 70.7438 43.765C70.7438 44.535 70.4488 45.13 69.8588 45.55C69.2788 45.97 68.5638 46.18 67.7138 46.18C67.2638 46.18 66.7688 46.1 66.2288 45.94C65.6988 45.78 65.2488 45.565 64.8788 45.295C64.8788 44.575 64.9488 43.905 65.0888 43.285C65.4888 43.235 65.8138 43.21 66.0638 43.21C66.3138 43.21 66.4838 43.215 66.5738 43.225L66.7538 44.68C67.0038 44.77 67.3038 44.815 67.6538 44.815C68.0038 44.815 68.2788 44.745 68.4788 44.605C68.6888 44.465 68.7938 44.27 68.7938 44.02C68.7938 43.76 68.6788 43.545 68.4488 43.375C68.2188 43.205 67.9038 43.03 67.5038 42.85C67.1038 42.66 66.7938 42.505 66.5738 42.385C66.3538 42.255 66.1188 42.09 65.8688 41.89C65.3588 41.5 65.1038 41.02 65.1038 40.45C65.1038 39.74 65.3488 39.19 65.8388 38.8C66.3388 38.4 67.0088 38.2 67.8488 38.2C68.6888 38.2 69.5288 38.415 70.3688 38.845ZM82.191 41.665C82.171 40.965 82.086 40.48 81.936 40.21C81.796 39.94 81.466 39.805 80.946 39.805C80.436 39.805 79.961 39.915 79.521 40.135C79.521 41.415 79.456 42.89 79.326 44.56L80.511 44.695C80.511 45.105 80.396 45.54 80.166 46H76.431L76.296 45.175C76.816 44.985 77.271 44.835 77.661 44.725L77.541 41.605C77.521 40.955 77.441 40.495 77.301 40.225C77.171 39.945 76.916 39.805 76.536 39.805C76.336 39.805 76.046 39.84 75.666 39.91C75.286 39.98 74.996 40.055 74.796 40.135C74.796 40.165 74.751 41.64 74.661 44.56L75.831 44.695C75.831 45.135 75.716 45.57 75.486 46H71.751L71.616 45.175C72.206 44.945 72.656 44.795 72.966 44.725L72.771 39.88C72.361 39.84 71.966 39.765 71.586 39.655L71.661 38.575C71.831 38.525 72.196 38.465 72.756 38.395C73.316 38.325 73.741 38.29 74.031 38.29C74.071 38.32 74.146 38.415 74.256 38.575C74.366 38.725 74.441 38.845 74.481 38.935C74.821 38.765 75.231 38.6 75.711 38.44C76.201 38.28 76.501 38.2 76.611 38.2C77.671 38.2 78.446 38.475 78.936 39.025C79.316 38.825 79.776 38.64 80.316 38.47C80.856 38.29 81.191 38.2 81.321 38.2C82.271 38.2 82.981 38.425 83.451 38.875C83.921 39.325 84.156 40.075 84.156 41.125C84.156 41.705 84.111 42.85 84.021 44.56L85.191 44.695C85.191 45.135 85.076 45.57 84.846 46H81.126L80.991 45.175C81.461 44.985 81.891 44.835 82.281 44.725C82.271 44.495 82.261 44.17 82.251 43.75C82.231 43.06 82.211 42.365 82.191 41.665ZM88.667 38.32C88.857 38.32 88.977 38.325 89.027 38.335C89.027 38.825 88.942 39.28 88.772 39.7C88.732 41.86 88.707 43.48 88.697 44.56L89.867 44.695C89.867 45.105 89.752 45.54 89.522 46H85.787L85.652 45.175C86.272 44.945 86.722 44.795 87.002 44.725L86.837 39.865C86.247 39.805 85.812 39.73 85.532 39.64C85.532 39.39 85.567 39.03 85.637 38.56C86.227 38.4 87.237 38.32 88.667 38.32ZM88.667 35.485C88.757 35.935 88.802 36.28 88.802 36.52C88.802 36.75 88.782 37.01 88.742 37.3C88.342 37.39 88.002 37.435 87.722 37.435C87.452 37.435 87.122 37.42 86.732 37.39C86.642 36.94 86.597 36.6 86.597 36.37C86.597 36.13 86.617 35.865 86.657 35.575C87.057 35.485 87.392 35.44 87.662 35.44C87.942 35.44 88.277 35.455 88.667 35.485ZM95.6813 38.845L95.6963 39.31C95.6963 40.09 95.6363 40.6 95.5163 40.84C95.1863 40.96 94.7263 41.02 94.1363 41.02L93.6563 39.505C93.5263 39.455 93.3463 39.43 93.1163 39.43C92.8863 39.43 92.6963 39.5 92.5463 39.64C92.4063 39.78 92.3363 39.945 92.3363 40.135C92.3363 40.325 92.4113 40.5 92.5613 40.66C92.7113 40.81 92.8663 40.93 93.0263 41.02C93.1863 41.11 93.4163 41.23 93.7163 41.38C94.0263 41.52 94.2563 41.63 94.4063 41.71C94.5663 41.79 94.7663 41.91 95.0063 42.07C95.2563 42.23 95.4463 42.38 95.5763 42.52C95.8963 42.9 96.0563 43.315 96.0563 43.765C96.0563 44.535 95.7613 45.13 95.1713 45.55C94.5913 45.97 93.8763 46.18 93.0263 46.18C92.5763 46.18 92.0813 46.1 91.5413 45.94C91.0113 45.78 90.5613 45.565 90.1913 45.295C90.1913 44.575 90.2613 43.905 90.4013 43.285C90.8013 43.235 91.1263 43.21 91.3763 43.21C91.6263 43.21 91.7963 43.215 91.8863 43.225L92.0663 44.68C92.3163 44.77 92.6163 44.815 92.9663 44.815C93.3163 44.815 93.5913 44.745 93.7913 44.605C94.0013 44.465 94.1063 44.27 94.1063 44.02C94.1063 43.76 93.9913 43.545 93.7613 43.375C93.5313 43.205 93.2163 43.03 92.8163 42.85C92.4163 42.66 92.1063 42.505 91.8863 42.385C91.6663 42.255 91.4313 42.09 91.1813 41.89C90.6713 41.5 90.4163 41.02 90.4163 40.45C90.4163 39.74 90.6613 39.19 91.1513 38.8C91.6513 38.4 92.3213 38.2 93.1613 38.2C94.0013 38.2 94.8413 38.415 95.6813 38.845ZM102.464 38.845L102.479 39.31C102.479 40.09 102.419 40.6 102.299 40.84C101.969 40.96 101.509 41.02 100.919 41.02L100.439 39.505C100.309 39.455 100.129 39.43 99.8985 39.43C99.6685 39.43 99.4785 39.5 99.3285 39.64C99.1885 39.78 99.1185 39.945 99.1185 40.135C99.1185 40.325 99.1935 40.5 99.3435 40.66C99.4935 40.81 99.6485 40.93 99.8085 41.02C99.9685 41.11 100.199 41.23 100.499 41.38C100.809 41.52 101.039 41.63 101.189 41.71C101.349 41.79 101.549 41.91 101.789 42.07C102.039 42.23 102.229 42.38 102.359 42.52C102.679 42.9 102.839 43.315 102.839 43.765C102.839 44.535 102.544 45.13 101.954 45.55C101.374 45.97 100.659 46.18 99.8085 46.18C99.3585 46.18 98.8635 46.1 98.3235 45.94C97.7935 45.78 97.3435 45.565 96.9735 45.295C96.9735 44.575 97.0435 43.905 97.1835 43.285C97.5835 43.235 97.9085 43.21 98.1585 43.21C98.4085 43.21 98.5785 43.215 98.6685 43.225L98.8485 44.68C99.0985 44.77 99.3985 44.815 99.7485 44.815C100.099 44.815 100.374 44.745 100.574 44.605C100.784 44.465 100.889 44.27 100.889 44.02C100.889 43.76 100.774 43.545 100.544 43.375C100.314 43.205 99.9985 43.03 99.5985 42.85C99.1985 42.66 98.8885 42.505 98.6685 42.385C98.4485 42.255 98.2135 42.09 97.9635 41.89C97.4535 41.5 97.1985 41.02 97.1985 40.45C97.1985 39.74 97.4435 39.19 97.9335 38.8C98.4335 38.4 99.1035 38.2 99.9435 38.2C100.784 38.2 101.624 38.415 102.464 38.845ZM106.846 38.32C107.036 38.32 107.156 38.325 107.206 38.335C107.206 38.825 107.121 39.28 106.951 39.7C106.911 41.86 106.886 43.48 106.876 44.56L108.046 44.695C108.046 45.105 107.931 45.54 107.701 46H103.966L103.831 45.175C104.451 44.945 104.901 44.795 105.181 44.725L105.016 39.865C104.426 39.805 103.991 39.73 103.711 39.64C103.711 39.39 103.746 39.03 103.816 38.56C104.406 38.4 105.416 38.32 106.846 38.32ZM106.846 35.485C106.936 35.935 106.981 36.28 106.981 36.52C106.981 36.75 106.961 37.01 106.921 37.3C106.521 37.39 106.181 37.435 105.901 37.435C105.631 37.435 105.301 37.42 104.911 37.39C104.821 36.94 104.776 36.6 104.776 36.37C104.776 36.13 104.796 35.865 104.836 35.575C105.236 35.485 105.571 35.44 105.841 35.44C106.121 35.44 106.456 35.455 106.846 35.485ZM112.3 39.4C111.94 39.4 111.53 39.49 111.07 39.67C110.94 39.87 110.815 40.225 110.695 40.735C110.585 41.235 110.53 41.74 110.53 42.25C110.53 43.19 110.67 43.86 110.95 44.26C111.23 44.65 111.68 44.845 112.3 44.845C112.93 44.845 113.385 44.65 113.665 44.26C113.945 43.86 114.085 43.18 114.085 42.22C114.085 41.25 113.94 40.54 113.65 40.09C113.37 39.63 112.92 39.4 112.3 39.4ZM112.3 38.2C113.47 38.2 114.41 38.56 115.12 39.28C115.84 39.99 116.2 40.985 116.2 42.265C116.2 43.535 115.845 44.505 115.135 45.175C114.425 45.845 113.48 46.18 112.3 46.18C111.12 46.18 110.175 45.845 109.465 45.175C108.765 44.505 108.415 43.535 108.415 42.265C108.415 40.985 108.77 39.99 109.48 39.28C110.19 38.56 111.13 38.2 112.3 38.2ZM121.406 38.2C122.406 38.2 123.131 38.445 123.581 38.935C124.031 39.425 124.256 40.11 124.256 40.99C124.256 41.87 124.206 43.06 124.106 44.56L125.291 44.695C125.291 45.105 125.176 45.54 124.946 46H121.211L121.076 45.175C121.546 44.985 121.981 44.835 122.381 44.725C122.351 43.575 122.321 42.61 122.291 41.83C122.261 41.04 122.186 40.505 122.066 40.225C121.946 39.945 121.681 39.805 121.271 39.805C120.651 39.805 120.096 39.915 119.606 40.135C119.596 40.565 119.566 41.27 119.516 42.25C119.476 43.22 119.451 43.99 119.441 44.56L120.611 44.695C120.611 45.105 120.496 45.54 120.266 46H116.531L116.396 45.175C116.896 44.985 117.346 44.835 117.746 44.725C117.736 44.125 117.701 43.295 117.641 42.235C117.591 41.175 117.561 40.39 117.551 39.88C117.181 39.84 116.786 39.765 116.366 39.655L116.441 38.575C117.141 38.385 117.931 38.29 118.811 38.29C118.921 38.36 119.071 38.575 119.261 38.935C119.601 38.765 120.016 38.6 120.506 38.44C120.996 38.28 121.296 38.2 121.406 38.2Z" fill="#535E65"/>
<path d="M280.306 34.7862C280.11 34.9694 280 35.218 280 35.4771C280 35.7363 280.11 35.9848 280.306 36.1681L285.478 41.0059L280.306 45.8437C280.116 46.028 280.01 46.2749 280.013 46.5312C280.015 46.7874 280.125 47.0325 280.319 47.2137C280.512 47.395 280.774 47.4977 281.048 47.5C281.322 47.5022 281.586 47.4037 281.783 47.2257L287.694 41.6969C287.89 41.5136 288 41.2651 288 41.0059C288 40.7467 287.89 40.4982 287.694 40.3149L281.783 34.7862C281.587 34.6029 281.322 34.5 281.045 34.5C280.768 34.5 280.502 34.6029 280.306 34.7862Z" fill="#535E65"/>
<rect x="0.5" y="0.5" width="318" height="143" rx="4.5" stroke="#9747FF" stroke-dasharray="10 5"/>
</svg>
