<svg width="319" height="144" viewBox="0 0 319 144" fill="none" xmlns="http://www.w3.org/2000/svg">
<rect x="20" y="20" width="279" height="42" rx="5" fill="white"/>
<path d="M38.155 38.89L37.69 38.875L37.255 37.075C36.675 36.975 36.24 36.925 35.95 36.925C35.38 36.925 34.74 37.04 34.03 37.27C33.82 37.66 33.655 38.16 33.535 38.77C33.415 39.38 33.355 39.955 33.355 40.495C33.355 43.255 34.15 44.635 35.74 44.635C36.42 44.635 36.96 44.535 37.36 44.335L37.675 42.505C38.305 42.505 38.785 42.54 39.115 42.61C39.275 43.7 39.355 44.585 39.355 45.265C39.115 45.445 38.63 45.645 37.9 45.865C37.18 46.085 36.47 46.195 35.77 46.195C32.79 46.195 31.3 44.355 31.3 40.675C31.3 38.925 31.66 37.595 32.38 36.685C33.11 35.775 34.27 35.32 35.86 35.32C36.65 35.32 37.35 35.435 37.96 35.665C38.5 35.865 38.96 36.085 39.34 36.325C39.34 37.005 39.265 37.825 39.115 38.785C38.835 38.855 38.515 38.89 38.155 38.89ZM43.1473 46.18C42.2973 46.18 41.6373 46.005 41.1673 45.655C40.7073 45.305 40.4773 44.715 40.4773 43.885C40.4773 43.095 40.7523 42.45 41.3023 41.95C41.6223 41.66 42.0673 41.49 42.6373 41.44C43.2073 41.39 43.9923 41.365 44.9923 41.365V41.125C44.9923 40.515 44.8923 40.07 44.6923 39.79C44.5023 39.5 44.1623 39.355 43.6723 39.355C43.4223 39.355 43.1973 39.405 42.9973 39.505L42.6373 40.81L41.5273 40.78C41.2773 40.4 41.1423 39.795 41.1223 38.965C41.3223 38.865 41.7923 38.715 42.5323 38.515C43.2723 38.305 43.7473 38.2 43.9573 38.2C45.0373 38.2 45.8223 38.425 46.3123 38.875C46.8023 39.315 47.0473 40.02 47.0473 40.99C47.0473 41.95 47.0023 43.22 46.9123 44.8C47.4823 44.85 47.9223 44.935 48.2323 45.055C48.2423 45.175 48.2473 45.32 48.2473 45.49L48.2323 45.82C47.5123 46.06 46.7873 46.18 46.0573 46.18C45.8673 46.18 45.7273 46.175 45.6373 46.165C45.4873 45.865 45.3973 45.505 45.3673 45.085H45.2923C45.1023 45.265 44.7673 45.495 44.2873 45.775C43.8173 46.045 43.4373 46.18 43.1473 46.18ZM42.3973 43.975C42.3973 44.305 42.4973 44.55 42.6973 44.71C42.9073 44.86 43.1423 44.935 43.4023 44.935C43.6623 44.935 43.9723 44.82 44.3323 44.59C44.6923 44.35 44.9823 44.135 45.2023 43.945L45.1273 42.565C44.3373 42.605 43.7423 42.68 43.3423 42.79C42.7123 42.92 42.3973 43.315 42.3973 43.975ZM52.8382 39.82C52.8182 39.77 52.7182 39.745 52.5382 39.745C52.3582 39.745 52.0482 39.88 51.6082 40.15C51.5682 42.11 51.5432 43.58 51.5332 44.56L52.7032 44.71C52.7032 45.14 52.5882 45.57 52.3582 46H48.6232L48.4882 45.175C49.1082 44.945 49.5582 44.795 49.8382 44.725L49.6732 39.865C49.1532 39.825 48.7182 39.75 48.3682 39.64L48.4732 38.56C48.7432 38.44 49.7182 38.36 51.3982 38.32C51.4882 38.41 51.5332 38.585 51.5332 38.845C52.4132 38.415 52.9682 38.2 53.1982 38.2C53.4382 38.2 53.7282 38.26 54.0682 38.38C54.4182 38.49 54.6832 38.61 54.8632 38.74V38.995C54.8632 39.815 54.7632 40.575 54.5632 41.275C54.3932 41.345 54.1682 41.38 53.8882 41.38C53.6082 41.38 53.3482 41.365 53.1082 41.335C53.0782 41.205 52.9882 40.7 52.8382 39.82ZM64.568 38.845L64.583 39.31C64.583 40.09 64.523 40.6 64.403 40.84C64.073 40.96 63.613 41.02 63.023 41.02L62.543 39.505C62.413 39.455 62.233 39.43 62.003 39.43C61.773 39.43 61.583 39.5 61.433 39.64C61.293 39.78 61.223 39.945 61.223 40.135C61.223 40.325 61.298 40.5 61.448 40.66C61.598 40.81 61.753 40.93 61.913 41.02C62.073 41.11 62.303 41.23 62.603 41.38C62.913 41.52 63.143 41.63 63.293 41.71C63.453 41.79 63.653 41.91 63.893 42.07C64.143 42.23 64.333 42.38 64.463 42.52C64.783 42.9 64.943 43.315 64.943 43.765C64.943 44.535 64.648 45.13 64.058 45.55C63.478 45.97 62.763 46.18 61.913 46.18C61.463 46.18 60.968 46.1 60.428 45.94C59.898 45.78 59.448 45.565 59.078 45.295C59.078 44.575 59.148 43.905 59.288 43.285C59.688 43.235 60.013 43.21 60.263 43.21C60.513 43.21 60.683 43.215 60.773 43.225L60.953 44.68C61.203 44.77 61.503 44.815 61.853 44.815C62.203 44.815 62.478 44.745 62.678 44.605C62.888 44.465 62.993 44.27 62.993 44.02C62.993 43.76 62.878 43.545 62.648 43.375C62.418 43.205 62.103 43.03 61.703 42.85C61.303 42.66 60.993 42.505 60.773 42.385C60.553 42.255 60.318 42.09 60.068 41.89C59.558 41.5 59.303 41.02 59.303 40.45C59.303 39.74 59.548 39.19 60.038 38.8C60.538 38.4 61.208 38.2 62.048 38.2C62.888 38.2 63.728 38.415 64.568 38.845ZM69.8202 44.71C70.1602 44.71 70.8502 44.475 71.8902 44.005C72.1102 44.325 72.2752 44.695 72.3852 45.115C71.8352 45.455 71.2952 45.72 70.7652 45.91C70.2452 46.09 69.8752 46.18 69.6552 46.18C68.4452 46.18 67.5252 45.845 66.8952 45.175C66.2752 44.505 65.9652 43.555 65.9652 42.325C65.9652 41.085 66.2752 40.09 66.8952 39.34C67.5152 38.58 68.4352 38.2 69.6552 38.2C70.6252 38.2 71.3652 38.515 71.8752 39.145C72.3852 39.775 72.6402 40.595 72.6402 41.605C72.6402 41.815 72.5202 42.055 72.2802 42.325L67.9602 42.25C67.9802 43.05 68.1302 43.66 68.4102 44.08C68.6902 44.5 69.1602 44.71 69.8202 44.71ZM69.5202 39.445C69.1402 39.445 68.7852 39.52 68.4552 39.67C68.2252 40.15 68.0802 40.595 68.0202 41.005C68.8002 40.975 69.6852 40.955 70.6752 40.945C70.6252 39.945 70.2402 39.445 69.5202 39.445ZM77.931 39.82C77.911 39.77 77.811 39.745 77.631 39.745C77.451 39.745 77.141 39.88 76.701 40.15C76.661 42.11 76.636 43.58 76.626 44.56L77.796 44.71C77.796 45.14 77.681 45.57 77.451 46H73.716L73.581 45.175C74.201 44.945 74.651 44.795 74.931 44.725L74.766 39.865C74.246 39.825 73.811 39.75 73.461 39.64L73.566 38.56C73.836 38.44 74.811 38.36 76.491 38.32C76.581 38.41 76.626 38.585 76.626 38.845C77.506 38.415 78.061 38.2 78.291 38.2C78.531 38.2 78.821 38.26 79.161 38.38C79.511 38.49 79.776 38.61 79.956 38.74V38.995C79.956 39.815 79.856 40.575 79.656 41.275C79.486 41.345 79.261 41.38 78.981 41.38C78.701 41.38 78.441 41.365 78.201 41.335C78.171 41.205 78.081 40.7 77.931 39.82ZM84.3393 43.75L84.8943 41.515L85.6893 39.595C85.3493 39.535 84.9293 39.405 84.4293 39.205L84.5643 38.38H88.2993C88.5293 38.84 88.6443 39.275 88.6443 39.685C88.2543 39.745 87.8643 39.785 87.4743 39.805C87.2743 40.475 86.8793 41.51 86.2893 42.91C85.7093 44.31 85.3193 45.34 85.1193 46H83.1843L80.7993 39.82L79.6293 39.685C79.6293 39.275 79.7443 38.84 79.9743 38.38H83.7093L83.8443 39.205C83.4343 39.395 83.0893 39.525 82.8093 39.595L83.5293 41.5L84.0543 43.75H84.3393ZM92.212 38.32C92.402 38.32 92.522 38.325 92.572 38.335C92.572 38.825 92.487 39.28 92.317 39.7C92.277 41.86 92.252 43.48 92.242 44.56L93.412 44.695C93.412 45.105 93.297 45.54 93.067 46H89.332L89.197 45.175C89.817 44.945 90.267 44.795 90.547 44.725L90.382 39.865C89.792 39.805 89.357 39.73 89.077 39.64C89.077 39.39 89.112 39.03 89.182 38.56C89.772 38.4 90.782 38.32 92.212 38.32ZM92.212 35.485C92.302 35.935 92.347 36.28 92.347 36.52C92.347 36.75 92.327 37.01 92.287 37.3C91.887 37.39 91.547 37.435 91.267 37.435C90.997 37.435 90.667 37.42 90.277 37.39C90.187 36.94 90.142 36.6 90.142 36.37C90.142 36.13 90.162 35.865 90.202 35.575C90.602 35.485 90.937 35.44 91.207 35.44C91.487 35.44 91.822 35.455 92.212 35.485ZM97.8462 39.445L97.6062 39.43C97.0462 39.43 96.5962 39.625 96.2562 40.015C95.9262 40.395 95.7612 41.04 95.7612 41.95C95.7612 42.85 95.8862 43.535 96.1362 44.005C96.3962 44.475 96.8912 44.71 97.6212 44.71C97.9612 44.71 98.6812 44.48 99.7812 44.02C100.031 44.37 100.166 44.735 100.186 45.115C99.6362 45.455 99.0962 45.72 98.5662 45.91C98.0462 46.1 97.6762 46.195 97.4562 46.195C96.2262 46.195 95.3062 45.86 94.6962 45.19C94.0862 44.51 93.7812 43.56 93.7812 42.34C93.7812 39.58 95.0262 38.2 97.5162 38.2C97.9462 38.2 98.3862 38.255 98.8362 38.365C99.2962 38.465 99.6562 38.595 99.9162 38.755C99.8862 39.755 99.7762 40.48 99.5862 40.93C99.2562 41.01 98.7912 41.05 98.1912 41.05L97.8462 39.445ZM104.771 44.71C105.111 44.71 105.801 44.475 106.841 44.005C107.061 44.325 107.226 44.695 107.336 45.115C106.786 45.455 106.246 45.72 105.716 45.91C105.196 46.09 104.826 46.18 104.606 46.18C103.396 46.18 102.476 45.845 101.846 45.175C101.226 44.505 100.916 43.555 100.916 42.325C100.916 41.085 101.226 40.09 101.846 39.34C102.466 38.58 103.386 38.2 104.606 38.2C105.576 38.2 106.316 38.515 106.826 39.145C107.336 39.775 107.591 40.595 107.591 41.605C107.591 41.815 107.471 42.055 107.231 42.325L102.911 42.25C102.931 43.05 103.081 43.66 103.361 44.08C103.641 44.5 104.111 44.71 104.771 44.71ZM104.471 39.445C104.091 39.445 103.736 39.52 103.406 39.67C103.176 40.15 103.031 40.595 102.971 41.005C103.751 40.975 104.636 40.955 105.626 40.945C105.576 39.945 105.191 39.445 104.471 39.445ZM117.139 46.18C116.559 46.18 115.949 45.99 115.309 45.61C115.289 46.67 115.279 47.47 115.279 48.01L116.449 48.145C116.449 48.585 116.334 49.02 116.104 49.45H112.369L112.234 48.625C112.874 48.385 113.324 48.235 113.584 48.175L113.299 39.85C112.829 39.81 112.434 39.735 112.114 39.625C112.114 39.255 112.149 38.895 112.219 38.545C112.639 38.455 113.569 38.375 115.009 38.305C115.089 38.435 115.179 38.655 115.279 38.965C116.319 38.455 117.004 38.2 117.334 38.2C118.324 38.2 119.059 38.55 119.539 39.25C120.019 39.94 120.259 40.87 120.259 42.04C120.259 43.21 119.989 44.195 119.449 44.995C118.919 45.785 118.149 46.18 117.139 46.18ZM115.399 40.285L115.339 44.08C115.569 44.29 115.839 44.475 116.149 44.635C116.469 44.785 116.739 44.86 116.959 44.86C117.839 44.86 118.279 44.015 118.279 42.325C118.279 41.695 118.214 41.19 118.084 40.81C117.964 40.43 117.819 40.165 117.649 40.015C117.489 39.855 117.299 39.775 117.079 39.775C116.639 39.775 116.079 39.945 115.399 40.285ZM123.289 46.18C122.439 46.18 121.779 46.005 121.309 45.655C120.849 45.305 120.619 44.715 120.619 43.885C120.619 43.095 120.894 42.45 121.444 41.95C121.764 41.66 122.209 41.49 122.779 41.44C123.349 41.39 124.134 41.365 125.134 41.365V41.125C125.134 40.515 125.034 40.07 124.834 39.79C124.644 39.5 124.304 39.355 123.814 39.355C123.564 39.355 123.339 39.405 123.139 39.505L122.779 40.81L121.669 40.78C121.419 40.4 121.284 39.795 121.264 38.965C121.464 38.865 121.934 38.715 122.674 38.515C123.414 38.305 123.889 38.2 124.099 38.2C125.179 38.2 125.964 38.425 126.454 38.875C126.944 39.315 127.189 40.02 127.189 40.99C127.189 41.95 127.144 43.22 127.054 44.8C127.624 44.85 128.064 44.935 128.374 45.055C128.384 45.175 128.389 45.32 128.389 45.49L128.374 45.82C127.654 46.06 126.929 46.18 126.199 46.18C126.009 46.18 125.869 46.175 125.779 46.165C125.629 45.865 125.539 45.505 125.509 45.085H125.434C125.244 45.265 124.909 45.495 124.429 45.775C123.959 46.045 123.579 46.18 123.289 46.18ZM122.539 43.975C122.539 44.305 122.639 44.55 122.839 44.71C123.049 44.86 123.284 44.935 123.544 44.935C123.804 44.935 124.114 44.82 124.474 44.59C124.834 44.35 125.124 44.135 125.344 43.945L125.269 42.565C124.479 42.605 123.884 42.68 123.484 42.79C122.854 42.92 122.539 43.315 122.539 43.975ZM132.98 39.82C132.96 39.77 132.86 39.745 132.68 39.745C132.5 39.745 132.19 39.88 131.75 40.15C131.71 42.11 131.685 43.58 131.675 44.56L132.845 44.71C132.845 45.14 132.73 45.57 132.5 46H128.765L128.63 45.175C129.25 44.945 129.7 44.795 129.98 44.725L129.815 39.865C129.295 39.825 128.86 39.75 128.51 39.64L128.615 38.56C128.885 38.44 129.86 38.36 131.54 38.32C131.63 38.41 131.675 38.585 131.675 38.845C132.555 38.415 133.11 38.2 133.34 38.2C133.58 38.2 133.87 38.26 134.21 38.38C134.56 38.49 134.825 38.61 135.005 38.74V38.995C135.005 39.815 134.905 40.575 134.705 41.275C134.535 41.345 134.31 41.38 134.03 41.38C133.75 41.38 133.49 41.365 133.25 41.335C133.22 41.205 133.13 40.7 132.98 39.82ZM137.108 46.18L136.778 46.165C136.718 46.055 136.638 45.85 136.538 45.55C136.438 45.25 136.383 45.025 136.373 44.875C136.323 43.885 136.268 42.17 136.208 39.73H135.158L135.203 38.875C135.433 38.715 135.708 38.57 136.028 38.44L137.243 36.52C137.633 36.56 137.938 36.665 138.158 36.835L138.143 38.26C138.773 38.28 139.358 38.34 139.898 38.44C139.898 38.84 139.773 39.27 139.523 39.73H138.128C138.088 41.83 138.063 43.405 138.053 44.455C138.453 44.495 138.998 44.61 139.688 44.8L139.673 45.58C139.503 45.69 139.123 45.82 138.533 45.97C137.953 46.11 137.478 46.18 137.108 46.18ZM146.028 38.845L146.043 39.31C146.043 40.09 145.983 40.6 145.863 40.84C145.533 40.96 145.073 41.02 144.483 41.02L144.003 39.505C143.873 39.455 143.693 39.43 143.463 39.43C143.233 39.43 143.043 39.5 142.893 39.64C142.753 39.78 142.683 39.945 142.683 40.135C142.683 40.325 142.758 40.5 142.908 40.66C143.058 40.81 143.213 40.93 143.373 41.02C143.533 41.11 143.763 41.23 144.063 41.38C144.373 41.52 144.603 41.63 144.753 41.71C144.913 41.79 145.113 41.91 145.353 42.07C145.603 42.23 145.793 42.38 145.923 42.52C146.243 42.9 146.403 43.315 146.403 43.765C146.403 44.535 146.108 45.13 145.518 45.55C144.938 45.97 144.223 46.18 143.373 46.18C142.923 46.18 142.428 46.1 141.888 45.94C141.358 45.78 140.908 45.565 140.538 45.295C140.538 44.575 140.608 43.905 140.748 43.285C141.148 43.235 141.473 43.21 141.723 43.21C141.973 43.21 142.143 43.215 142.233 43.225L142.413 44.68C142.663 44.77 142.963 44.815 143.313 44.815C143.663 44.815 143.938 44.745 144.138 44.605C144.348 44.465 144.453 44.27 144.453 44.02C144.453 43.76 144.338 43.545 144.108 43.375C143.878 43.205 143.563 43.03 143.163 42.85C142.763 42.66 142.453 42.505 142.233 42.385C142.013 42.255 141.778 42.09 141.528 41.89C141.018 41.5 140.763 41.02 140.763 40.45C140.763 39.74 141.008 39.19 141.498 38.8C141.998 38.4 142.668 38.2 143.508 38.2C144.348 38.2 145.188 38.415 146.028 38.845Z" fill="#535E65"/>
<path d="M280.306 34.7862C280.11 34.9694 280 35.218 280 35.4771C280 35.7363 280.11 35.9848 280.306 36.1681L285.478 41.0059L280.306 45.8437C280.116 46.028 280.01 46.2749 280.013 46.5312C280.015 46.7874 280.125 47.0325 280.319 47.2137C280.512 47.395 280.774 47.4977 281.048 47.5C281.322 47.5022 281.586 47.4037 281.783 47.2257L287.694 41.6969C287.89 41.5136 288 41.2651 288 41.0059C288 40.7467 287.89 40.4982 287.694 40.3149L281.783 34.7862C281.587 34.6029 281.322 34.5 281.045 34.5C280.768 34.5 280.502 34.6029 280.306 34.7862Z" fill="#535E65"/>
<rect x="0.5" y="0.5" width="318" height="143" rx="4.5" stroke="#9747FF" stroke-dasharray="10 5"/>
</svg>
