<svg width="499" height="776" viewBox="0 0 499 776" fill="none" xmlns="http://www.w3.org/2000/svg">
<rect x="19.5" y="19.5" width="460" height="41" rx="5.5" fill="white"/>
<path d="M36.27 34.535L36.195 38.15H38.565L38.685 37.07C38.965 37.07 39.265 37.155 39.585 37.325V40.175L39.06 40.22C38.91 39.79 38.81 39.43 38.76 39.14H36.195C36.175 40.01 36.155 41.295 36.135 42.995H39.57L39.93 41.585L40.8 41.645C40.94 42.215 41.01 42.72 41.01 43.16C41.01 43.59 41 43.87 40.98 44H33.69L33.645 43.475C34.085 43.315 34.51 43.2 34.92 43.13C34.86 39.23 34.81 36.33 34.77 34.43C34.55 34.41 34.11 34.29 33.45 34.07L33.525 33.5H40.755C40.775 33.63 40.785 33.83 40.785 34.1C40.785 34.65 40.715 35.245 40.575 35.885C40.355 35.935 40.065 35.96 39.705 35.96L39.345 34.535H36.27ZM47.3659 43.145L46.0159 41.045L43.8709 44H42.1609C42.0909 43.82 42.0559 43.62 42.0559 43.4C42.4459 43.2 42.8659 43.06 43.3159 42.98L45.3859 40.055L43.6609 37.4L42.1009 37.28C42.1009 37 42.1859 36.7 42.3559 36.38H45.8059L45.8509 36.905C45.5809 37.095 45.3259 37.22 45.0859 37.28L46.1809 39.05L48.0409 36.38H49.8859C49.9459 36.46 49.9759 36.555 49.9759 36.665L49.9309 36.98C49.5509 37.12 49.1409 37.21 48.7009 37.25L46.7209 40.025L48.8059 42.98L50.0059 43.1C50.0059 43.38 49.9209 43.68 49.7509 44H46.3009L46.2559 43.475C46.5859 43.335 46.9559 43.225 47.3659 43.145ZM56.7087 39.095L56.6337 42.965C57.0637 42.995 57.4937 43.065 57.9237 43.175L57.8937 43.7C57.7337 43.78 57.4437 43.87 57.0237 43.97C56.6137 44.06 56.2087 44.105 55.8087 44.105C55.6287 43.745 55.5287 43.4 55.5087 43.07C54.3687 43.82 53.5687 44.195 53.1087 44.195C52.3987 44.195 51.8287 44.005 51.3987 43.625C50.9687 43.245 50.7537 42.715 50.7537 42.035C50.7537 40.465 51.7137 39.655 53.6337 39.605C54.7537 39.575 55.3187 39.56 55.3287 39.56L55.3137 39.05C55.2937 38.36 55.1637 37.865 54.9237 37.565C54.6837 37.255 54.2537 37.1 53.6337 37.1C53.3737 37.1 53.0937 37.16 52.7937 37.28L52.4337 38.78C52.3837 38.79 52.2987 38.795 52.1787 38.795L51.5637 38.75C51.4037 38.32 51.3187 37.725 51.3087 36.965C51.4987 36.865 51.9337 36.715 52.6137 36.515C53.2937 36.305 53.7287 36.2 53.9187 36.2C54.9387 36.2 55.6587 36.425 56.0787 36.875C56.4987 37.325 56.7087 38.065 56.7087 39.095ZM53.4387 43.175C53.7287 43.175 54.3987 42.85 55.4487 42.2L55.3737 40.325C54.6937 40.385 54.1237 40.44 53.6637 40.49C53.2037 40.54 52.8337 40.675 52.5537 40.895C52.2737 41.105 52.1337 41.44 52.1337 41.9C52.1337 42.75 52.5687 43.175 53.4387 43.175ZM66.0396 37.88C66.0796 38.2 66.0996 38.57 66.0996 38.99C66.0996 39.41 66.0596 40.74 65.9796 42.98L67.2396 43.1C67.2396 43.38 67.1546 43.68 66.9846 44H63.5346L63.4896 43.475C63.9496 43.315 64.3996 43.195 64.8396 43.115C64.7796 40.455 64.7246 38.975 64.6746 38.675C64.6346 38.375 64.5646 38.125 64.4646 37.925C64.3646 37.715 64.2096 37.57 63.9996 37.49C63.7896 37.41 63.4696 37.37 63.0396 37.37C62.6196 37.37 62.0646 37.53 61.3746 37.85C61.3146 40.13 61.2746 41.84 61.2546 42.98L62.5146 43.1C62.5146 43.38 62.4296 43.68 62.2596 44H58.8096L58.7646 43.475C59.2246 43.315 59.6746 43.195 60.1146 43.115C60.1046 42.395 60.0796 41.38 60.0396 40.07C59.9996 38.75 59.9746 37.885 59.9646 37.475C59.4146 37.445 58.9746 37.385 58.6446 37.295L58.7046 36.515C59.2446 36.365 60.0296 36.29 61.0596 36.29C61.1996 36.54 61.2896 36.8 61.3296 37.07C61.7696 36.84 62.2046 36.64 62.6346 36.47C63.0646 36.29 63.3346 36.2 63.4446 36.2C64.5546 36.2 65.3296 36.54 65.7696 37.22C66.2296 36.97 66.7046 36.74 67.1946 36.53C67.6946 36.31 67.9946 36.2 68.0946 36.2C69.0046 36.2 69.6846 36.425 70.1346 36.875C70.5946 37.315 70.8246 38.04 70.8246 39.05C70.8246 39.35 70.7846 40.66 70.7046 42.98L71.9646 43.1C71.9646 43.38 71.8796 43.68 71.7096 44H68.2596L68.2146 43.475C68.6746 43.315 69.1246 43.195 69.5646 43.115C69.5246 41.535 69.4896 40.34 69.4596 39.53C69.4296 38.72 69.3146 38.16 69.1146 37.85C68.9146 37.53 68.5146 37.37 67.9146 37.37C67.3146 37.37 66.6896 37.54 66.0396 37.88ZM75.0063 43.235L74.9313 46.445L76.2363 46.55C76.2363 46.83 76.1513 47.13 75.9813 47.45H72.5013L72.4563 46.925C72.9163 46.775 73.3663 46.66 73.8063 46.58C73.7463 42.5 73.6963 39.465 73.6563 37.475C73.2063 37.465 72.7663 37.405 72.3363 37.295L72.3963 36.515C72.9763 36.365 73.7863 36.29 74.8263 36.29C74.9163 36.45 75.0013 36.745 75.0813 37.175C76.3613 36.525 77.1713 36.2 77.5113 36.2C78.4413 36.2 79.1313 36.565 79.5813 37.295C80.0313 38.015 80.2563 38.955 80.2563 40.115C80.2563 41.265 80.0013 42.23 79.4913 43.01C78.9913 43.79 78.2613 44.18 77.3013 44.18C76.9413 44.18 76.5463 44.09 76.1163 43.91C75.6963 43.73 75.3263 43.505 75.0063 43.235ZM77.2413 37.325C76.6213 37.325 75.9013 37.545 75.0813 37.985C75.0613 39.845 75.0413 41.24 75.0213 42.17C75.2713 42.42 75.6013 42.65 76.0113 42.86C76.4313 43.06 76.7963 43.16 77.1063 43.16C78.2863 43.16 78.8763 42.19 78.8763 40.25C78.8763 39.51 78.7913 38.93 78.6213 38.51C78.4513 38.08 78.2563 37.775 78.0363 37.595C77.8163 37.415 77.5513 37.325 77.2413 37.325ZM83.3629 32.855C83.6729 32.855 83.8929 32.865 84.0229 32.885C84.0229 33.235 83.9579 33.635 83.8279 34.085C83.7379 39.985 83.6929 42.95 83.6929 42.98L84.9529 43.1C84.9529 43.38 84.8679 43.68 84.6979 44H81.2479L81.2029 43.475C81.6629 43.315 82.1129 43.195 82.5529 43.115L82.4029 34.04C81.8529 34.01 81.4129 33.95 81.0829 33.86L81.1429 33.08C81.6529 32.93 82.3929 32.855 83.3629 32.855ZM89.5717 43.16C90.0117 43.16 90.7017 42.95 91.6417 42.53C91.8317 42.79 91.9317 43.02 91.9417 43.22C91.4317 43.52 90.9317 43.755 90.4417 43.925C89.9517 44.095 89.6017 44.18 89.3917 44.18C88.2317 44.18 87.3467 43.835 86.7367 43.145C86.1267 42.445 85.8217 41.47 85.8217 40.22C85.8217 38.97 86.1167 37.99 86.7067 37.28C87.3067 36.56 88.2017 36.2 89.3917 36.2C90.3117 36.2 91.0117 36.53 91.4917 37.19C91.9817 37.85 92.2267 38.735 92.2267 39.845C92.1467 39.985 92.0817 40.08 92.0317 40.13L87.2017 40.055C87.2117 41.065 87.3867 41.835 87.7267 42.365C88.0767 42.895 88.6917 43.16 89.5717 43.16ZM90.8617 39.2C90.8617 38.54 90.7417 38.03 90.5017 37.67C90.2617 37.3 89.8617 37.115 89.3017 37.115C88.7417 37.115 88.2417 37.22 87.8017 37.43C87.5017 38.03 87.3117 38.645 87.2317 39.275C88.0217 39.265 89.2317 39.24 90.8617 39.2ZM96.6775 36.365C96.6775 36.365 96.6175 38.57 96.4975 42.98L97.8475 43.1C97.8475 43.38 97.7625 43.68 97.5925 44H93.6475L93.6175 43.49C93.9575 43.39 94.5525 43.265 95.4025 43.115C95.3825 42.455 95.3575 41.47 95.3275 40.16C95.2975 38.84 95.2725 37.85 95.2525 37.19C94.4425 37.56 93.8775 37.76 93.5575 37.79C93.3875 37.51 93.2925 37.2 93.2725 36.86L96.1975 35.87C96.4975 36.09 96.6575 36.255 96.6775 36.365ZM103.448 41.69C103.518 41.68 103.603 41.675 103.703 41.675C103.883 41.675 104.058 41.7 104.228 41.75C104.348 42.35 104.408 43.1 104.408 44H99.1577C99.0377 43.79 98.9777 43.605 98.9777 43.445C98.9777 43.275 98.9827 43.17 98.9927 43.13C101.063 41.16 102.178 40.09 102.338 39.92C102.498 39.74 102.658 39.475 102.818 39.125C102.988 38.775 103.073 38.425 103.073 38.075C103.073 37.715 102.933 37.385 102.653 37.085C102.383 36.785 101.968 36.635 101.408 36.635C101.098 36.635 100.833 36.665 100.613 36.725L100.253 38.57C100.153 38.58 100.043 38.585 99.9227 38.585C99.8027 38.585 99.6227 38.565 99.3827 38.525C99.2227 38.095 99.1377 37.5 99.1277 36.74C99.3777 36.5 99.7327 36.275 100.193 36.065C100.663 35.845 101.108 35.735 101.528 35.735C102.408 35.735 103.113 35.96 103.643 36.41C104.183 36.85 104.453 37.335 104.453 37.865C104.453 38.545 104.308 39.135 104.018 39.635C103.738 40.135 103.268 40.665 102.608 41.225L100.598 42.935L100.643 43.115L103.268 43.1C103.318 42.42 103.378 41.95 103.448 41.69ZM109.765 38.195C109.765 37.125 109.155 36.59 107.935 36.59C107.735 36.59 107.505 36.625 107.245 36.695L106.885 38.555C106.495 38.555 106.205 38.54 106.015 38.51C105.845 38.01 105.76 37.415 105.76 36.725C105.97 36.485 106.315 36.26 106.795 36.05C107.285 35.83 107.71 35.72 108.07 35.72C108.96 35.72 109.69 35.945 110.26 36.395C110.84 36.835 111.13 37.365 111.13 37.985C111.13 39.065 110.49 39.88 109.21 40.43C109.82 40.43 110.36 40.62 110.83 41C111.31 41.38 111.55 41.925 111.55 42.635C111.55 43.345 111.34 43.965 110.92 44.495C110.5 45.035 110.01 45.425 109.45 45.665C108.9 45.915 108.29 46.04 107.62 46.04C106.96 46.04 106.265 45.915 105.535 45.665C105.555 45.285 105.615 45.02 105.715 44.87C105.745 44.87 105.84 44.89 106 44.93C106.16 44.97 106.3 45 106.42 45.02C106.76 45.08 107.055 45.11 107.305 45.11C107.555 45.11 107.73 45.105 107.83 45.095C107.94 45.085 108.105 45.06 108.325 45.02C108.555 44.98 108.765 44.91 108.955 44.81C109.155 44.71 109.35 44.59 109.54 44.45C109.96 44.12 110.17 43.645 110.17 43.025C110.17 42.395 109.975 41.925 109.585 41.615C109.205 41.305 108.685 41.15 108.025 41.15C107.865 41.15 107.57 41.17 107.14 41.21C107.1 41.16 107.08 41.045 107.08 40.865C107.08 40.675 107.095 40.495 107.125 40.325L107.785 40.235C108.325 40.165 108.79 39.945 109.18 39.575C109.57 39.195 109.765 38.735 109.765 38.195ZM121.489 39.215L121.429 42.665C121.799 42.685 122.139 42.755 122.449 42.875C122.629 42.805 122.819 42.68 123.019 42.5C123.229 42.32 123.409 42.12 123.559 41.9C123.709 41.67 123.844 41.35 123.964 40.94C124.084 40.52 124.144 40.055 124.144 39.545C124.144 38.125 123.704 36.995 122.824 36.155C121.954 35.315 120.754 34.895 119.224 34.895C115.814 34.895 114.109 36.615 114.109 40.055C114.109 41.815 114.579 43.17 115.519 44.12C116.459 45.08 117.689 45.56 119.209 45.56C120.539 45.56 121.684 45.28 122.644 44.72C122.824 45 122.914 45.24 122.914 45.44C121.964 46.08 120.734 46.4 119.224 46.4C117.364 46.4 115.904 45.84 114.844 44.72C113.784 43.61 113.254 42.065 113.254 40.085C113.254 36.045 115.244 34.025 119.224 34.025C121.054 34.025 122.479 34.52 123.499 35.51C124.519 36.5 125.029 37.835 125.029 39.515C125.029 42.325 123.584 43.73 120.694 43.73C120.544 43.42 120.459 43.095 120.439 42.755C120.249 42.915 119.924 43.12 119.464 43.37C119.004 43.62 118.624 43.745 118.324 43.745C117.734 43.745 117.249 43.595 116.869 43.295C116.489 42.985 116.299 42.5 116.299 41.84C116.299 40.67 116.784 39.99 117.754 39.8C118.294 39.7 119.139 39.65 120.289 39.65L120.274 39.215C120.254 38.595 120.134 38.155 119.914 37.895C119.694 37.625 119.319 37.49 118.789 37.49C118.579 37.49 118.329 37.545 118.039 37.655L117.724 38.99C117.394 38.99 117.139 38.975 116.959 38.945C116.819 38.565 116.744 38.04 116.734 37.37C116.904 37.28 117.289 37.145 117.889 36.965C118.489 36.785 118.874 36.695 119.044 36.695C119.904 36.695 120.524 36.89 120.904 37.28C121.294 37.67 121.489 38.315 121.489 39.215ZM118.609 42.83C118.779 42.83 118.994 42.755 119.254 42.605C119.654 42.365 120.034 42.115 120.394 41.855L120.319 40.325C119.119 40.465 118.459 40.55 118.339 40.58C117.759 40.72 117.469 41.1 117.469 41.72C117.469 42.46 117.849 42.83 118.609 42.83ZM130.43 43.085L131.765 43.055C133.145 43.055 133.835 43.625 133.835 44.765C133.835 45.295 133.605 45.785 133.145 46.235C132.695 46.695 132.155 47.04 131.525 47.27C130.895 47.5 130.305 47.615 129.755 47.615C129.215 47.615 128.71 47.535 128.24 47.375C127.77 47.225 127.37 46.975 127.04 46.625C126.71 46.275 126.545 45.87 126.545 45.41C126.545 45.3 126.72 45.01 127.07 44.54C127.43 44.08 127.665 43.81 127.775 43.73C127.685 43.67 127.51 43.5 127.25 43.22C126.99 42.93 126.845 42.73 126.815 42.62C127.065 42.16 127.46 41.71 128 41.27C127.2 40.79 126.8 40 126.8 38.9C126.8 38.02 127.08 37.35 127.64 36.89C128.2 36.43 128.9 36.2 129.74 36.2C130.58 36.2 131.23 36.335 131.69 36.605C132.49 36.445 133.275 36.365 134.045 36.365C134.235 36.365 134.33 36.48 134.33 36.71C134.33 37.11 134.255 37.385 134.105 37.535L132.38 37.25C132.74 37.71 132.92 38.26 132.92 38.9C132.92 39.9 132.625 40.62 132.035 41.06C131.445 41.49 130.72 41.705 129.86 41.705C129.59 41.705 129.27 41.67 128.9 41.6C128.75 41.91 128.56 42.245 128.33 42.605C128.51 42.925 129.21 43.085 130.43 43.085ZM132.335 45.845C132.435 45.565 132.485 45.275 132.485 44.975C132.485 44.685 132.37 44.45 132.14 44.27C131.91 44.09 131.615 44 131.255 44C129.825 44 128.95 43.985 128.63 43.955C128.36 44.385 128.17 44.745 128.06 45.035C127.96 45.335 127.91 45.505 127.91 45.545C127.91 45.935 128.095 46.225 128.465 46.415C128.835 46.605 129.26 46.7 129.74 46.7C130.23 46.7 130.72 46.62 131.21 46.46C131.71 46.3 132.085 46.095 132.335 45.845ZM131.57 38.96C131.57 37.72 131 37.1 129.86 37.1C128.72 37.1 128.15 37.7 128.15 38.9C128.15 39.51 128.3 39.98 128.6 40.31C128.9 40.64 129.335 40.805 129.905 40.805C131.015 40.805 131.57 40.19 131.57 38.96ZM142.417 37.88C142.457 38.2 142.477 38.57 142.477 38.99C142.477 39.41 142.437 40.74 142.357 42.98L143.617 43.1C143.617 43.38 143.532 43.68 143.362 44H139.912L139.867 43.475C140.327 43.315 140.777 43.195 141.217 43.115C141.157 40.455 141.102 38.975 141.052 38.675C141.012 38.375 140.942 38.125 140.842 37.925C140.742 37.715 140.587 37.57 140.377 37.49C140.167 37.41 139.847 37.37 139.417 37.37C138.997 37.37 138.442 37.53 137.752 37.85C137.692 40.13 137.652 41.84 137.632 42.98L138.892 43.1C138.892 43.38 138.807 43.68 138.637 44H135.187L135.142 43.475C135.602 43.315 136.052 43.195 136.492 43.115C136.482 42.395 136.457 41.38 136.417 40.07C136.377 38.75 136.352 37.885 136.342 37.475C135.792 37.445 135.352 37.385 135.022 37.295L135.082 36.515C135.622 36.365 136.407 36.29 137.437 36.29C137.577 36.54 137.667 36.8 137.707 37.07C138.147 36.84 138.582 36.64 139.012 36.47C139.442 36.29 139.712 36.2 139.822 36.2C140.932 36.2 141.707 36.54 142.147 37.22C142.607 36.97 143.082 36.74 143.572 36.53C144.072 36.31 144.372 36.2 144.472 36.2C145.382 36.2 146.062 36.425 146.512 36.875C146.972 37.315 147.202 38.04 147.202 39.05C147.202 39.35 147.162 40.66 147.082 42.98L148.342 43.1C148.342 43.38 148.257 43.68 148.087 44H144.637L144.592 43.475C145.052 43.315 145.502 43.195 145.942 43.115C145.902 41.535 145.867 40.34 145.837 39.53C145.807 38.72 145.692 38.16 145.492 37.85C145.292 37.53 144.892 37.37 144.292 37.37C143.692 37.37 143.067 37.54 142.417 37.88ZM155.058 39.095L154.983 42.965C155.413 42.995 155.843 43.065 156.273 43.175L156.243 43.7C156.083 43.78 155.793 43.87 155.373 43.97C154.963 44.06 154.558 44.105 154.158 44.105C153.978 43.745 153.878 43.4 153.858 43.07C152.718 43.82 151.918 44.195 151.458 44.195C150.748 44.195 150.178 44.005 149.748 43.625C149.318 43.245 149.103 42.715 149.103 42.035C149.103 40.465 150.063 39.655 151.983 39.605C153.103 39.575 153.668 39.56 153.678 39.56L153.663 39.05C153.643 38.36 153.513 37.865 153.273 37.565C153.033 37.255 152.603 37.1 151.983 37.1C151.723 37.1 151.443 37.16 151.143 37.28L150.783 38.78C150.733 38.79 150.648 38.795 150.528 38.795L149.913 38.75C149.753 38.32 149.668 37.725 149.658 36.965C149.848 36.865 150.283 36.715 150.963 36.515C151.643 36.305 152.078 36.2 152.268 36.2C153.288 36.2 154.008 36.425 154.428 36.875C154.848 37.325 155.058 38.065 155.058 39.095ZM151.788 43.175C152.078 43.175 152.748 42.85 153.798 42.2L153.723 40.325C153.043 40.385 152.473 40.44 152.013 40.49C151.553 40.54 151.183 40.675 150.903 40.895C150.623 41.105 150.483 41.44 150.483 41.9C150.483 42.75 150.918 43.175 151.788 43.175ZM159.814 34.955C159.554 35.015 159.299 35.045 159.049 35.045C158.809 35.045 158.569 35.03 158.329 35C158.269 34.72 158.239 34.44 158.239 34.16C158.239 33.87 158.249 33.655 158.269 33.515C158.489 33.465 158.719 33.44 158.959 33.44C159.209 33.44 159.474 33.45 159.754 33.47C159.814 33.73 159.844 33.985 159.844 34.235C159.844 34.475 159.834 34.715 159.814 34.955ZM157.084 36.53C157.934 36.38 158.594 36.305 159.064 36.305C159.534 36.305 159.834 36.315 159.964 36.335C159.964 36.575 159.934 36.84 159.874 37.13C159.814 37.42 159.779 37.56 159.769 37.55L159.634 42.98L160.894 43.1C160.894 43.38 160.809 43.68 160.639 44H157.189L157.144 43.475C157.604 43.315 158.054 43.195 158.494 43.115C158.434 40.615 158.384 38.74 158.344 37.49C157.764 37.49 157.324 37.43 157.024 37.31L157.084 36.53ZM163.753 32.855C164.063 32.855 164.283 32.865 164.413 32.885C164.413 33.235 164.348 33.635 164.218 34.085C164.128 39.985 164.083 42.95 164.083 42.98L165.343 43.1C165.343 43.38 165.258 43.68 165.088 44H161.638L161.593 43.475C162.053 43.315 162.503 43.195 162.943 43.115L162.793 34.04C162.243 34.01 161.803 33.95 161.473 33.86L161.533 33.08C162.043 32.93 162.783 32.855 163.753 32.855ZM167.952 43.955C167.692 44.015 167.437 44.045 167.187 44.045C166.947 44.045 166.707 44.03 166.467 44C166.407 43.72 166.377 43.44 166.377 43.16C166.377 42.87 166.387 42.655 166.407 42.515C166.627 42.465 166.857 42.44 167.097 42.44C167.347 42.44 167.612 42.45 167.892 42.47C167.952 42.73 167.982 42.985 167.982 43.235C167.982 43.475 167.972 43.715 167.952 43.955ZM172.842 44.18C171.642 44.18 170.747 43.845 170.157 43.175C169.567 42.495 169.272 41.53 169.272 40.28C169.272 37.56 170.482 36.2 172.902 36.2C173.292 36.2 173.697 36.26 174.117 36.38C174.537 36.49 174.867 36.615 175.107 36.755C175.077 37.685 174.982 38.345 174.822 38.735C174.642 38.785 174.497 38.81 174.387 38.81H174.132C174.082 38.81 174.022 38.805 173.952 38.795L173.577 37.145C173.247 37.115 173.057 37.1 173.007 37.1C172.287 37.1 171.712 37.32 171.282 37.76C170.862 38.2 170.652 38.94 170.652 39.98C170.652 41.02 170.812 41.81 171.132 42.35C171.462 42.89 172.092 43.16 173.022 43.16C173.462 43.16 174.152 42.95 175.092 42.53C175.282 42.79 175.382 43.02 175.392 43.22C174.882 43.52 174.382 43.755 173.892 43.925C173.402 44.095 173.052 44.18 172.842 44.18ZM179.813 43.28C180.653 43.28 181.218 43.02 181.508 42.5C181.808 41.97 181.958 41.22 181.958 40.25C181.958 38.71 181.618 37.745 180.938 37.355C180.658 37.195 180.263 37.115 179.753 37.115C179.253 37.115 178.778 37.22 178.328 37.43C177.928 38.2 177.728 39.095 177.728 40.115C177.728 41.095 177.858 41.85 178.118 42.38C178.418 42.98 178.983 43.28 179.813 43.28ZM176.348 40.25C176.348 38.98 176.638 37.99 177.218 37.28C177.798 36.56 178.693 36.2 179.903 36.2C181.113 36.2 181.988 36.53 182.528 37.19C183.068 37.84 183.338 38.805 183.338 40.085C183.338 41.365 183.048 42.37 182.468 43.1C181.898 43.83 181.028 44.195 179.858 44.195C178.688 44.195 177.808 43.855 177.218 43.175C176.638 42.495 176.348 41.52 176.348 40.25ZM191.694 37.88C191.734 38.2 191.754 38.57 191.754 38.99C191.754 39.41 191.714 40.74 191.634 42.98L192.894 43.1C192.894 43.38 192.809 43.68 192.639 44H189.189L189.144 43.475C189.604 43.315 190.054 43.195 190.494 43.115C190.434 40.455 190.379 38.975 190.329 38.675C190.289 38.375 190.219 38.125 190.119 37.925C190.019 37.715 189.864 37.57 189.654 37.49C189.444 37.41 189.124 37.37 188.694 37.37C188.274 37.37 187.719 37.53 187.029 37.85C186.969 40.13 186.929 41.84 186.909 42.98L188.169 43.1C188.169 43.38 188.084 43.68 187.914 44H184.464L184.419 43.475C184.879 43.315 185.329 43.195 185.769 43.115C185.759 42.395 185.734 41.38 185.694 40.07C185.654 38.75 185.629 37.885 185.619 37.475C185.069 37.445 184.629 37.385 184.299 37.295L184.359 36.515C184.899 36.365 185.684 36.29 186.714 36.29C186.854 36.54 186.944 36.8 186.984 37.07C187.424 36.84 187.859 36.64 188.289 36.47C188.719 36.29 188.989 36.2 189.099 36.2C190.209 36.2 190.984 36.54 191.424 37.22C191.884 36.97 192.359 36.74 192.849 36.53C193.349 36.31 193.649 36.2 193.749 36.2C194.659 36.2 195.339 36.425 195.789 36.875C196.249 37.315 196.479 38.04 196.479 39.05C196.479 39.35 196.439 40.66 196.359 42.98L197.619 43.1C197.619 43.38 197.534 43.68 197.364 44H193.914L193.869 43.475C194.329 43.315 194.779 43.195 195.219 43.115C195.179 41.535 195.144 40.34 195.114 39.53C195.084 38.72 194.969 38.16 194.769 37.85C194.569 37.53 194.169 37.37 193.569 37.37C192.969 37.37 192.344 37.54 191.694 37.88Z" fill="#A7A7A7"/>
<rect x="19.5" y="19.5" width="460" height="41" rx="5.5" stroke="#CCCCCC"/>
<g filter="url(#filter0_i_82_250)">
<rect x="20" y="78" width="459" height="40" rx="5" fill="white"/>
<path d="M36.2812 86.5753V104.516H34.8537V86.5753H36.2812Z" fill="#A7A7A7"/>
<rect x="19.5" y="77.5" width="460" height="41" rx="5.5" stroke="#CCCCCC"/>
</g>
<g filter="url(#filter1_i_82_250)">
<rect x="20" y="136" width="459" height="40" rx="5" fill="white"/>
<rect x="19.5" y="135.5" width="460" height="41" rx="5.5" stroke="#CCCCCC"/>
</g>
<g filter="url(#filter2_i_82_250)">
<rect x="20" y="194" width="459" height="40" rx="5" fill="white"/>
<path d="M42.405 212.51C42.405 214.77 41.89 216.305 40.86 217.115C40.43 217.455 39.965 217.69 39.465 217.82C38.965 217.94 38.31 218 37.5 218H33.69L33.645 217.475C33.685 217.445 33.89 217.38 34.26 217.28C34.63 217.18 34.85 217.13 34.92 217.13C34.86 213.23 34.81 210.33 34.77 208.43C34.32 208.37 33.88 208.25 33.45 208.07C33.47 207.73 33.495 207.54 33.525 207.5H37.305C38.345 207.5 39.165 207.595 39.765 207.785C40.375 207.975 40.905 208.325 41.355 208.835C42.055 209.605 42.405 210.83 42.405 212.51ZM40.95 212.63C40.95 211.28 40.695 210.265 40.185 209.585C39.685 208.895 38.84 208.55 37.65 208.55H36.12C36.08 210.39 36.03 213.2 35.97 216.98H37.545C38.915 216.98 39.825 216.675 40.275 216.065C40.725 215.445 40.95 214.3 40.95 212.63Z" fill="#707070"/>
<rect x="19.5" y="193.5" width="460" height="41" rx="5.5" stroke="#CCCCCC"/>
</g>
<g filter="url(#filter3_i_82_250)">
<rect x="20" y="252" width="459" height="40" rx="5" fill="white"/>
<path d="M42.405 270.51C42.405 272.77 41.89 274.305 40.86 275.115C40.43 275.455 39.965 275.69 39.465 275.82C38.965 275.94 38.31 276 37.5 276H33.69L33.645 275.475C33.685 275.445 33.89 275.38 34.26 275.28C34.63 275.18 34.85 275.13 34.92 275.13C34.86 271.23 34.81 268.33 34.77 266.43C34.32 266.37 33.88 266.25 33.45 266.07C33.47 265.73 33.495 265.54 33.525 265.5H37.305C38.345 265.5 39.165 265.595 39.765 265.785C40.375 265.975 40.905 266.325 41.355 266.835C42.055 267.605 42.405 268.83 42.405 270.51ZM40.95 270.63C40.95 269.28 40.695 268.265 40.185 267.585C39.685 266.895 38.84 266.55 37.65 266.55H36.12C36.08 268.39 36.03 271.2 35.97 274.98H37.545C38.915 274.98 39.825 274.675 40.275 274.065C40.725 273.445 40.95 272.3 40.95 270.63ZM46.2449 266.955C45.9849 267.015 45.7299 267.045 45.4799 267.045C45.2399 267.045 44.9999 267.03 44.7599 267C44.6999 266.72 44.6699 266.44 44.6699 266.16C44.6699 265.87 44.6799 265.655 44.6999 265.515C44.9199 265.465 45.1499 265.44 45.3899 265.44C45.6399 265.44 45.9049 265.45 46.1849 265.47C46.2449 265.73 46.2749 265.985 46.2749 266.235C46.2749 266.475 46.2649 266.715 46.2449 266.955ZM43.5149 268.53C44.3649 268.38 45.0249 268.305 45.4949 268.305C45.9649 268.305 46.2649 268.315 46.3949 268.335C46.3949 268.575 46.3649 268.84 46.3049 269.13C46.2449 269.42 46.2099 269.56 46.1999 269.55L46.0649 274.98L47.3249 275.1C47.3249 275.38 47.2399 275.68 47.0699 276H43.6199L43.5749 275.475C44.0349 275.315 44.4849 275.195 44.9249 275.115C44.8649 272.615 44.8149 270.74 44.7749 269.49C44.1949 269.49 43.7549 269.43 43.4549 269.31L43.5149 268.53Z" fill="#707070"/>
<rect x="19.5" y="251.5" width="460" height="41" rx="5.5" stroke="#CCCCCC"/>
</g>
<g filter="url(#filter4_i_82_250)">
<rect x="20" y="310" width="459" height="40" rx="5" fill="white"/>
<path d="M42.405 328.51C42.405 330.77 41.89 332.305 40.86 333.115C40.43 333.455 39.965 333.69 39.465 333.82C38.965 333.94 38.31 334 37.5 334H33.69L33.645 333.475C33.685 333.445 33.89 333.38 34.26 333.28C34.63 333.18 34.85 333.13 34.92 333.13C34.86 329.23 34.81 326.33 34.77 324.43C34.32 324.37 33.88 324.25 33.45 324.07C33.47 323.73 33.495 323.54 33.525 323.5H37.305C38.345 323.5 39.165 323.595 39.765 323.785C40.375 323.975 40.905 324.325 41.355 324.835C42.055 325.605 42.405 326.83 42.405 328.51ZM40.95 328.63C40.95 327.28 40.695 326.265 40.185 325.585C39.685 324.895 38.84 324.55 37.65 324.55H36.12C36.08 326.39 36.03 329.2 35.97 332.98H37.545C38.915 332.98 39.825 332.675 40.275 332.065C40.725 331.445 40.95 330.3 40.95 328.63ZM46.2449 324.955C45.9849 325.015 45.7299 325.045 45.4799 325.045C45.2399 325.045 44.9999 325.03 44.7599 325C44.6999 324.72 44.6699 324.44 44.6699 324.16C44.6699 323.87 44.6799 323.655 44.6999 323.515C44.9199 323.465 45.1499 323.44 45.3899 323.44C45.6399 323.44 45.9049 323.45 46.1849 323.47C46.2449 323.73 46.2749 323.985 46.2749 324.235C46.2749 324.475 46.2649 324.715 46.2449 324.955ZM43.5149 326.53C44.3649 326.38 45.0249 326.305 45.4949 326.305C45.9649 326.305 46.2649 326.315 46.3949 326.335C46.3949 326.575 46.3649 326.84 46.3049 327.13C46.2449 327.42 46.2099 327.56 46.1999 327.55L46.0649 332.98L47.3249 333.1C47.3249 333.38 47.2399 333.68 47.0699 334H43.6199L43.5749 333.475C44.0349 333.315 44.4849 333.195 44.9249 333.115C44.8649 330.615 44.8149 328.74 44.7749 327.49C44.1949 327.49 43.7549 327.43 43.4549 327.31L43.5149 326.53ZM52.7641 327.46C52.7141 327.41 52.6041 327.385 52.4341 327.385C52.2641 327.385 52.0091 327.445 51.6691 327.565C51.3391 327.685 51.0391 327.825 50.7691 327.985C50.7091 330.205 50.6691 331.87 50.6491 332.98L51.9091 333.1C51.9091 333.38 51.8241 333.68 51.6541 334H48.2041L48.1591 333.475C48.6191 333.315 49.0691 333.195 49.5091 333.115C49.4491 330.575 49.3991 328.695 49.3591 327.475C48.8091 327.445 48.3691 327.385 48.0391 327.295L48.0991 326.515C48.6291 326.365 49.4141 326.29 50.4541 326.29C50.6141 326.54 50.7141 326.86 50.7541 327.25C51.9041 326.55 52.5891 326.2 52.8091 326.2C53.0291 326.2 53.2841 326.245 53.5741 326.335C53.8641 326.415 54.0791 326.505 54.2191 326.605C54.2191 327.605 54.1241 328.42 53.9341 329.05C53.7941 329.09 53.6291 329.11 53.4391 329.11C53.2591 329.11 53.1341 329.105 53.0641 329.095L52.7641 327.46Z" fill="#707070"/>
<rect x="19.5" y="309.5" width="460" height="41" rx="5.5" stroke="#CCCCCC"/>
</g>
<g filter="url(#filter5_i_82_250)">
<rect x="20" y="368" width="459" height="40" rx="5" fill="white"/>
<path d="M42.405 386.51C42.405 388.77 41.89 390.305 40.86 391.115C40.43 391.455 39.965 391.69 39.465 391.82C38.965 391.94 38.31 392 37.5 392H33.69L33.645 391.475C33.685 391.445 33.89 391.38 34.26 391.28C34.63 391.18 34.85 391.13 34.92 391.13C34.86 387.23 34.81 384.33 34.77 382.43C34.32 382.37 33.88 382.25 33.45 382.07C33.47 381.73 33.495 381.54 33.525 381.5H37.305C38.345 381.5 39.165 381.595 39.765 381.785C40.375 381.975 40.905 382.325 41.355 382.835C42.055 383.605 42.405 384.83 42.405 386.51ZM40.95 386.63C40.95 385.28 40.695 384.265 40.185 383.585C39.685 382.895 38.84 382.55 37.65 382.55H36.12C36.08 384.39 36.03 387.2 35.97 390.98H37.545C38.915 390.98 39.825 390.675 40.275 390.065C40.725 389.445 40.95 388.3 40.95 386.63ZM46.2449 382.955C45.9849 383.015 45.7299 383.045 45.4799 383.045C45.2399 383.045 44.9999 383.03 44.7599 383C44.6999 382.72 44.6699 382.44 44.6699 382.16C44.6699 381.87 44.6799 381.655 44.6999 381.515C44.9199 381.465 45.1499 381.44 45.3899 381.44C45.6399 381.44 45.9049 381.45 46.1849 381.47C46.2449 381.73 46.2749 381.985 46.2749 382.235C46.2749 382.475 46.2649 382.715 46.2449 382.955ZM43.5149 384.53C44.3649 384.38 45.0249 384.305 45.4949 384.305C45.9649 384.305 46.2649 384.315 46.3949 384.335C46.3949 384.575 46.3649 384.84 46.3049 385.13C46.2449 385.42 46.2099 385.56 46.1999 385.55L46.0649 390.98L47.3249 391.1C47.3249 391.38 47.2399 391.68 47.0699 392H43.6199L43.5749 391.475C44.0349 391.315 44.4849 391.195 44.9249 391.115C44.8649 388.615 44.8149 386.74 44.7749 385.49C44.1949 385.49 43.7549 385.43 43.4549 385.31L43.5149 384.53ZM52.7641 385.46C52.7141 385.41 52.6041 385.385 52.4341 385.385C52.2641 385.385 52.0091 385.445 51.6691 385.565C51.3391 385.685 51.0391 385.825 50.7691 385.985C50.7091 388.205 50.6691 389.87 50.6491 390.98L51.9091 391.1C51.9091 391.38 51.8241 391.68 51.6541 392H48.2041L48.1591 391.475C48.6191 391.315 49.0691 391.195 49.5091 391.115C49.4491 388.575 49.3991 386.695 49.3591 385.475C48.8091 385.445 48.3691 385.385 48.0391 385.295L48.0991 384.515C48.6291 384.365 49.4141 384.29 50.4541 384.29C50.6141 384.54 50.7141 384.86 50.7541 385.25C51.9041 384.55 52.5891 384.2 52.8091 384.2C53.0291 384.2 53.2841 384.245 53.5741 384.335C53.8641 384.415 54.0791 384.505 54.2191 384.605C54.2191 385.605 54.1241 386.42 53.9341 387.05C53.7941 387.09 53.6291 387.11 53.4391 387.11C53.2591 387.11 53.1341 387.105 53.0641 387.095L52.7641 385.46ZM56.9224 380.765C57.2324 380.765 57.4524 380.775 57.5824 380.795C57.5824 381.105 57.5174 381.505 57.3874 381.995C57.3274 384.635 57.2974 386.63 57.2974 387.98L59.7124 385.4L58.5124 385.28C58.5124 385 58.5974 384.7 58.7674 384.38H62.5774L62.6224 385.04C62.3924 385.13 61.9724 385.245 61.3624 385.385L59.3074 387.245L61.8424 390.98L63.1024 391.1C63.1024 391.38 63.0174 391.68 62.8474 392H60.7924L58.4524 388.01L57.2824 389.075C57.2624 389.915 57.2524 390.55 57.2524 390.98L58.5124 391.1C58.5124 391.38 58.4274 391.68 58.2574 392H54.8074L54.7624 391.475C55.2224 391.315 55.6724 391.195 56.1124 391.115C56.0524 387.075 56.0024 384.02 55.9624 381.95C55.4124 381.92 54.9724 381.86 54.6424 381.77L54.7024 380.99C55.2124 380.84 55.9524 380.765 56.9224 380.765Z" fill="#707070"/>
<rect x="19.5" y="367.5" width="460" height="41" rx="5.5" stroke="#CCCCCC"/>
</g>
<g filter="url(#filter6_i_82_250)">
<rect x="20" y="426" width="459" height="40" rx="5" fill="white"/>
<path d="M42.405 444.51C42.405 446.77 41.89 448.305 40.86 449.115C40.43 449.455 39.965 449.69 39.465 449.82C38.965 449.94 38.31 450 37.5 450H33.69L33.645 449.475C33.685 449.445 33.89 449.38 34.26 449.28C34.63 449.18 34.85 449.13 34.92 449.13C34.86 445.23 34.81 442.33 34.77 440.43C34.32 440.37 33.88 440.25 33.45 440.07C33.47 439.73 33.495 439.54 33.525 439.5H37.305C38.345 439.5 39.165 439.595 39.765 439.785C40.375 439.975 40.905 440.325 41.355 440.835C42.055 441.605 42.405 442.83 42.405 444.51ZM40.95 444.63C40.95 443.28 40.695 442.265 40.185 441.585C39.685 440.895 38.84 440.55 37.65 440.55H36.12C36.08 442.39 36.03 445.2 35.97 448.98H37.545C38.915 448.98 39.825 448.675 40.275 448.065C40.725 447.445 40.95 446.3 40.95 444.63ZM46.2449 440.955C45.9849 441.015 45.7299 441.045 45.4799 441.045C45.2399 441.045 44.9999 441.03 44.7599 441C44.6999 440.72 44.6699 440.44 44.6699 440.16C44.6699 439.87 44.6799 439.655 44.6999 439.515C44.9199 439.465 45.1499 439.44 45.3899 439.44C45.6399 439.44 45.9049 439.45 46.1849 439.47C46.2449 439.73 46.2749 439.985 46.2749 440.235C46.2749 440.475 46.2649 440.715 46.2449 440.955ZM43.5149 442.53C44.3649 442.38 45.0249 442.305 45.4949 442.305C45.9649 442.305 46.2649 442.315 46.3949 442.335C46.3949 442.575 46.3649 442.84 46.3049 443.13C46.2449 443.42 46.2099 443.56 46.1999 443.55L46.0649 448.98L47.3249 449.1C47.3249 449.38 47.2399 449.68 47.0699 450H43.6199L43.5749 449.475C44.0349 449.315 44.4849 449.195 44.9249 449.115C44.8649 446.615 44.8149 444.74 44.7749 443.49C44.1949 443.49 43.7549 443.43 43.4549 443.31L43.5149 442.53ZM52.7641 443.46C52.7141 443.41 52.6041 443.385 52.4341 443.385C52.2641 443.385 52.0091 443.445 51.6691 443.565C51.3391 443.685 51.0391 443.825 50.7691 443.985C50.7091 446.205 50.6691 447.87 50.6491 448.98L51.9091 449.1C51.9091 449.38 51.8241 449.68 51.6541 450H48.2041L48.1591 449.475C48.6191 449.315 49.0691 449.195 49.5091 449.115C49.4491 446.575 49.3991 444.695 49.3591 443.475C48.8091 443.445 48.3691 443.385 48.0391 443.295L48.0991 442.515C48.6291 442.365 49.4141 442.29 50.4541 442.29C50.6141 442.54 50.7141 442.86 50.7541 443.25C51.9041 442.55 52.5891 442.2 52.8091 442.2C53.0291 442.2 53.2841 442.245 53.5741 442.335C53.8641 442.415 54.0791 442.505 54.2191 442.605C54.2191 443.605 54.1241 444.42 53.9341 445.05C53.7941 445.09 53.6291 445.11 53.4391 445.11C53.2591 445.11 53.1341 445.105 53.0641 445.095L52.7641 443.46ZM56.9224 438.765C57.2324 438.765 57.4524 438.775 57.5824 438.795C57.5824 439.105 57.5174 439.505 57.3874 439.995C57.3274 442.635 57.2974 444.63 57.2974 445.98L59.7124 443.4L58.5124 443.28C58.5124 443 58.5974 442.7 58.7674 442.38H62.5774L62.6224 443.04C62.3924 443.13 61.9724 443.245 61.3624 443.385L59.3074 445.245L61.8424 448.98L63.1024 449.1C63.1024 449.38 63.0174 449.68 62.8474 450H60.7924L58.4524 446.01L57.2824 447.075C57.2624 447.915 57.2524 448.55 57.2524 448.98L58.5124 449.1C58.5124 449.38 58.4274 449.68 58.2574 450H54.8074L54.7624 449.475C55.2224 449.315 55.6724 449.195 56.1124 449.115C56.0524 445.075 56.0024 442.02 55.9624 439.95C55.4124 439.92 54.9724 439.86 54.6424 439.77L54.7024 438.99C55.2124 438.84 55.9524 438.765 56.9224 438.765ZM71.0647 443.385L68.1397 450H67.0747L64.3297 443.4L63.0697 443.28C63.0697 443 63.1547 442.7 63.3247 442.38H66.9547L66.9997 442.905C66.6797 443.045 66.3247 443.155 65.9347 443.235L67.2847 447.33L67.6297 448.65H67.8097L68.1847 447.315L69.5797 443.235L68.3197 442.905L68.3647 442.38H72.0397C72.2097 442.7 72.2947 443 72.2947 443.28C71.8847 443.33 71.4747 443.365 71.0647 443.385Z" fill="#707070"/>
<rect x="19.5" y="425.5" width="460" height="41" rx="5.5" stroke="#CCCCCC"/>
</g>
<g filter="url(#filter7_i_82_250)">
<rect x="20" y="484" width="459" height="40" rx="5" fill="white"/>
<path d="M42.405 502.51C42.405 504.77 41.89 506.305 40.86 507.115C40.43 507.455 39.965 507.69 39.465 507.82C38.965 507.94 38.31 508 37.5 508H33.69L33.645 507.475C33.685 507.445 33.89 507.38 34.26 507.28C34.63 507.18 34.85 507.13 34.92 507.13C34.86 503.23 34.81 500.33 34.77 498.43C34.32 498.37 33.88 498.25 33.45 498.07C33.47 497.73 33.495 497.54 33.525 497.5H37.305C38.345 497.5 39.165 497.595 39.765 497.785C40.375 497.975 40.905 498.325 41.355 498.835C42.055 499.605 42.405 500.83 42.405 502.51ZM40.95 502.63C40.95 501.28 40.695 500.265 40.185 499.585C39.685 498.895 38.84 498.55 37.65 498.55H36.12C36.08 500.39 36.03 503.2 35.97 506.98H37.545C38.915 506.98 39.825 506.675 40.275 506.065C40.725 505.445 40.95 504.3 40.95 502.63ZM46.2449 498.955C45.9849 499.015 45.7299 499.045 45.4799 499.045C45.2399 499.045 44.9999 499.03 44.7599 499C44.6999 498.72 44.6699 498.44 44.6699 498.16C44.6699 497.87 44.6799 497.655 44.6999 497.515C44.9199 497.465 45.1499 497.44 45.3899 497.44C45.6399 497.44 45.9049 497.45 46.1849 497.47C46.2449 497.73 46.2749 497.985 46.2749 498.235C46.2749 498.475 46.2649 498.715 46.2449 498.955ZM43.5149 500.53C44.3649 500.38 45.0249 500.305 45.4949 500.305C45.9649 500.305 46.2649 500.315 46.3949 500.335C46.3949 500.575 46.3649 500.84 46.3049 501.13C46.2449 501.42 46.2099 501.56 46.1999 501.55L46.0649 506.98L47.3249 507.1C47.3249 507.38 47.2399 507.68 47.0699 508H43.6199L43.5749 507.475C44.0349 507.315 44.4849 507.195 44.9249 507.115C44.8649 504.615 44.8149 502.74 44.7749 501.49C44.1949 501.49 43.7549 501.43 43.4549 501.31L43.5149 500.53ZM52.7641 501.46C52.7141 501.41 52.6041 501.385 52.4341 501.385C52.2641 501.385 52.0091 501.445 51.6691 501.565C51.3391 501.685 51.0391 501.825 50.7691 501.985C50.7091 504.205 50.6691 505.87 50.6491 506.98L51.9091 507.1C51.9091 507.38 51.8241 507.68 51.6541 508H48.2041L48.1591 507.475C48.6191 507.315 49.0691 507.195 49.5091 507.115C49.4491 504.575 49.3991 502.695 49.3591 501.475C48.8091 501.445 48.3691 501.385 48.0391 501.295L48.0991 500.515C48.6291 500.365 49.4141 500.29 50.4541 500.29C50.6141 500.54 50.7141 500.86 50.7541 501.25C51.9041 500.55 52.5891 500.2 52.8091 500.2C53.0291 500.2 53.2841 500.245 53.5741 500.335C53.8641 500.415 54.0791 500.505 54.2191 500.605C54.2191 501.605 54.1241 502.42 53.9341 503.05C53.7941 503.09 53.6291 503.11 53.4391 503.11C53.2591 503.11 53.1341 503.105 53.0641 503.095L52.7641 501.46ZM56.9224 496.765C57.2324 496.765 57.4524 496.775 57.5824 496.795C57.5824 497.105 57.5174 497.505 57.3874 497.995C57.3274 500.635 57.2974 502.63 57.2974 503.98L59.7124 501.4L58.5124 501.28C58.5124 501 58.5974 500.7 58.7674 500.38H62.5774L62.6224 501.04C62.3924 501.13 61.9724 501.245 61.3624 501.385L59.3074 503.245L61.8424 506.98L63.1024 507.1C63.1024 507.38 63.0174 507.68 62.8474 508H60.7924L58.4524 504.01L57.2824 505.075C57.2624 505.915 57.2524 506.55 57.2524 506.98L58.5124 507.1C58.5124 507.38 58.4274 507.68 58.2574 508H54.8074L54.7624 507.475C55.2224 507.315 55.6724 507.195 56.1124 507.115C56.0524 503.075 56.0024 500.02 55.9624 497.95C55.4124 497.92 54.9724 497.86 54.6424 497.77L54.7024 496.99C55.2124 496.84 55.9524 496.765 56.9224 496.765ZM71.0647 501.385L68.1397 508H67.0747L64.3297 501.4L63.0697 501.28C63.0697 501 63.1547 500.7 63.3247 500.38H66.9547L66.9997 500.905C66.6797 501.045 66.3247 501.155 65.9347 501.235L67.2847 505.33L67.6297 506.65H67.8097L68.1847 505.315L69.5797 501.235L68.3197 500.905L68.3647 500.38H72.0397C72.2097 500.7 72.2947 501 72.2947 501.28C71.8847 501.33 71.4747 501.365 71.0647 501.385ZM76.4174 507.16C76.8574 507.16 77.5474 506.95 78.4874 506.53C78.6774 506.79 78.7774 507.02 78.7874 507.22C78.2774 507.52 77.7774 507.755 77.2874 507.925C76.7974 508.095 76.4474 508.18 76.2374 508.18C75.0774 508.18 74.1924 507.835 73.5824 507.145C72.9724 506.445 72.6674 505.47 72.6674 504.22C72.6674 502.97 72.9624 501.99 73.5524 501.28C74.1524 500.56 75.0474 500.2 76.2374 500.2C77.1574 500.2 77.8574 500.53 78.3374 501.19C78.8274 501.85 79.0724 502.735 79.0724 503.845C78.9924 503.985 78.9274 504.08 78.8774 504.13L74.0474 504.055C74.0574 505.065 74.2324 505.835 74.5724 506.365C74.9224 506.895 75.5374 507.16 76.4174 507.16ZM77.7074 503.2C77.7074 502.54 77.5874 502.03 77.3474 501.67C77.1074 501.3 76.7074 501.115 76.1474 501.115C75.5874 501.115 75.0874 501.22 74.6474 501.43C74.3474 502.03 74.1574 502.645 74.0774 503.275C74.8674 503.265 76.0774 503.24 77.7074 503.2Z" fill="#707070"/>
<rect x="19.5" y="483.5" width="460" height="41" rx="5.5" stroke="#CCCCCC"/>
</g>
<g filter="url(#filter8_i_82_250)">
<rect x="20" y="542" width="459" height="40" rx="5" fill="white"/>
<path d="M42.405 560.51C42.405 562.77 41.89 564.305 40.86 565.115C40.43 565.455 39.965 565.69 39.465 565.82C38.965 565.94 38.31 566 37.5 566H33.69L33.645 565.475C33.685 565.445 33.89 565.38 34.26 565.28C34.63 565.18 34.85 565.13 34.92 565.13C34.86 561.23 34.81 558.33 34.77 556.43C34.32 556.37 33.88 556.25 33.45 556.07C33.47 555.73 33.495 555.54 33.525 555.5H37.305C38.345 555.5 39.165 555.595 39.765 555.785C40.375 555.975 40.905 556.325 41.355 556.835C42.055 557.605 42.405 558.83 42.405 560.51ZM40.95 560.63C40.95 559.28 40.695 558.265 40.185 557.585C39.685 556.895 38.84 556.55 37.65 556.55H36.12C36.08 558.39 36.03 561.2 35.97 564.98H37.545C38.915 564.98 39.825 564.675 40.275 564.065C40.725 563.445 40.95 562.3 40.95 560.63ZM46.2449 556.955C45.9849 557.015 45.7299 557.045 45.4799 557.045C45.2399 557.045 44.9999 557.03 44.7599 557C44.6999 556.72 44.6699 556.44 44.6699 556.16C44.6699 555.87 44.6799 555.655 44.6999 555.515C44.9199 555.465 45.1499 555.44 45.3899 555.44C45.6399 555.44 45.9049 555.45 46.1849 555.47C46.2449 555.73 46.2749 555.985 46.2749 556.235C46.2749 556.475 46.2649 556.715 46.2449 556.955ZM43.5149 558.53C44.3649 558.38 45.0249 558.305 45.4949 558.305C45.9649 558.305 46.2649 558.315 46.3949 558.335C46.3949 558.575 46.3649 558.84 46.3049 559.13C46.2449 559.42 46.2099 559.56 46.1999 559.55L46.0649 564.98L47.3249 565.1C47.3249 565.38 47.2399 565.68 47.0699 566H43.6199L43.5749 565.475C44.0349 565.315 44.4849 565.195 44.9249 565.115C44.8649 562.615 44.8149 560.74 44.7749 559.49C44.1949 559.49 43.7549 559.43 43.4549 559.31L43.5149 558.53ZM52.7641 559.46C52.7141 559.41 52.6041 559.385 52.4341 559.385C52.2641 559.385 52.0091 559.445 51.6691 559.565C51.3391 559.685 51.0391 559.825 50.7691 559.985C50.7091 562.205 50.6691 563.87 50.6491 564.98L51.9091 565.1C51.9091 565.38 51.8241 565.68 51.6541 566H48.2041L48.1591 565.475C48.6191 565.315 49.0691 565.195 49.5091 565.115C49.4491 562.575 49.3991 560.695 49.3591 559.475C48.8091 559.445 48.3691 559.385 48.0391 559.295L48.0991 558.515C48.6291 558.365 49.4141 558.29 50.4541 558.29C50.6141 558.54 50.7141 558.86 50.7541 559.25C51.9041 558.55 52.5891 558.2 52.8091 558.2C53.0291 558.2 53.2841 558.245 53.5741 558.335C53.8641 558.415 54.0791 558.505 54.2191 558.605C54.2191 559.605 54.1241 560.42 53.9341 561.05C53.7941 561.09 53.6291 561.11 53.4391 561.11C53.2591 561.11 53.1341 561.105 53.0641 561.095L52.7641 559.46ZM56.9224 554.765C57.2324 554.765 57.4524 554.775 57.5824 554.795C57.5824 555.105 57.5174 555.505 57.3874 555.995C57.3274 558.635 57.2974 560.63 57.2974 561.98L59.7124 559.4L58.5124 559.28C58.5124 559 58.5974 558.7 58.7674 558.38H62.5774L62.6224 559.04C62.3924 559.13 61.9724 559.245 61.3624 559.385L59.3074 561.245L61.8424 564.98L63.1024 565.1C63.1024 565.38 63.0174 565.68 62.8474 566H60.7924L58.4524 562.01L57.2824 563.075C57.2624 563.915 57.2524 564.55 57.2524 564.98L58.5124 565.1C58.5124 565.38 58.4274 565.68 58.2574 566H54.8074L54.7624 565.475C55.2224 565.315 55.6724 565.195 56.1124 565.115C56.0524 561.075 56.0024 558.02 55.9624 555.95C55.4124 555.92 54.9724 555.86 54.6424 555.77L54.7024 554.99C55.2124 554.84 55.9524 554.765 56.9224 554.765ZM71.0647 559.385L68.1397 566H67.0747L64.3297 559.4L63.0697 559.28C63.0697 559 63.1547 558.7 63.3247 558.38H66.9547L66.9997 558.905C66.6797 559.045 66.3247 559.155 65.9347 559.235L67.2847 563.33L67.6297 564.65H67.8097L68.1847 563.315L69.5797 559.235L68.3197 558.905L68.3647 558.38H72.0397C72.2097 558.7 72.2947 559 72.2947 559.28C71.8847 559.33 71.4747 559.365 71.0647 559.385ZM76.4174 565.16C76.8574 565.16 77.5474 564.95 78.4874 564.53C78.6774 564.79 78.7774 565.02 78.7874 565.22C78.2774 565.52 77.7774 565.755 77.2874 565.925C76.7974 566.095 76.4474 566.18 76.2374 566.18C75.0774 566.18 74.1924 565.835 73.5824 565.145C72.9724 564.445 72.6674 563.47 72.6674 562.22C72.6674 560.97 72.9624 559.99 73.5524 559.28C74.1524 558.56 75.0474 558.2 76.2374 558.2C77.1574 558.2 77.8574 558.53 78.3374 559.19C78.8274 559.85 79.0724 560.735 79.0724 561.845C78.9924 561.985 78.9274 562.08 78.8774 562.13L74.0474 562.055C74.0574 563.065 74.2324 563.835 74.5724 564.365C74.9224 564.895 75.5374 565.16 76.4174 565.16ZM77.7074 561.2C77.7074 560.54 77.5874 560.03 77.3474 559.67C77.1074 559.3 76.7074 559.115 76.1474 559.115C75.5874 559.115 75.0874 559.22 74.6474 559.43C74.3474 560.03 74.1574 560.645 74.0774 561.275C74.8674 561.265 76.0774 561.24 77.7074 561.2ZM84.8882 559.46C84.8382 559.41 84.7282 559.385 84.5582 559.385C84.3882 559.385 84.1332 559.445 83.7932 559.565C83.4632 559.685 83.1632 559.825 82.8932 559.985C82.8332 562.205 82.7932 563.87 82.7732 564.98L84.0332 565.1C84.0332 565.38 83.9482 565.68 83.7782 566H80.3282L80.2832 565.475C80.7432 565.315 81.1932 565.195 81.6332 565.115C81.5732 562.575 81.5232 560.695 81.4832 559.475C80.9332 559.445 80.4932 559.385 80.1632 559.295L80.2232 558.515C80.7532 558.365 81.5382 558.29 82.5782 558.29C82.7382 558.54 82.8382 558.86 82.8782 559.25C84.0282 558.55 84.7132 558.2 84.9332 558.2C85.1532 558.2 85.4082 558.245 85.6982 558.335C85.9882 558.415 86.2032 558.505 86.3432 558.605C86.3432 559.605 86.2482 560.42 86.0582 561.05C85.9182 561.09 85.7532 561.11 85.5632 561.11C85.3832 561.11 85.2582 561.105 85.1882 561.095L84.8882 559.46Z" fill="#707070"/>
<rect x="19.5" y="541.5" width="460" height="41" rx="5.5" stroke="#CCCCCC"/>
</g>
<g filter="url(#filter9_i_82_250)">
<rect x="20" y="600" width="459" height="40" rx="5" fill="white"/>
<path d="M42.405 618.51C42.405 620.77 41.89 622.305 40.86 623.115C40.43 623.455 39.965 623.69 39.465 623.82C38.965 623.94 38.31 624 37.5 624H33.69L33.645 623.475C33.685 623.445 33.89 623.38 34.26 623.28C34.63 623.18 34.85 623.13 34.92 623.13C34.86 619.23 34.81 616.33 34.77 614.43C34.32 614.37 33.88 614.25 33.45 614.07C33.47 613.73 33.495 613.54 33.525 613.5H37.305C38.345 613.5 39.165 613.595 39.765 613.785C40.375 613.975 40.905 614.325 41.355 614.835C42.055 615.605 42.405 616.83 42.405 618.51ZM40.95 618.63C40.95 617.28 40.695 616.265 40.185 615.585C39.685 614.895 38.84 614.55 37.65 614.55H36.12C36.08 616.39 36.03 619.2 35.97 622.98H37.545C38.915 622.98 39.825 622.675 40.275 622.065C40.725 621.445 40.95 620.3 40.95 618.63ZM46.2449 614.955C45.9849 615.015 45.7299 615.045 45.4799 615.045C45.2399 615.045 44.9999 615.03 44.7599 615C44.6999 614.72 44.6699 614.44 44.6699 614.16C44.6699 613.87 44.6799 613.655 44.6999 613.515C44.9199 613.465 45.1499 613.44 45.3899 613.44C45.6399 613.44 45.9049 613.45 46.1849 613.47C46.2449 613.73 46.2749 613.985 46.2749 614.235C46.2749 614.475 46.2649 614.715 46.2449 614.955ZM43.5149 616.53C44.3649 616.38 45.0249 616.305 45.4949 616.305C45.9649 616.305 46.2649 616.315 46.3949 616.335C46.3949 616.575 46.3649 616.84 46.3049 617.13C46.2449 617.42 46.2099 617.56 46.1999 617.55L46.0649 622.98L47.3249 623.1C47.3249 623.38 47.2399 623.68 47.0699 624H43.6199L43.5749 623.475C44.0349 623.315 44.4849 623.195 44.9249 623.115C44.8649 620.615 44.8149 618.74 44.7749 617.49C44.1949 617.49 43.7549 617.43 43.4549 617.31L43.5149 616.53ZM52.7641 617.46C52.7141 617.41 52.6041 617.385 52.4341 617.385C52.2641 617.385 52.0091 617.445 51.6691 617.565C51.3391 617.685 51.0391 617.825 50.7691 617.985C50.7091 620.205 50.6691 621.87 50.6491 622.98L51.9091 623.1C51.9091 623.38 51.8241 623.68 51.6541 624H48.2041L48.1591 623.475C48.6191 623.315 49.0691 623.195 49.5091 623.115C49.4491 620.575 49.3991 618.695 49.3591 617.475C48.8091 617.445 48.3691 617.385 48.0391 617.295L48.0991 616.515C48.6291 616.365 49.4141 616.29 50.4541 616.29C50.6141 616.54 50.7141 616.86 50.7541 617.25C51.9041 616.55 52.5891 616.2 52.8091 616.2C53.0291 616.2 53.2841 616.245 53.5741 616.335C53.8641 616.415 54.0791 616.505 54.2191 616.605C54.2191 617.605 54.1241 618.42 53.9341 619.05C53.7941 619.09 53.6291 619.11 53.4391 619.11C53.2591 619.11 53.1341 619.105 53.0641 619.095L52.7641 617.46ZM56.9224 612.765C57.2324 612.765 57.4524 612.775 57.5824 612.795C57.5824 613.105 57.5174 613.505 57.3874 613.995C57.3274 616.635 57.2974 618.63 57.2974 619.98L59.7124 617.4L58.5124 617.28C58.5124 617 58.5974 616.7 58.7674 616.38H62.5774L62.6224 617.04C62.3924 617.13 61.9724 617.245 61.3624 617.385L59.3074 619.245L61.8424 622.98L63.1024 623.1C63.1024 623.38 63.0174 623.68 62.8474 624H60.7924L58.4524 620.01L57.2824 621.075C57.2624 621.915 57.2524 622.55 57.2524 622.98L58.5124 623.1C58.5124 623.38 58.4274 623.68 58.2574 624H54.8074L54.7624 623.475C55.2224 623.315 55.6724 623.195 56.1124 623.115C56.0524 619.075 56.0024 616.02 55.9624 613.95C55.4124 613.92 54.9724 613.86 54.6424 613.77L54.7024 612.99C55.2124 612.84 55.9524 612.765 56.9224 612.765ZM71.0647 617.385L68.1397 624H67.0747L64.3297 617.4L63.0697 617.28C63.0697 617 63.1547 616.7 63.3247 616.38H66.9547L66.9997 616.905C66.6797 617.045 66.3247 617.155 65.9347 617.235L67.2847 621.33L67.6297 622.65H67.8097L68.1847 621.315L69.5797 617.235L68.3197 616.905L68.3647 616.38H72.0397C72.2097 616.7 72.2947 617 72.2947 617.28C71.8847 617.33 71.4747 617.365 71.0647 617.385ZM76.4174 623.16C76.8574 623.16 77.5474 622.95 78.4874 622.53C78.6774 622.79 78.7774 623.02 78.7874 623.22C78.2774 623.52 77.7774 623.755 77.2874 623.925C76.7974 624.095 76.4474 624.18 76.2374 624.18C75.0774 624.18 74.1924 623.835 73.5824 623.145C72.9724 622.445 72.6674 621.47 72.6674 620.22C72.6674 618.97 72.9624 617.99 73.5524 617.28C74.1524 616.56 75.0474 616.2 76.2374 616.2C77.1574 616.2 77.8574 616.53 78.3374 617.19C78.8274 617.85 79.0724 618.735 79.0724 619.845C78.9924 619.985 78.9274 620.08 78.8774 620.13L74.0474 620.055C74.0574 621.065 74.2324 621.835 74.5724 622.365C74.9224 622.895 75.5374 623.16 76.4174 623.16ZM77.7074 619.2C77.7074 618.54 77.5874 618.03 77.3474 617.67C77.1074 617.3 76.7074 617.115 76.1474 617.115C75.5874 617.115 75.0874 617.22 74.6474 617.43C74.3474 618.03 74.1574 618.645 74.0774 619.275C74.8674 619.265 76.0774 619.24 77.7074 619.2ZM84.8882 617.46C84.8382 617.41 84.7282 617.385 84.5582 617.385C84.3882 617.385 84.1332 617.445 83.7932 617.565C83.4632 617.685 83.1632 617.825 82.8932 617.985C82.8332 620.205 82.7932 621.87 82.7732 622.98L84.0332 623.1C84.0332 623.38 83.9482 623.68 83.7782 624H80.3282L80.2832 623.475C80.7432 623.315 81.1932 623.195 81.6332 623.115C81.5732 620.575 81.5232 618.695 81.4832 617.475C80.9332 617.445 80.4932 617.385 80.1632 617.295L80.2232 616.515C80.7532 616.365 81.5382 616.29 82.5782 616.29C82.7382 616.54 82.8382 616.86 82.8782 617.25C84.0282 616.55 84.7132 616.2 84.9332 616.2C85.1532 616.2 85.4082 616.245 85.6982 616.335C85.9882 616.415 86.2032 616.505 86.3432 616.605C86.3432 617.605 86.2482 618.42 86.0582 619.05C85.9182 619.09 85.7532 619.11 85.5632 619.11C85.3832 619.11 85.2582 619.105 85.1882 619.095L84.8882 617.46ZM91.7014 616.2C92.6614 616.2 93.3564 616.44 93.7864 616.92C94.2164 617.39 94.4314 618.11 94.4314 619.08C94.4314 619.36 94.3914 620.66 94.3114 622.98L95.5714 623.1C95.5714 623.38 95.4864 623.68 95.3164 624H91.8664L91.8214 623.475C92.2814 623.315 92.7314 623.195 93.1714 623.115C93.1114 620.495 93.0564 619.04 93.0064 618.75C92.9664 618.45 92.8964 618.19 92.7964 617.97C92.6964 617.75 92.5464 617.595 92.3464 617.505C92.1464 617.415 91.8814 617.37 91.5514 617.37C90.8914 617.37 90.2514 617.53 89.6314 617.85C89.5714 620.13 89.5314 621.84 89.5114 622.98L90.7714 623.1C90.7714 623.38 90.6864 623.68 90.5164 624H87.0664L87.0214 623.475C87.4814 623.315 87.9314 623.195 88.3714 623.115C88.3114 620.575 88.2614 618.695 88.2214 617.475C87.6714 617.445 87.2314 617.385 86.9014 617.295L86.9614 616.515C87.5014 616.365 88.2864 616.29 89.3164 616.29C89.4364 616.47 89.5264 616.73 89.5864 617.07C90.0164 616.84 90.4464 616.64 90.8764 616.47C91.3164 616.29 91.5914 616.2 91.7014 616.2Z" fill="#707070"/>
<rect x="19.5" y="599.5" width="460" height="41" rx="5.5" stroke="#CCCCCC"/>
</g>
<g filter="url(#filter10_i_82_250)">
<rect x="20" y="658" width="459" height="40" rx="5" fill="white"/>
<path d="M42.405 676.51C42.405 678.77 41.89 680.305 40.86 681.115C40.43 681.455 39.965 681.69 39.465 681.82C38.965 681.94 38.31 682 37.5 682H33.69L33.645 681.475C33.685 681.445 33.89 681.38 34.26 681.28C34.63 681.18 34.85 681.13 34.92 681.13C34.86 677.23 34.81 674.33 34.77 672.43C34.32 672.37 33.88 672.25 33.45 672.07C33.47 671.73 33.495 671.54 33.525 671.5H37.305C38.345 671.5 39.165 671.595 39.765 671.785C40.375 671.975 40.905 672.325 41.355 672.835C42.055 673.605 42.405 674.83 42.405 676.51ZM40.95 676.63C40.95 675.28 40.695 674.265 40.185 673.585C39.685 672.895 38.84 672.55 37.65 672.55H36.12C36.08 674.39 36.03 677.2 35.97 680.98H37.545C38.915 680.98 39.825 680.675 40.275 680.065C40.725 679.445 40.95 678.3 40.95 676.63ZM46.2449 672.955C45.9849 673.015 45.7299 673.045 45.4799 673.045C45.2399 673.045 44.9999 673.03 44.7599 673C44.6999 672.72 44.6699 672.44 44.6699 672.16C44.6699 671.87 44.6799 671.655 44.6999 671.515C44.9199 671.465 45.1499 671.44 45.3899 671.44C45.6399 671.44 45.9049 671.45 46.1849 671.47C46.2449 671.73 46.2749 671.985 46.2749 672.235C46.2749 672.475 46.2649 672.715 46.2449 672.955ZM43.5149 674.53C44.3649 674.38 45.0249 674.305 45.4949 674.305C45.9649 674.305 46.2649 674.315 46.3949 674.335C46.3949 674.575 46.3649 674.84 46.3049 675.13C46.2449 675.42 46.2099 675.56 46.1999 675.55L46.0649 680.98L47.3249 681.1C47.3249 681.38 47.2399 681.68 47.0699 682H43.6199L43.5749 681.475C44.0349 681.315 44.4849 681.195 44.9249 681.115C44.8649 678.615 44.8149 676.74 44.7749 675.49C44.1949 675.49 43.7549 675.43 43.4549 675.31L43.5149 674.53ZM52.7641 675.46C52.7141 675.41 52.6041 675.385 52.4341 675.385C52.2641 675.385 52.0091 675.445 51.6691 675.565C51.3391 675.685 51.0391 675.825 50.7691 675.985C50.7091 678.205 50.6691 679.87 50.6491 680.98L51.9091 681.1C51.9091 681.38 51.8241 681.68 51.6541 682H48.2041L48.1591 681.475C48.6191 681.315 49.0691 681.195 49.5091 681.115C49.4491 678.575 49.3991 676.695 49.3591 675.475C48.8091 675.445 48.3691 675.385 48.0391 675.295L48.0991 674.515C48.6291 674.365 49.4141 674.29 50.4541 674.29C50.6141 674.54 50.7141 674.86 50.7541 675.25C51.9041 674.55 52.5891 674.2 52.8091 674.2C53.0291 674.2 53.2841 674.245 53.5741 674.335C53.8641 674.415 54.0791 674.505 54.2191 674.605C54.2191 675.605 54.1241 676.42 53.9341 677.05C53.7941 677.09 53.6291 677.11 53.4391 677.11C53.2591 677.11 53.1341 677.105 53.0641 677.095L52.7641 675.46ZM56.9224 670.765C57.2324 670.765 57.4524 670.775 57.5824 670.795C57.5824 671.105 57.5174 671.505 57.3874 671.995C57.3274 674.635 57.2974 676.63 57.2974 677.98L59.7124 675.4L58.5124 675.28C58.5124 675 58.5974 674.7 58.7674 674.38H62.5774L62.6224 675.04C62.3924 675.13 61.9724 675.245 61.3624 675.385L59.3074 677.245L61.8424 680.98L63.1024 681.1C63.1024 681.38 63.0174 681.68 62.8474 682H60.7924L58.4524 678.01L57.2824 679.075C57.2624 679.915 57.2524 680.55 57.2524 680.98L58.5124 681.1C58.5124 681.38 58.4274 681.68 58.2574 682H54.8074L54.7624 681.475C55.2224 681.315 55.6724 681.195 56.1124 681.115C56.0524 677.075 56.0024 674.02 55.9624 671.95C55.4124 671.92 54.9724 671.86 54.6424 671.77L54.7024 670.99C55.2124 670.84 55.9524 670.765 56.9224 670.765ZM71.0647 675.385L68.1397 682H67.0747L64.3297 675.4L63.0697 675.28C63.0697 675 63.1547 674.7 63.3247 674.38H66.9547L66.9997 674.905C66.6797 675.045 66.3247 675.155 65.9347 675.235L67.2847 679.33L67.6297 680.65H67.8097L68.1847 679.315L69.5797 675.235L68.3197 674.905L68.3647 674.38H72.0397C72.2097 674.7 72.2947 675 72.2947 675.28C71.8847 675.33 71.4747 675.365 71.0647 675.385ZM76.4174 681.16C76.8574 681.16 77.5474 680.95 78.4874 680.53C78.6774 680.79 78.7774 681.02 78.7874 681.22C78.2774 681.52 77.7774 681.755 77.2874 681.925C76.7974 682.095 76.4474 682.18 76.2374 682.18C75.0774 682.18 74.1924 681.835 73.5824 681.145C72.9724 680.445 72.6674 679.47 72.6674 678.22C72.6674 676.97 72.9624 675.99 73.5524 675.28C74.1524 674.56 75.0474 674.2 76.2374 674.2C77.1574 674.2 77.8574 674.53 78.3374 675.19C78.8274 675.85 79.0724 676.735 79.0724 677.845C78.9924 677.985 78.9274 678.08 78.8774 678.13L74.0474 678.055C74.0574 679.065 74.2324 679.835 74.5724 680.365C74.9224 680.895 75.5374 681.16 76.4174 681.16ZM77.7074 677.2C77.7074 676.54 77.5874 676.03 77.3474 675.67C77.1074 675.3 76.7074 675.115 76.1474 675.115C75.5874 675.115 75.0874 675.22 74.6474 675.43C74.3474 676.03 74.1574 676.645 74.0774 677.275C74.8674 677.265 76.0774 677.24 77.7074 677.2ZM84.8882 675.46C84.8382 675.41 84.7282 675.385 84.5582 675.385C84.3882 675.385 84.1332 675.445 83.7932 675.565C83.4632 675.685 83.1632 675.825 82.8932 675.985C82.8332 678.205 82.7932 679.87 82.7732 680.98L84.0332 681.1C84.0332 681.38 83.9482 681.68 83.7782 682H80.3282L80.2832 681.475C80.7432 681.315 81.1932 681.195 81.6332 681.115C81.5732 678.575 81.5232 676.695 81.4832 675.475C80.9332 675.445 80.4932 675.385 80.1632 675.295L80.2232 674.515C80.7532 674.365 81.5382 674.29 82.5782 674.29C82.7382 674.54 82.8382 674.86 82.8782 675.25C84.0282 674.55 84.7132 674.2 84.9332 674.2C85.1532 674.2 85.4082 674.245 85.6982 674.335C85.9882 674.415 86.2032 674.505 86.3432 674.605C86.3432 675.605 86.2482 676.42 86.0582 677.05C85.9182 677.09 85.7532 677.11 85.5632 677.11C85.3832 677.11 85.2582 677.105 85.1882 677.095L84.8882 675.46ZM91.7014 674.2C92.6614 674.2 93.3564 674.44 93.7864 674.92C94.2164 675.39 94.4314 676.11 94.4314 677.08C94.4314 677.36 94.3914 678.66 94.3114 680.98L95.5714 681.1C95.5714 681.38 95.4864 681.68 95.3164 682H91.8664L91.8214 681.475C92.2814 681.315 92.7314 681.195 93.1714 681.115C93.1114 678.495 93.0564 677.04 93.0064 676.75C92.9664 676.45 92.8964 676.19 92.7964 675.97C92.6964 675.75 92.5464 675.595 92.3464 675.505C92.1464 675.415 91.8814 675.37 91.5514 675.37C90.8914 675.37 90.2514 675.53 89.6314 675.85C89.5714 678.13 89.5314 679.84 89.5114 680.98L90.7714 681.1C90.7714 681.38 90.6864 681.68 90.5164 682H87.0664L87.0214 681.475C87.4814 681.315 87.9314 681.195 88.3714 681.115C88.3114 678.575 88.2614 676.695 88.2214 675.475C87.6714 675.445 87.2314 675.385 86.9014 675.295L86.9614 674.515C87.5014 674.365 88.2864 674.29 89.3164 674.29C89.4364 674.47 89.5264 674.73 89.5864 675.07C90.0164 674.84 90.4464 674.64 90.8764 674.47C91.3164 674.29 91.5914 674.2 91.7014 674.2ZM99.7296 681.28C100.57 681.28 101.135 681.02 101.425 680.5C101.725 679.97 101.875 679.22 101.875 678.25C101.875 676.71 101.535 675.745 100.855 675.355C100.575 675.195 100.18 675.115 99.6696 675.115C99.1696 675.115 98.6946 675.22 98.2446 675.43C97.8446 676.2 97.6446 677.095 97.6446 678.115C97.6446 679.095 97.7746 679.85 98.0346 680.38C98.3346 680.98 98.8996 681.28 99.7296 681.28ZM96.2646 678.25C96.2646 676.98 96.5546 675.99 97.1346 675.28C97.7146 674.56 98.6096 674.2 99.8196 674.2C101.03 674.2 101.905 674.53 102.445 675.19C102.985 675.84 103.255 676.805 103.255 678.085C103.255 679.365 102.965 680.37 102.385 681.1C101.815 681.83 100.945 682.195 99.7746 682.195C98.6046 682.195 97.7246 681.855 97.1346 681.175C96.5546 680.495 96.2646 679.52 96.2646 678.25Z" fill="#707070"/>
<rect x="19.5" y="657.5" width="460" height="41" rx="5.5" stroke="#CCCCCC"/>
</g>
<g filter="url(#filter11_i_82_250)">
<rect x="20" y="716" width="459" height="40" rx="5" fill="white"/>
<path d="M42.405 734.51C42.405 736.77 41.89 738.305 40.86 739.115C40.43 739.455 39.965 739.69 39.465 739.82C38.965 739.94 38.31 740 37.5 740H33.69L33.645 739.475C33.685 739.445 33.89 739.38 34.26 739.28C34.63 739.18 34.85 739.13 34.92 739.13C34.86 735.23 34.81 732.33 34.77 730.43C34.32 730.37 33.88 730.25 33.45 730.07C33.47 729.73 33.495 729.54 33.525 729.5H37.305C38.345 729.5 39.165 729.595 39.765 729.785C40.375 729.975 40.905 730.325 41.355 730.835C42.055 731.605 42.405 732.83 42.405 734.51ZM40.95 734.63C40.95 733.28 40.695 732.265 40.185 731.585C39.685 730.895 38.84 730.55 37.65 730.55H36.12C36.08 732.39 36.03 735.2 35.97 738.98H37.545C38.915 738.98 39.825 738.675 40.275 738.065C40.725 737.445 40.95 736.3 40.95 734.63ZM46.2449 730.955C45.9849 731.015 45.7299 731.045 45.4799 731.045C45.2399 731.045 44.9999 731.03 44.7599 731C44.6999 730.72 44.6699 730.44 44.6699 730.16C44.6699 729.87 44.6799 729.655 44.6999 729.515C44.9199 729.465 45.1499 729.44 45.3899 729.44C45.6399 729.44 45.9049 729.45 46.1849 729.47C46.2449 729.73 46.2749 729.985 46.2749 730.235C46.2749 730.475 46.2649 730.715 46.2449 730.955ZM43.5149 732.53C44.3649 732.38 45.0249 732.305 45.4949 732.305C45.9649 732.305 46.2649 732.315 46.3949 732.335C46.3949 732.575 46.3649 732.84 46.3049 733.13C46.2449 733.42 46.2099 733.56 46.1999 733.55L46.0649 738.98L47.3249 739.1C47.3249 739.38 47.2399 739.68 47.0699 740H43.6199L43.5749 739.475C44.0349 739.315 44.4849 739.195 44.9249 739.115C44.8649 736.615 44.8149 734.74 44.7749 733.49C44.1949 733.49 43.7549 733.43 43.4549 733.31L43.5149 732.53ZM52.7641 733.46C52.7141 733.41 52.6041 733.385 52.4341 733.385C52.2641 733.385 52.0091 733.445 51.6691 733.565C51.3391 733.685 51.0391 733.825 50.7691 733.985C50.7091 736.205 50.6691 737.87 50.6491 738.98L51.9091 739.1C51.9091 739.38 51.8241 739.68 51.6541 740H48.2041L48.1591 739.475C48.6191 739.315 49.0691 739.195 49.5091 739.115C49.4491 736.575 49.3991 734.695 49.3591 733.475C48.8091 733.445 48.3691 733.385 48.0391 733.295L48.0991 732.515C48.6291 732.365 49.4141 732.29 50.4541 732.29C50.6141 732.54 50.7141 732.86 50.7541 733.25C51.9041 732.55 52.5891 732.2 52.8091 732.2C53.0291 732.2 53.2841 732.245 53.5741 732.335C53.8641 732.415 54.0791 732.505 54.2191 732.605C54.2191 733.605 54.1241 734.42 53.9341 735.05C53.7941 735.09 53.6291 735.11 53.4391 735.11C53.2591 735.11 53.1341 735.105 53.0641 735.095L52.7641 733.46ZM56.9224 728.765C57.2324 728.765 57.4524 728.775 57.5824 728.795C57.5824 729.105 57.5174 729.505 57.3874 729.995C57.3274 732.635 57.2974 734.63 57.2974 735.98L59.7124 733.4L58.5124 733.28C58.5124 733 58.5974 732.7 58.7674 732.38H62.5774L62.6224 733.04C62.3924 733.13 61.9724 733.245 61.3624 733.385L59.3074 735.245L61.8424 738.98L63.1024 739.1C63.1024 739.38 63.0174 739.68 62.8474 740H60.7924L58.4524 736.01L57.2824 737.075C57.2624 737.915 57.2524 738.55 57.2524 738.98L58.5124 739.1C58.5124 739.38 58.4274 739.68 58.2574 740H54.8074L54.7624 739.475C55.2224 739.315 55.6724 739.195 56.1124 739.115C56.0524 735.075 56.0024 732.02 55.9624 729.95C55.4124 729.92 54.9724 729.86 54.6424 729.77L54.7024 728.99C55.2124 728.84 55.9524 728.765 56.9224 728.765ZM71.0647 733.385L68.1397 740H67.0747L64.3297 733.4L63.0697 733.28C63.0697 733 63.1547 732.7 63.3247 732.38H66.9547L66.9997 732.905C66.6797 733.045 66.3247 733.155 65.9347 733.235L67.2847 737.33L67.6297 738.65H67.8097L68.1847 737.315L69.5797 733.235L68.3197 732.905L68.3647 732.38H72.0397C72.2097 732.7 72.2947 733 72.2947 733.28C71.8847 733.33 71.4747 733.365 71.0647 733.385ZM76.4174 739.16C76.8574 739.16 77.5474 738.95 78.4874 738.53C78.6774 738.79 78.7774 739.02 78.7874 739.22C78.2774 739.52 77.7774 739.755 77.2874 739.925C76.7974 740.095 76.4474 740.18 76.2374 740.18C75.0774 740.18 74.1924 739.835 73.5824 739.145C72.9724 738.445 72.6674 737.47 72.6674 736.22C72.6674 734.97 72.9624 733.99 73.5524 733.28C74.1524 732.56 75.0474 732.2 76.2374 732.2C77.1574 732.2 77.8574 732.53 78.3374 733.19C78.8274 733.85 79.0724 734.735 79.0724 735.845C78.9924 735.985 78.9274 736.08 78.8774 736.13L74.0474 736.055C74.0574 737.065 74.2324 737.835 74.5724 738.365C74.9224 738.895 75.5374 739.16 76.4174 739.16ZM77.7074 735.2C77.7074 734.54 77.5874 734.03 77.3474 733.67C77.1074 733.3 76.7074 733.115 76.1474 733.115C75.5874 733.115 75.0874 733.22 74.6474 733.43C74.3474 734.03 74.1574 734.645 74.0774 735.275C74.8674 735.265 76.0774 735.24 77.7074 735.2ZM84.8882 733.46C84.8382 733.41 84.7282 733.385 84.5582 733.385C84.3882 733.385 84.1332 733.445 83.7932 733.565C83.4632 733.685 83.1632 733.825 82.8932 733.985C82.8332 736.205 82.7932 737.87 82.7732 738.98L84.0332 739.1C84.0332 739.38 83.9482 739.68 83.7782 740H80.3282L80.2832 739.475C80.7432 739.315 81.1932 739.195 81.6332 739.115C81.5732 736.575 81.5232 734.695 81.4832 733.475C80.9332 733.445 80.4932 733.385 80.1632 733.295L80.2232 732.515C80.7532 732.365 81.5382 732.29 82.5782 732.29C82.7382 732.54 82.8382 732.86 82.8782 733.25C84.0282 732.55 84.7132 732.2 84.9332 732.2C85.1532 732.2 85.4082 732.245 85.6982 732.335C85.9882 732.415 86.2032 732.505 86.3432 732.605C86.3432 733.605 86.2482 734.42 86.0582 735.05C85.9182 735.09 85.7532 735.11 85.5632 735.11C85.3832 735.11 85.2582 735.105 85.1882 735.095L84.8882 733.46ZM91.7014 732.2C92.6614 732.2 93.3564 732.44 93.7864 732.92C94.2164 733.39 94.4314 734.11 94.4314 735.08C94.4314 735.36 94.3914 736.66 94.3114 738.98L95.5714 739.1C95.5714 739.38 95.4864 739.68 95.3164 740H91.8664L91.8214 739.475C92.2814 739.315 92.7314 739.195 93.1714 739.115C93.1114 736.495 93.0564 735.04 93.0064 734.75C92.9664 734.45 92.8964 734.19 92.7964 733.97C92.6964 733.75 92.5464 733.595 92.3464 733.505C92.1464 733.415 91.8814 733.37 91.5514 733.37C90.8914 733.37 90.2514 733.53 89.6314 733.85C89.5714 736.13 89.5314 737.84 89.5114 738.98L90.7714 739.1C90.7714 739.38 90.6864 739.68 90.5164 740H87.0664L87.0214 739.475C87.4814 739.315 87.9314 739.195 88.3714 739.115C88.3114 736.575 88.2614 734.695 88.2214 733.475C87.6714 733.445 87.2314 733.385 86.9014 733.295L86.9614 732.515C87.5014 732.365 88.2864 732.29 89.3164 732.29C89.4364 732.47 89.5264 732.73 89.5864 733.07C90.0164 732.84 90.4464 732.64 90.8764 732.47C91.3164 732.29 91.5914 732.2 91.7014 732.2ZM99.7296 739.28C100.57 739.28 101.135 739.02 101.425 738.5C101.725 737.97 101.875 737.22 101.875 736.25C101.875 734.71 101.535 733.745 100.855 733.355C100.575 733.195 100.18 733.115 99.6696 733.115C99.1696 733.115 98.6946 733.22 98.2446 733.43C97.8446 734.2 97.6446 735.095 97.6446 736.115C97.6446 737.095 97.7746 737.85 98.0346 738.38C98.3346 738.98 98.8996 739.28 99.7296 739.28ZM96.2646 736.25C96.2646 734.98 96.5546 733.99 97.1346 733.28C97.7146 732.56 98.6096 732.2 99.8196 732.2C101.03 732.2 101.905 732.53 102.445 733.19C102.985 733.84 103.255 734.805 103.255 736.085C103.255 737.365 102.965 738.37 102.385 739.1C101.815 739.83 100.945 740.195 99.7746 740.195C98.6046 740.195 97.7246 739.855 97.1346 739.175C96.5546 738.495 96.2646 737.52 96.2646 736.25ZM109.016 732.2C109.976 732.2 110.671 732.44 111.101 732.92C111.531 733.39 111.746 734.11 111.746 735.08C111.746 735.36 111.706 736.66 111.626 738.98L112.886 739.1C112.886 739.38 112.801 739.68 112.631 740H109.181L109.136 739.475C109.596 739.315 110.046 739.195 110.486 739.115C110.426 736.495 110.371 735.04 110.321 734.75C110.281 734.45 110.211 734.19 110.111 733.97C110.011 733.75 109.861 733.595 109.661 733.505C109.461 733.415 109.196 733.37 108.866 733.37C108.206 733.37 107.566 733.53 106.946 733.85C106.886 736.13 106.846 737.84 106.826 738.98L108.086 739.1C108.086 739.38 108.001 739.68 107.831 740H104.381L104.336 739.475C104.796 739.315 105.246 739.195 105.686 739.115C105.626 736.575 105.576 734.695 105.536 733.475C104.986 733.445 104.546 733.385 104.216 733.295L104.276 732.515C104.816 732.365 105.601 732.29 106.631 732.29C106.751 732.47 106.841 732.73 106.901 733.07C107.331 732.84 107.761 732.64 108.191 732.47C108.631 732.29 108.906 732.2 109.016 732.2Z" fill="#707070"/>
<rect x="19.5" y="715.5" width="460" height="41" rx="5.5" stroke="#CCCCCC"/>
</g>
<rect x="0.5" y="0.5" width="498" height="775" rx="4.5" stroke="#9747FF" stroke-dasharray="10 5"/>
<defs>
<filter id="filter0_i_82_250" x="19" y="77" width="461" height="46" filterUnits="userSpaceOnUse" color-interpolation-filters="sRGB">
<feFlood flood-opacity="0" result="BackgroundImageFix"/>
<feBlend mode="normal" in="SourceGraphic" in2="BackgroundImageFix" result="shape"/>
<feColorMatrix in="SourceAlpha" type="matrix" values="0 0 0 0 0 0 0 0 0 0 0 0 0 0 0 0 0 0 127 0" result="hardAlpha"/>
<feOffset dy="4"/>
<feGaussianBlur stdDeviation="5"/>
<feComposite in2="hardAlpha" operator="arithmetic" k2="-1" k3="1"/>
<feColorMatrix type="matrix" values="0 0 0 0 0.132326 0 0 0 0 0.132326 0 0 0 0 0.858333 0 0 0 0.2 0"/>
<feBlend mode="normal" in2="shape" result="effect1_innerShadow_82_250"/>
</filter>
<filter id="filter1_i_82_250" x="19" y="135" width="461" height="46" filterUnits="userSpaceOnUse" color-interpolation-filters="sRGB">
<feFlood flood-opacity="0" result="BackgroundImageFix"/>
<feBlend mode="normal" in="SourceGraphic" in2="BackgroundImageFix" result="shape"/>
<feColorMatrix in="SourceAlpha" type="matrix" values="0 0 0 0 0 0 0 0 0 0 0 0 0 0 0 0 0 0 127 0" result="hardAlpha"/>
<feOffset dy="4"/>
<feGaussianBlur stdDeviation="5"/>
<feComposite in2="hardAlpha" operator="arithmetic" k2="-1" k3="1"/>
<feColorMatrix type="matrix" values="0 0 0 0 0.133333 0 0 0 0 0.133333 0 0 0 0 0.858824 0 0 0 0.2 0"/>
<feBlend mode="normal" in2="shape" result="effect1_innerShadow_82_250"/>
</filter>
<filter id="filter2_i_82_250" x="19" y="193" width="461" height="46" filterUnits="userSpaceOnUse" color-interpolation-filters="sRGB">
<feFlood flood-opacity="0" result="BackgroundImageFix"/>
<feBlend mode="normal" in="SourceGraphic" in2="BackgroundImageFix" result="shape"/>
<feColorMatrix in="SourceAlpha" type="matrix" values="0 0 0 0 0 0 0 0 0 0 0 0 0 0 0 0 0 0 127 0" result="hardAlpha"/>
<feOffset dy="4"/>
<feGaussianBlur stdDeviation="5"/>
<feComposite in2="hardAlpha" operator="arithmetic" k2="-1" k3="1"/>
<feColorMatrix type="matrix" values="0 0 0 0 0.133333 0 0 0 0 0.133333 0 0 0 0 0.858824 0 0 0 0.2 0"/>
<feBlend mode="normal" in2="shape" result="effect1_innerShadow_82_250"/>
</filter>
<filter id="filter3_i_82_250" x="19" y="251" width="461" height="46" filterUnits="userSpaceOnUse" color-interpolation-filters="sRGB">
<feFlood flood-opacity="0" result="BackgroundImageFix"/>
<feBlend mode="normal" in="SourceGraphic" in2="BackgroundImageFix" result="shape"/>
<feColorMatrix in="SourceAlpha" type="matrix" values="0 0 0 0 0 0 0 0 0 0 0 0 0 0 0 0 0 0 127 0" result="hardAlpha"/>
<feOffset dy="4"/>
<feGaussianBlur stdDeviation="5"/>
<feComposite in2="hardAlpha" operator="arithmetic" k2="-1" k3="1"/>
<feColorMatrix type="matrix" values="0 0 0 0 0.133333 0 0 0 0 0.133333 0 0 0 0 0.858824 0 0 0 0.2 0"/>
<feBlend mode="normal" in2="shape" result="effect1_innerShadow_82_250"/>
</filter>
<filter id="filter4_i_82_250" x="19" y="309" width="461" height="46" filterUnits="userSpaceOnUse" color-interpolation-filters="sRGB">
<feFlood flood-opacity="0" result="BackgroundImageFix"/>
<feBlend mode="normal" in="SourceGraphic" in2="BackgroundImageFix" result="shape"/>
<feColorMatrix in="SourceAlpha" type="matrix" values="0 0 0 0 0 0 0 0 0 0 0 0 0 0 0 0 0 0 127 0" result="hardAlpha"/>
<feOffset dy="4"/>
<feGaussianBlur stdDeviation="5"/>
<feComposite in2="hardAlpha" operator="arithmetic" k2="-1" k3="1"/>
<feColorMatrix type="matrix" values="0 0 0 0 0.133333 0 0 0 0 0.133333 0 0 0 0 0.858824 0 0 0 0.2 0"/>
<feBlend mode="normal" in2="shape" result="effect1_innerShadow_82_250"/>
</filter>
<filter id="filter5_i_82_250" x="19" y="367" width="461" height="46" filterUnits="userSpaceOnUse" color-interpolation-filters="sRGB">
<feFlood flood-opacity="0" result="BackgroundImageFix"/>
<feBlend mode="normal" in="SourceGraphic" in2="BackgroundImageFix" result="shape"/>
<feColorMatrix in="SourceAlpha" type="matrix" values="0 0 0 0 0 0 0 0 0 0 0 0 0 0 0 0 0 0 127 0" result="hardAlpha"/>
<feOffset dy="4"/>
<feGaussianBlur stdDeviation="5"/>
<feComposite in2="hardAlpha" operator="arithmetic" k2="-1" k3="1"/>
<feColorMatrix type="matrix" values="0 0 0 0 0.133333 0 0 0 0 0.133333 0 0 0 0 0.858824 0 0 0 0.2 0"/>
<feBlend mode="normal" in2="shape" result="effect1_innerShadow_82_250"/>
</filter>
<filter id="filter6_i_82_250" x="19" y="425" width="461" height="46" filterUnits="userSpaceOnUse" color-interpolation-filters="sRGB">
<feFlood flood-opacity="0" result="BackgroundImageFix"/>
<feBlend mode="normal" in="SourceGraphic" in2="BackgroundImageFix" result="shape"/>
<feColorMatrix in="SourceAlpha" type="matrix" values="0 0 0 0 0 0 0 0 0 0 0 0 0 0 0 0 0 0 127 0" result="hardAlpha"/>
<feOffset dy="4"/>
<feGaussianBlur stdDeviation="5"/>
<feComposite in2="hardAlpha" operator="arithmetic" k2="-1" k3="1"/>
<feColorMatrix type="matrix" values="0 0 0 0 0.133333 0 0 0 0 0.133333 0 0 0 0 0.858824 0 0 0 0.2 0"/>
<feBlend mode="normal" in2="shape" result="effect1_innerShadow_82_250"/>
</filter>
<filter id="filter7_i_82_250" x="19" y="483" width="461" height="46" filterUnits="userSpaceOnUse" color-interpolation-filters="sRGB">
<feFlood flood-opacity="0" result="BackgroundImageFix"/>
<feBlend mode="normal" in="SourceGraphic" in2="BackgroundImageFix" result="shape"/>
<feColorMatrix in="SourceAlpha" type="matrix" values="0 0 0 0 0 0 0 0 0 0 0 0 0 0 0 0 0 0 127 0" result="hardAlpha"/>
<feOffset dy="4"/>
<feGaussianBlur stdDeviation="5"/>
<feComposite in2="hardAlpha" operator="arithmetic" k2="-1" k3="1"/>
<feColorMatrix type="matrix" values="0 0 0 0 0.133333 0 0 0 0 0.133333 0 0 0 0 0.858824 0 0 0 0.2 0"/>
<feBlend mode="normal" in2="shape" result="effect1_innerShadow_82_250"/>
</filter>
<filter id="filter8_i_82_250" x="19" y="541" width="461" height="46" filterUnits="userSpaceOnUse" color-interpolation-filters="sRGB">
<feFlood flood-opacity="0" result="BackgroundImageFix"/>
<feBlend mode="normal" in="SourceGraphic" in2="BackgroundImageFix" result="shape"/>
<feColorMatrix in="SourceAlpha" type="matrix" values="0 0 0 0 0 0 0 0 0 0 0 0 0 0 0 0 0 0 127 0" result="hardAlpha"/>
<feOffset dy="4"/>
<feGaussianBlur stdDeviation="5"/>
<feComposite in2="hardAlpha" operator="arithmetic" k2="-1" k3="1"/>
<feColorMatrix type="matrix" values="0 0 0 0 0.133333 0 0 0 0 0.133333 0 0 0 0 0.858824 0 0 0 0.2 0"/>
<feBlend mode="normal" in2="shape" result="effect1_innerShadow_82_250"/>
</filter>
<filter id="filter9_i_82_250" x="19" y="599" width="461" height="46" filterUnits="userSpaceOnUse" color-interpolation-filters="sRGB">
<feFlood flood-opacity="0" result="BackgroundImageFix"/>
<feBlend mode="normal" in="SourceGraphic" in2="BackgroundImageFix" result="shape"/>
<feColorMatrix in="SourceAlpha" type="matrix" values="0 0 0 0 0 0 0 0 0 0 0 0 0 0 0 0 0 0 127 0" result="hardAlpha"/>
<feOffset dy="4"/>
<feGaussianBlur stdDeviation="5"/>
<feComposite in2="hardAlpha" operator="arithmetic" k2="-1" k3="1"/>
<feColorMatrix type="matrix" values="0 0 0 0 0.133333 0 0 0 0 0.133333 0 0 0 0 0.858824 0 0 0 0.2 0"/>
<feBlend mode="normal" in2="shape" result="effect1_innerShadow_82_250"/>
</filter>
<filter id="filter10_i_82_250" x="19" y="657" width="461" height="46" filterUnits="userSpaceOnUse" color-interpolation-filters="sRGB">
<feFlood flood-opacity="0" result="BackgroundImageFix"/>
<feBlend mode="normal" in="SourceGraphic" in2="BackgroundImageFix" result="shape"/>
<feColorMatrix in="SourceAlpha" type="matrix" values="0 0 0 0 0 0 0 0 0 0 0 0 0 0 0 0 0 0 127 0" result="hardAlpha"/>
<feOffset dy="4"/>
<feGaussianBlur stdDeviation="5"/>
<feComposite in2="hardAlpha" operator="arithmetic" k2="-1" k3="1"/>
<feColorMatrix type="matrix" values="0 0 0 0 0.133333 0 0 0 0 0.133333 0 0 0 0 0.858824 0 0 0 0.2 0"/>
<feBlend mode="normal" in2="shape" result="effect1_innerShadow_82_250"/>
</filter>
<filter id="filter11_i_82_250" x="19" y="715" width="461" height="46" filterUnits="userSpaceOnUse" color-interpolation-filters="sRGB">
<feFlood flood-opacity="0" result="BackgroundImageFix"/>
<feBlend mode="normal" in="SourceGraphic" in2="BackgroundImageFix" result="shape"/>
<feColorMatrix in="SourceAlpha" type="matrix" values="0 0 0 0 0 0 0 0 0 0 0 0 0 0 0 0 0 0 127 0" result="hardAlpha"/>
<feOffset dy="4"/>
<feGaussianBlur stdDeviation="5"/>
<feComposite in2="hardAlpha" operator="arithmetic" k2="-1" k3="1"/>
<feColorMatrix type="matrix" values="0 0 0 0 0.133333 0 0 0 0 0.133333 0 0 0 0 0.858824 0 0 0 0.2 0"/>
<feBlend mode="normal" in2="shape" result="effect1_innerShadow_82_250"/>
</filter>
</defs>
</svg>
