<svg width="306" height="180" viewBox="0 0 306 180" fill="none" xmlns="http://www.w3.org/2000/svg">
<path d="M27.5 23.4375C23.8756 23.4375 20.9375 26.3756 20.9375 30C20.9375 33.6244 23.8756 36.5625 27.5 36.5625C31.1244 36.5625 34.0625 33.6244 34.0625 30C34.0625 26.3756 31.1244 23.4375 27.5 23.4375ZM20 30C20 25.8579 23.3579 22.5 27.5 22.5C31.6422 22.5 35 25.8579 35 30C35 34.1422 31.6422 37.5 27.5 37.5C23.3579 37.5 20 34.1422 20 30Z" fill="#212121"/>
<path d="M51.415 27.035L52.99 35.48L54.355 35.615C54.355 35.885 54.27 36.18 54.1 36.5H50.65L50.605 35.975C50.905 35.845 51.275 35.74 51.715 35.66L50.11 27.245L48.13 35.78H46.645L43.915 27.215L42.7 35.48L43.975 35.6C43.975 35.88 43.89 36.18 43.72 36.5H40.27L40.225 35.975C40.665 35.815 41.105 35.695 41.545 35.615L42.865 26.915C42.255 26.825 41.77 26.72 41.41 26.6L41.47 26H44.965L47.35 34.22H47.41L49.27 26H52.615C52.785 26.32 52.87 26.63 52.87 26.93C52.22 27 51.735 27.035 51.415 27.035ZM59.7202 29.96C59.6702 29.91 59.5602 29.885 59.3902 29.885C59.2202 29.885 58.9652 29.945 58.6252 30.065C58.2952 30.185 57.9952 30.325 57.7252 30.485C57.6652 32.705 57.6252 34.37 57.6052 35.48L58.8652 35.6C58.8652 35.88 58.7802 36.18 58.6102 36.5H55.1602L55.1152 35.975C55.5752 35.815 56.0252 35.695 56.4652 35.615C56.4052 33.075 56.3552 31.195 56.3152 29.975C55.7652 29.945 55.3252 29.885 54.9952 29.795L55.0552 29.015C55.5852 28.865 56.3702 28.79 57.4102 28.79C57.5702 29.04 57.6702 29.36 57.7102 29.75C58.8602 29.05 59.5452 28.7 59.7652 28.7C59.9852 28.7 60.2402 28.745 60.5302 28.835C60.8202 28.915 61.0352 29.005 61.1752 29.105C61.1752 30.105 61.0802 30.92 60.8902 31.55C60.7502 31.59 60.5852 31.61 60.3952 31.61C60.2152 31.61 60.0902 31.605 60.0202 31.595L59.7202 29.96ZM63.0985 35.54C63.4485 35.69 63.8735 35.765 64.3735 35.765C64.8835 35.765 65.2835 35.67 65.5735 35.48C65.8635 35.29 66.0085 35.03 66.0085 34.7C66.0085 34.37 65.8735 34.095 65.6035 33.875C65.3335 33.655 65.0035 33.46 64.6135 33.29C64.2235 33.12 63.8335 32.94 63.4435 32.75C63.0535 32.56 62.7235 32.31 62.4535 32C62.1835 31.69 62.0485 31.33 62.0485 30.92C62.0485 30.23 62.2785 29.69 62.7385 29.3C63.1985 28.9 63.8335 28.7 64.6435 28.7C65.4635 28.7 66.2335 28.885 66.9535 29.255C66.9635 29.355 66.9685 29.625 66.9685 30.065C66.9685 30.495 66.9235 30.865 66.8335 31.175C66.5935 31.255 66.3085 31.295 65.9785 31.295L65.4835 29.765C65.2635 29.655 64.9635 29.6 64.5835 29.6C64.2135 29.6 63.9185 29.7 63.6985 29.9C63.4785 30.09 63.3685 30.335 63.3685 30.635C63.3685 30.925 63.5035 31.18 63.7735 31.4C64.0535 31.62 64.3885 31.82 64.7785 32C65.1685 32.17 65.5585 32.355 65.9485 32.555C66.3385 32.745 66.6685 33 66.9385 33.32C67.2185 33.63 67.3585 33.99 67.3585 34.4C67.3585 35.12 67.0785 35.685 66.5185 36.095C65.9685 36.495 65.2885 36.695 64.4785 36.695C64.0385 36.695 63.5685 36.625 63.0685 36.485C62.5685 36.335 62.1485 36.145 61.8085 35.915C61.8085 35.245 61.8685 34.65 61.9885 34.13C62.2185 34.09 62.5285 34.07 62.9185 34.07L63.0985 35.54ZM70.4357 36.455C70.1757 36.515 69.9207 36.545 69.6707 36.545C69.4307 36.545 69.1907 36.53 68.9507 36.5C68.8907 36.22 68.8607 35.94 68.8607 35.66C68.8607 35.37 68.8707 35.155 68.8907 35.015C69.1107 34.965 69.3407 34.94 69.5807 34.94C69.8307 34.94 70.0957 34.95 70.3757 34.97C70.4357 35.23 70.4657 35.485 70.4657 35.735C70.4657 35.975 70.4557 36.215 70.4357 36.455Z" fill="#656161"/>
<path d="M117.5 23.4375C113.876 23.4375 110.938 26.3756 110.938 30C110.938 33.6244 113.876 36.5625 117.5 36.5625C121.124 36.5625 124.062 33.6244 124.062 30C124.062 26.3756 121.124 23.4375 117.5 23.4375ZM110 30C110 25.8579 113.358 22.5 117.5 22.5C121.642 22.5 125 25.8579 125 30C125 34.1422 121.642 37.5 117.5 37.5C113.358 37.5 110 34.1422 110 30Z" fill="#212121"/>
<path d="M141.415 27.035L142.99 35.48L144.355 35.615C144.355 35.885 144.27 36.18 144.1 36.5H140.65L140.605 35.975C140.905 35.845 141.275 35.74 141.715 35.66L140.11 27.245L138.13 35.78H136.645L133.915 27.215L132.7 35.48L133.975 35.6C133.975 35.88 133.89 36.18 133.72 36.5H130.27L130.225 35.975C130.665 35.815 131.105 35.695 131.545 35.615L132.865 26.915C132.255 26.825 131.77 26.72 131.41 26.6L131.47 26H134.965L137.35 34.22H137.41L139.27 26H142.615C142.785 26.32 142.87 26.63 142.87 26.93C142.22 27 141.735 27.035 141.415 27.035ZM149.72 29.96C149.67 29.91 149.56 29.885 149.39 29.885C149.22 29.885 148.965 29.945 148.625 30.065C148.295 30.185 147.995 30.325 147.725 30.485C147.665 32.705 147.625 34.37 147.605 35.48L148.865 35.6C148.865 35.88 148.78 36.18 148.61 36.5H145.16L145.115 35.975C145.575 35.815 146.025 35.695 146.465 35.615C146.405 33.075 146.355 31.195 146.315 29.975C145.765 29.945 145.325 29.885 144.995 29.795L145.055 29.015C145.585 28.865 146.37 28.79 147.41 28.79C147.57 29.04 147.67 29.36 147.71 29.75C148.86 29.05 149.545 28.7 149.765 28.7C149.985 28.7 150.24 28.745 150.53 28.835C150.82 28.915 151.035 29.005 151.175 29.105C151.175 30.105 151.08 30.92 150.89 31.55C150.75 31.59 150.585 31.61 150.395 31.61C150.215 31.61 150.09 31.605 150.02 31.595L149.72 29.96ZM153.653 36.455C153.393 36.515 153.138 36.545 152.888 36.545C152.648 36.545 152.408 36.53 152.168 36.5C152.108 36.22 152.078 35.94 152.078 35.66C152.078 35.37 152.088 35.155 152.108 35.015C152.328 34.965 152.558 34.94 152.798 34.94C153.048 34.94 153.313 34.95 153.593 34.97C153.653 35.23 153.683 35.485 153.683 35.735C153.683 35.975 153.673 36.215 153.653 36.455Z" fill="#656161"/>
<path d="M207.5 23.4375C203.876 23.4375 200.938 26.3756 200.938 30C200.938 33.6244 203.876 36.5625 207.5 36.5625C211.124 36.5625 214.062 33.6244 214.062 30C214.062 26.3756 211.124 23.4375 207.5 23.4375ZM200 30C200 25.8579 203.358 22.5 207.5 22.5C211.642 22.5 215 25.8579 215 30C215 34.1422 211.642 37.5 207.5 37.5C203.358 37.5 200 34.1422 200 30Z" fill="#212121"/>
<path d="M224.71 35.195C221.77 35.195 220.3 33.35 220.3 29.66C220.3 27.91 220.655 26.58 221.365 25.67C222.085 24.76 223.23 24.305 224.8 24.305C226.06 24.305 227.18 24.655 228.16 25.355C228.16 25.915 228.09 26.625 227.95 27.485C227.81 27.515 227.52 27.53 227.08 27.53L226.63 25.67C225.92 25.54 225.35 25.475 224.92 25.475C224.13 25.475 223.435 25.585 222.835 25.805L222.55 25.91C222.49 26.01 222.415 26.16 222.325 26.36C222.235 26.55 222.115 26.955 221.965 27.575C221.825 28.195 221.755 28.83 221.755 29.48C221.755 30.89 221.985 32.01 222.445 32.84C222.915 33.67 223.66 34.085 224.68 34.085C225.41 34.085 225.96 34.01 226.33 33.86C226.43 33.81 226.575 33.735 226.765 33.635L227.08 31.835L227.95 31.88C228.1 32.91 228.175 33.745 228.175 34.385C227.965 34.545 227.51 34.72 226.81 34.91C226.12 35.1 225.42 35.195 224.71 35.195ZM232.867 34.28C233.707 34.28 234.272 34.02 234.562 33.5C234.862 32.97 235.012 32.22 235.012 31.25C235.012 29.71 234.672 28.745 233.992 28.355C233.712 28.195 233.317 28.115 232.807 28.115C232.307 28.115 231.832 28.22 231.382 28.43C230.982 29.2 230.782 30.095 230.782 31.115C230.782 32.095 230.912 32.85 231.172 33.38C231.472 33.98 232.037 34.28 232.867 34.28ZM229.402 31.25C229.402 29.98 229.692 28.99 230.272 28.28C230.852 27.56 231.747 27.2 232.957 27.2C234.167 27.2 235.042 27.53 235.582 28.19C236.122 28.84 236.392 29.805 236.392 31.085C236.392 32.365 236.102 33.37 235.522 34.1C234.952 34.83 234.082 35.195 232.912 35.195C231.742 35.195 230.862 34.855 230.272 34.175C229.692 33.495 229.402 32.52 229.402 31.25ZM244.749 28.88C244.789 29.2 244.809 29.57 244.809 29.99C244.809 30.41 244.769 31.74 244.689 33.98L245.949 34.1C245.949 34.38 245.864 34.68 245.694 35H242.244L242.199 34.475C242.659 34.315 243.109 34.195 243.549 34.115C243.489 31.455 243.434 29.975 243.384 29.675C243.344 29.375 243.274 29.125 243.174 28.925C243.074 28.715 242.919 28.57 242.709 28.49C242.499 28.41 242.179 28.37 241.749 28.37C241.329 28.37 240.774 28.53 240.084 28.85C240.024 31.13 239.984 32.84 239.964 33.98L241.224 34.1C241.224 34.38 241.139 34.68 240.969 35H237.519L237.474 34.475C237.934 34.315 238.384 34.195 238.824 34.115C238.814 33.395 238.789 32.38 238.749 31.07C238.709 29.75 238.684 28.885 238.674 28.475C238.124 28.445 237.684 28.385 237.354 28.295L237.414 27.515C237.954 27.365 238.739 27.29 239.769 27.29C239.909 27.54 239.999 27.8 240.039 28.07C240.479 27.84 240.914 27.64 241.344 27.47C241.774 27.29 242.044 27.2 242.154 27.2C243.264 27.2 244.039 27.54 244.479 28.22C244.939 27.97 245.414 27.74 245.904 27.53C246.404 27.31 246.704 27.2 246.804 27.2C247.714 27.2 248.394 27.425 248.844 27.875C249.304 28.315 249.534 29.04 249.534 30.05C249.534 30.35 249.494 31.66 249.414 33.98L250.674 34.1C250.674 34.38 250.589 34.68 250.419 35H246.969L246.924 34.475C247.384 34.315 247.834 34.195 248.274 34.115C248.234 32.535 248.199 31.34 248.169 30.53C248.139 29.72 248.024 29.16 247.824 28.85C247.624 28.53 247.224 28.37 246.624 28.37C246.024 28.37 245.399 28.54 244.749 28.88ZM253.715 34.235L253.64 37.445L254.945 37.55C254.945 37.83 254.86 38.13 254.69 38.45H251.21L251.165 37.925C251.625 37.775 252.075 37.66 252.515 37.58C252.455 33.5 252.405 30.465 252.365 28.475C251.915 28.465 251.475 28.405 251.045 28.295L251.105 27.515C251.685 27.365 252.495 27.29 253.535 27.29C253.625 27.45 253.71 27.745 253.79 28.175C255.07 27.525 255.88 27.2 256.22 27.2C257.15 27.2 257.84 27.565 258.29 28.295C258.74 29.015 258.965 29.955 258.965 31.115C258.965 32.265 258.71 33.23 258.2 34.01C257.7 34.79 256.97 35.18 256.01 35.18C255.65 35.18 255.255 35.09 254.825 34.91C254.405 34.73 254.035 34.505 253.715 34.235ZM255.95 28.325C255.33 28.325 254.61 28.545 253.79 28.985C253.77 30.845 253.75 32.24 253.73 33.17C253.98 33.42 254.31 33.65 254.72 33.86C255.14 34.06 255.505 34.16 255.815 34.16C256.995 34.16 257.585 33.19 257.585 31.25C257.585 30.51 257.5 29.93 257.33 29.51C257.16 29.08 256.965 28.775 256.745 28.595C256.525 28.415 256.26 28.325 255.95 28.325ZM266.077 30.095L266.002 33.965C266.432 33.995 266.862 34.065 267.292 34.175L267.262 34.7C267.102 34.78 266.812 34.87 266.392 34.97C265.982 35.06 265.577 35.105 265.177 35.105C264.997 34.745 264.897 34.4 264.877 34.07C263.737 34.82 262.937 35.195 262.477 35.195C261.767 35.195 261.197 35.005 260.767 34.625C260.337 34.245 260.122 33.715 260.122 33.035C260.122 31.465 261.082 30.655 263.002 30.605C264.122 30.575 264.687 30.56 264.697 30.56L264.682 30.05C264.662 29.36 264.532 28.865 264.292 28.565C264.052 28.255 263.622 28.1 263.002 28.1C262.742 28.1 262.462 28.16 262.162 28.28L261.802 29.78C261.752 29.79 261.667 29.795 261.547 29.795L260.932 29.75C260.772 29.32 260.687 28.725 260.677 27.965C260.867 27.865 261.302 27.715 261.982 27.515C262.662 27.305 263.097 27.2 263.287 27.2C264.307 27.2 265.027 27.425 265.447 27.875C265.867 28.325 266.077 29.065 266.077 30.095ZM262.807 34.175C263.097 34.175 263.767 33.85 264.817 33.2L264.742 31.325C264.062 31.385 263.492 31.44 263.032 31.49C262.572 31.54 262.202 31.675 261.922 31.895C261.642 32.105 261.502 32.44 261.502 32.9C261.502 33.75 261.937 34.175 262.807 34.175ZM272.813 27.2C273.773 27.2 274.468 27.44 274.898 27.92C275.328 28.39 275.543 29.11 275.543 30.08C275.543 30.36 275.503 31.66 275.423 33.98L276.683 34.1C276.683 34.38 276.598 34.68 276.428 35H272.978L272.933 34.475C273.393 34.315 273.843 34.195 274.283 34.115C274.223 31.495 274.168 30.04 274.118 29.75C274.078 29.45 274.008 29.19 273.908 28.97C273.808 28.75 273.658 28.595 273.458 28.505C273.258 28.415 272.993 28.37 272.663 28.37C272.003 28.37 271.363 28.53 270.743 28.85C270.683 31.13 270.643 32.84 270.623 33.98L271.883 34.1C271.883 34.38 271.798 34.68 271.628 35H268.178L268.133 34.475C268.593 34.315 269.043 34.195 269.483 34.115C269.423 31.575 269.373 29.695 269.333 28.475C268.783 28.445 268.343 28.385 268.013 28.295L268.073 27.515C268.613 27.365 269.398 27.29 270.428 27.29C270.548 27.47 270.638 27.73 270.698 28.07C271.128 27.84 271.558 27.64 271.988 27.47C272.428 27.29 272.703 27.2 272.813 27.2ZM278.936 37.79C279.316 37.79 279.686 37.425 280.046 36.695C280.416 35.965 280.626 35.4 280.676 35H280.316L277.946 28.4L276.686 28.28C276.686 28 276.771 27.7 276.941 27.38H280.391L280.436 27.905C280.116 28.045 279.761 28.155 279.371 28.235L280.676 32.33L281.021 33.65H281.171L282.971 28.235L281.711 27.905L281.756 27.38H285.131C285.301 27.7 285.386 28 285.386 28.28C284.976 28.33 284.566 28.365 284.156 28.385C283.896 29.145 283.506 30.28 282.986 31.79C282.476 33.3 282.071 34.47 281.771 35.3C281.481 36.13 281.191 36.805 280.901 37.325C280.611 37.845 280.321 38.19 280.031 38.36C279.751 38.54 279.436 38.63 279.086 38.63C278.466 38.63 277.886 38.51 277.346 38.27L277.076 38.135C277.146 36.995 277.191 36.37 277.211 36.26C277.291 36.23 277.581 36.215 278.081 36.215L278.591 37.745C278.681 37.775 278.796 37.79 278.936 37.79Z" fill="#656161"/>
<path d="M27.5 74.6875C30.0888 74.6875 32.1875 72.5888 32.1875 70C32.1875 67.4112 30.0888 65.3125 27.5 65.3125C24.9112 65.3125 22.8125 67.4112 22.8125 70C22.8125 72.5888 24.9112 74.6875 27.5 74.6875Z" fill="#0000FF"/>
<path d="M27.5 62.5C23.3579 62.5 20 65.8579 20 70C20 74.1422 23.3579 77.5 27.5 77.5C31.6422 77.5 35 74.1422 35 70C35 65.8579 31.6422 62.5 27.5 62.5ZM20.9375 70C20.9375 66.3756 23.8756 63.4375 27.5 63.4375C31.1244 63.4375 34.0625 66.3756 34.0625 70C34.0625 73.6244 31.1244 76.5625 27.5 76.5625C23.8756 76.5625 20.9375 73.6244 20.9375 70Z" fill="#0000FF"/>
<path d="M51.415 67.035L52.99 75.48L54.355 75.615C54.355 75.885 54.27 76.18 54.1 76.5H50.65L50.605 75.975C50.905 75.845 51.275 75.74 51.715 75.66L50.11 67.245L48.13 75.78H46.645L43.915 67.215L42.7 75.48L43.975 75.6C43.975 75.88 43.89 76.18 43.72 76.5H40.27L40.225 75.975C40.665 75.815 41.105 75.695 41.545 75.615L42.865 66.915C42.255 66.825 41.77 66.72 41.41 66.6L41.47 66H44.965L47.35 74.22H47.41L49.27 66H52.615C52.785 66.32 52.87 66.63 52.87 66.93C52.22 67 51.735 67.035 51.415 67.035ZM59.7202 69.96C59.6702 69.91 59.5602 69.885 59.3902 69.885C59.2202 69.885 58.9652 69.945 58.6252 70.065C58.2952 70.185 57.9952 70.325 57.7252 70.485C57.6652 72.705 57.6252 74.37 57.6052 75.48L58.8652 75.6C58.8652 75.88 58.7802 76.18 58.6102 76.5H55.1602L55.1152 75.975C55.5752 75.815 56.0252 75.695 56.4652 75.615C56.4052 73.075 56.3552 71.195 56.3152 69.975C55.7652 69.945 55.3252 69.885 54.9952 69.795L55.0552 69.015C55.5852 68.865 56.3702 68.79 57.4102 68.79C57.5702 69.04 57.6702 69.36 57.7102 69.75C58.8602 69.05 59.5452 68.7 59.7652 68.7C59.9852 68.7 60.2402 68.745 60.5302 68.835C60.8202 68.915 61.0352 69.005 61.1752 69.105C61.1752 70.105 61.0802 70.92 60.8902 71.55C60.7502 71.59 60.5852 71.61 60.3952 71.61C60.2152 71.61 60.0902 71.605 60.0202 71.595L59.7202 69.96ZM63.0985 75.54C63.4485 75.69 63.8735 75.765 64.3735 75.765C64.8835 75.765 65.2835 75.67 65.5735 75.48C65.8635 75.29 66.0085 75.03 66.0085 74.7C66.0085 74.37 65.8735 74.095 65.6035 73.875C65.3335 73.655 65.0035 73.46 64.6135 73.29C64.2235 73.12 63.8335 72.94 63.4435 72.75C63.0535 72.56 62.7235 72.31 62.4535 72C62.1835 71.69 62.0485 71.33 62.0485 70.92C62.0485 70.23 62.2785 69.69 62.7385 69.3C63.1985 68.9 63.8335 68.7 64.6435 68.7C65.4635 68.7 66.2335 68.885 66.9535 69.255C66.9635 69.355 66.9685 69.625 66.9685 70.065C66.9685 70.495 66.9235 70.865 66.8335 71.175C66.5935 71.255 66.3085 71.295 65.9785 71.295L65.4835 69.765C65.2635 69.655 64.9635 69.6 64.5835 69.6C64.2135 69.6 63.9185 69.7 63.6985 69.9C63.4785 70.09 63.3685 70.335 63.3685 70.635C63.3685 70.925 63.5035 71.18 63.7735 71.4C64.0535 71.62 64.3885 71.82 64.7785 72C65.1685 72.17 65.5585 72.355 65.9485 72.555C66.3385 72.745 66.6685 73 66.9385 73.32C67.2185 73.63 67.3585 73.99 67.3585 74.4C67.3585 75.12 67.0785 75.685 66.5185 76.095C65.9685 76.495 65.2885 76.695 64.4785 76.695C64.0385 76.695 63.5685 76.625 63.0685 76.485C62.5685 76.335 62.1485 76.145 61.8085 75.915C61.8085 75.245 61.8685 74.65 61.9885 74.13C62.2185 74.09 62.5285 74.07 62.9185 74.07L63.0985 75.54ZM70.4357 76.455C70.1757 76.515 69.9207 76.545 69.6707 76.545C69.4307 76.545 69.1907 76.53 68.9507 76.5C68.8907 76.22 68.8607 75.94 68.8607 75.66C68.8607 75.37 68.8707 75.155 68.8907 75.015C69.1107 74.965 69.3407 74.94 69.5807 74.94C69.8307 74.94 70.0957 74.95 70.3757 74.97C70.4357 75.23 70.4657 75.485 70.4657 75.735C70.4657 75.975 70.4557 76.215 70.4357 76.455Z" fill="#656161"/>
<path d="M117.5 63.4375C113.876 63.4375 110.938 66.3756 110.938 70C110.938 73.6244 113.876 76.5625 117.5 76.5625C121.124 76.5625 124.062 73.6244 124.062 70C124.062 66.3756 121.124 63.4375 117.5 63.4375ZM110 70C110 65.8579 113.358 62.5 117.5 62.5C121.642 62.5 125 65.8579 125 70C125 74.1422 121.642 77.5 117.5 77.5C113.358 77.5 110 74.1422 110 70Z" fill="#212121"/>
<path d="M141.415 67.035L142.99 75.48L144.355 75.615C144.355 75.885 144.27 76.18 144.1 76.5H140.65L140.605 75.975C140.905 75.845 141.275 75.74 141.715 75.66L140.11 67.245L138.13 75.78H136.645L133.915 67.215L132.7 75.48L133.975 75.6C133.975 75.88 133.89 76.18 133.72 76.5H130.27L130.225 75.975C130.665 75.815 131.105 75.695 131.545 75.615L132.865 66.915C132.255 66.825 131.77 66.72 131.41 66.6L131.47 66H134.965L137.35 74.22H137.41L139.27 66H142.615C142.785 66.32 142.87 66.63 142.87 66.93C142.22 67 141.735 67.035 141.415 67.035ZM149.72 69.96C149.67 69.91 149.56 69.885 149.39 69.885C149.22 69.885 148.965 69.945 148.625 70.065C148.295 70.185 147.995 70.325 147.725 70.485C147.665 72.705 147.625 74.37 147.605 75.48L148.865 75.6C148.865 75.88 148.78 76.18 148.61 76.5H145.16L145.115 75.975C145.575 75.815 146.025 75.695 146.465 75.615C146.405 73.075 146.355 71.195 146.315 69.975C145.765 69.945 145.325 69.885 144.995 69.795L145.055 69.015C145.585 68.865 146.37 68.79 147.41 68.79C147.57 69.04 147.67 69.36 147.71 69.75C148.86 69.05 149.545 68.7 149.765 68.7C149.985 68.7 150.24 68.745 150.53 68.835C150.82 68.915 151.035 69.005 151.175 69.105C151.175 70.105 151.08 70.92 150.89 71.55C150.75 71.59 150.585 71.61 150.395 71.61C150.215 71.61 150.09 71.605 150.02 71.595L149.72 69.96ZM153.653 76.455C153.393 76.515 153.138 76.545 152.888 76.545C152.648 76.545 152.408 76.53 152.168 76.5C152.108 76.22 152.078 75.94 152.078 75.66C152.078 75.37 152.088 75.155 152.108 75.015C152.328 74.965 152.558 74.94 152.798 74.94C153.048 74.94 153.313 74.95 153.593 74.97C153.653 75.23 153.683 75.485 153.683 75.735C153.683 75.975 153.673 76.215 153.653 76.455Z" fill="#656161"/>
<path d="M207.5 63.4375C203.876 63.4375 200.938 66.3756 200.938 70C200.938 73.6244 203.876 76.5625 207.5 76.5625C211.124 76.5625 214.062 73.6244 214.062 70C214.062 66.3756 211.124 63.4375 207.5 63.4375ZM200 70C200 65.8579 203.358 62.5 207.5 62.5C211.642 62.5 215 65.8579 215 70C215 74.1422 211.642 77.5 207.5 77.5C203.358 77.5 200 74.1422 200 70Z" fill="#212121"/>
<path d="M224.71 75.195C221.77 75.195 220.3 73.35 220.3 69.66C220.3 67.91 220.655 66.58 221.365 65.67C222.085 64.76 223.23 64.305 224.8 64.305C226.06 64.305 227.18 64.655 228.16 65.355C228.16 65.915 228.09 66.625 227.95 67.485C227.81 67.515 227.52 67.53 227.08 67.53L226.63 65.67C225.92 65.54 225.35 65.475 224.92 65.475C224.13 65.475 223.435 65.585 222.835 65.805L222.55 65.91C222.49 66.01 222.415 66.16 222.325 66.36C222.235 66.55 222.115 66.955 221.965 67.575C221.825 68.195 221.755 68.83 221.755 69.48C221.755 70.89 221.985 72.01 222.445 72.84C222.915 73.67 223.66 74.085 224.68 74.085C225.41 74.085 225.96 74.01 226.33 73.86C226.43 73.81 226.575 73.735 226.765 73.635L227.08 71.835L227.95 71.88C228.1 72.91 228.175 73.745 228.175 74.385C227.965 74.545 227.51 74.72 226.81 74.91C226.12 75.1 225.42 75.195 224.71 75.195ZM232.867 74.28C233.707 74.28 234.272 74.02 234.562 73.5C234.862 72.97 235.012 72.22 235.012 71.25C235.012 69.71 234.672 68.745 233.992 68.355C233.712 68.195 233.317 68.115 232.807 68.115C232.307 68.115 231.832 68.22 231.382 68.43C230.982 69.2 230.782 70.095 230.782 71.115C230.782 72.095 230.912 72.85 231.172 73.38C231.472 73.98 232.037 74.28 232.867 74.28ZM229.402 71.25C229.402 69.98 229.692 68.99 230.272 68.28C230.852 67.56 231.747 67.2 232.957 67.2C234.167 67.2 235.042 67.53 235.582 68.19C236.122 68.84 236.392 69.805 236.392 71.085C236.392 72.365 236.102 73.37 235.522 74.1C234.952 74.83 234.082 75.195 232.912 75.195C231.742 75.195 230.862 74.855 230.272 74.175C229.692 73.495 229.402 72.52 229.402 71.25ZM244.749 68.88C244.789 69.2 244.809 69.57 244.809 69.99C244.809 70.41 244.769 71.74 244.689 73.98L245.949 74.1C245.949 74.38 245.864 74.68 245.694 75H242.244L242.199 74.475C242.659 74.315 243.109 74.195 243.549 74.115C243.489 71.455 243.434 69.975 243.384 69.675C243.344 69.375 243.274 69.125 243.174 68.925C243.074 68.715 242.919 68.57 242.709 68.49C242.499 68.41 242.179 68.37 241.749 68.37C241.329 68.37 240.774 68.53 240.084 68.85C240.024 71.13 239.984 72.84 239.964 73.98L241.224 74.1C241.224 74.38 241.139 74.68 240.969 75H237.519L237.474 74.475C237.934 74.315 238.384 74.195 238.824 74.115C238.814 73.395 238.789 72.38 238.749 71.07C238.709 69.75 238.684 68.885 238.674 68.475C238.124 68.445 237.684 68.385 237.354 68.295L237.414 67.515C237.954 67.365 238.739 67.29 239.769 67.29C239.909 67.54 239.999 67.8 240.039 68.07C240.479 67.84 240.914 67.64 241.344 67.47C241.774 67.29 242.044 67.2 242.154 67.2C243.264 67.2 244.039 67.54 244.479 68.22C244.939 67.97 245.414 67.74 245.904 67.53C246.404 67.31 246.704 67.2 246.804 67.2C247.714 67.2 248.394 67.425 248.844 67.875C249.304 68.315 249.534 69.04 249.534 70.05C249.534 70.35 249.494 71.66 249.414 73.98L250.674 74.1C250.674 74.38 250.589 74.68 250.419 75H246.969L246.924 74.475C247.384 74.315 247.834 74.195 248.274 74.115C248.234 72.535 248.199 71.34 248.169 70.53C248.139 69.72 248.024 69.16 247.824 68.85C247.624 68.53 247.224 68.37 246.624 68.37C246.024 68.37 245.399 68.54 244.749 68.88ZM253.715 74.235L253.64 77.445L254.945 77.55C254.945 77.83 254.86 78.13 254.69 78.45H251.21L251.165 77.925C251.625 77.775 252.075 77.66 252.515 77.58C252.455 73.5 252.405 70.465 252.365 68.475C251.915 68.465 251.475 68.405 251.045 68.295L251.105 67.515C251.685 67.365 252.495 67.29 253.535 67.29C253.625 67.45 253.71 67.745 253.79 68.175C255.07 67.525 255.88 67.2 256.22 67.2C257.15 67.2 257.84 67.565 258.29 68.295C258.74 69.015 258.965 69.955 258.965 71.115C258.965 72.265 258.71 73.23 258.2 74.01C257.7 74.79 256.97 75.18 256.01 75.18C255.65 75.18 255.255 75.09 254.825 74.91C254.405 74.73 254.035 74.505 253.715 74.235ZM255.95 68.325C255.33 68.325 254.61 68.545 253.79 68.985C253.77 70.845 253.75 72.24 253.73 73.17C253.98 73.42 254.31 73.65 254.72 73.86C255.14 74.06 255.505 74.16 255.815 74.16C256.995 74.16 257.585 73.19 257.585 71.25C257.585 70.51 257.5 69.93 257.33 69.51C257.16 69.08 256.965 68.775 256.745 68.595C256.525 68.415 256.26 68.325 255.95 68.325ZM266.077 70.095L266.002 73.965C266.432 73.995 266.862 74.065 267.292 74.175L267.262 74.7C267.102 74.78 266.812 74.87 266.392 74.97C265.982 75.06 265.577 75.105 265.177 75.105C264.997 74.745 264.897 74.4 264.877 74.07C263.737 74.82 262.937 75.195 262.477 75.195C261.767 75.195 261.197 75.005 260.767 74.625C260.337 74.245 260.122 73.715 260.122 73.035C260.122 71.465 261.082 70.655 263.002 70.605C264.122 70.575 264.687 70.56 264.697 70.56L264.682 70.05C264.662 69.36 264.532 68.865 264.292 68.565C264.052 68.255 263.622 68.1 263.002 68.1C262.742 68.1 262.462 68.16 262.162 68.28L261.802 69.78C261.752 69.79 261.667 69.795 261.547 69.795L260.932 69.75C260.772 69.32 260.687 68.725 260.677 67.965C260.867 67.865 261.302 67.715 261.982 67.515C262.662 67.305 263.097 67.2 263.287 67.2C264.307 67.2 265.027 67.425 265.447 67.875C265.867 68.325 266.077 69.065 266.077 70.095ZM262.807 74.175C263.097 74.175 263.767 73.85 264.817 73.2L264.742 71.325C264.062 71.385 263.492 71.44 263.032 71.49C262.572 71.54 262.202 71.675 261.922 71.895C261.642 72.105 261.502 72.44 261.502 72.9C261.502 73.75 261.937 74.175 262.807 74.175ZM272.813 67.2C273.773 67.2 274.468 67.44 274.898 67.92C275.328 68.39 275.543 69.11 275.543 70.08C275.543 70.36 275.503 71.66 275.423 73.98L276.683 74.1C276.683 74.38 276.598 74.68 276.428 75H272.978L272.933 74.475C273.393 74.315 273.843 74.195 274.283 74.115C274.223 71.495 274.168 70.04 274.118 69.75C274.078 69.45 274.008 69.19 273.908 68.97C273.808 68.75 273.658 68.595 273.458 68.505C273.258 68.415 272.993 68.37 272.663 68.37C272.003 68.37 271.363 68.53 270.743 68.85C270.683 71.13 270.643 72.84 270.623 73.98L271.883 74.1C271.883 74.38 271.798 74.68 271.628 75H268.178L268.133 74.475C268.593 74.315 269.043 74.195 269.483 74.115C269.423 71.575 269.373 69.695 269.333 68.475C268.783 68.445 268.343 68.385 268.013 68.295L268.073 67.515C268.613 67.365 269.398 67.29 270.428 67.29C270.548 67.47 270.638 67.73 270.698 68.07C271.128 67.84 271.558 67.64 271.988 67.47C272.428 67.29 272.703 67.2 272.813 67.2ZM278.936 77.79C279.316 77.79 279.686 77.425 280.046 76.695C280.416 75.965 280.626 75.4 280.676 75H280.316L277.946 68.4L276.686 68.28C276.686 68 276.771 67.7 276.941 67.38H280.391L280.436 67.905C280.116 68.045 279.761 68.155 279.371 68.235L280.676 72.33L281.021 73.65H281.171L282.971 68.235L281.711 67.905L281.756 67.38H285.131C285.301 67.7 285.386 68 285.386 68.28C284.976 68.33 284.566 68.365 284.156 68.385C283.896 69.145 283.506 70.28 282.986 71.79C282.476 73.3 282.071 74.47 281.771 75.3C281.481 76.13 281.191 76.805 280.901 77.325C280.611 77.845 280.321 78.19 280.031 78.36C279.751 78.54 279.436 78.63 279.086 78.63C278.466 78.63 277.886 78.51 277.346 78.27L277.076 78.135C277.146 76.995 277.191 76.37 277.211 76.26C277.291 76.23 277.581 76.215 278.081 76.215L278.591 77.745C278.681 77.775 278.796 77.79 278.936 77.79Z" fill="#656161"/>
<path d="M27.5 103.438C23.8756 103.438 20.9375 106.376 20.9375 110C20.9375 113.624 23.8756 116.562 27.5 116.562C31.1244 116.562 34.0625 113.624 34.0625 110C34.0625 106.376 31.1244 103.438 27.5 103.438ZM20 110C20 105.858 23.3579 102.5 27.5 102.5C31.6422 102.5 35 105.858 35 110C35 114.142 31.6422 117.5 27.5 117.5C23.3579 117.5 20 114.142 20 110Z" fill="#212121"/>
<path d="M51.415 107.035L52.99 115.48L54.355 115.615C54.355 115.885 54.27 116.18 54.1 116.5H50.65L50.605 115.975C50.905 115.845 51.275 115.74 51.715 115.66L50.11 107.245L48.13 115.78H46.645L43.915 107.215L42.7 115.48L43.975 115.6C43.975 115.88 43.89 116.18 43.72 116.5H40.27L40.225 115.975C40.665 115.815 41.105 115.695 41.545 115.615L42.865 106.915C42.255 106.825 41.77 106.72 41.41 106.6L41.47 106H44.965L47.35 114.22H47.41L49.27 106H52.615C52.785 106.32 52.87 106.63 52.87 106.93C52.22 107 51.735 107.035 51.415 107.035ZM59.7202 109.96C59.6702 109.91 59.5602 109.885 59.3902 109.885C59.2202 109.885 58.9652 109.945 58.6252 110.065C58.2952 110.185 57.9952 110.325 57.7252 110.485C57.6652 112.705 57.6252 114.37 57.6052 115.48L58.8652 115.6C58.8652 115.88 58.7802 116.18 58.6102 116.5H55.1602L55.1152 115.975C55.5752 115.815 56.0252 115.695 56.4652 115.615C56.4052 113.075 56.3552 111.195 56.3152 109.975C55.7652 109.945 55.3252 109.885 54.9952 109.795L55.0552 109.015C55.5852 108.865 56.3702 108.79 57.4102 108.79C57.5702 109.04 57.6702 109.36 57.7102 109.75C58.8602 109.05 59.5452 108.7 59.7652 108.7C59.9852 108.7 60.2402 108.745 60.5302 108.835C60.8202 108.915 61.0352 109.005 61.1752 109.105C61.1752 110.105 61.0802 110.92 60.8902 111.55C60.7502 111.59 60.5852 111.61 60.3952 111.61C60.2152 111.61 60.0902 111.605 60.0202 111.595L59.7202 109.96ZM63.0985 115.54C63.4485 115.69 63.8735 115.765 64.3735 115.765C64.8835 115.765 65.2835 115.67 65.5735 115.48C65.8635 115.29 66.0085 115.03 66.0085 114.7C66.0085 114.37 65.8735 114.095 65.6035 113.875C65.3335 113.655 65.0035 113.46 64.6135 113.29C64.2235 113.12 63.8335 112.94 63.4435 112.75C63.0535 112.56 62.7235 112.31 62.4535 112C62.1835 111.69 62.0485 111.33 62.0485 110.92C62.0485 110.23 62.2785 109.69 62.7385 109.3C63.1985 108.9 63.8335 108.7 64.6435 108.7C65.4635 108.7 66.2335 108.885 66.9535 109.255C66.9635 109.355 66.9685 109.625 66.9685 110.065C66.9685 110.495 66.9235 110.865 66.8335 111.175C66.5935 111.255 66.3085 111.295 65.9785 111.295L65.4835 109.765C65.2635 109.655 64.9635 109.6 64.5835 109.6C64.2135 109.6 63.9185 109.7 63.6985 109.9C63.4785 110.09 63.3685 110.335 63.3685 110.635C63.3685 110.925 63.5035 111.18 63.7735 111.4C64.0535 111.62 64.3885 111.82 64.7785 112C65.1685 112.17 65.5585 112.355 65.9485 112.555C66.3385 112.745 66.6685 113 66.9385 113.32C67.2185 113.63 67.3585 113.99 67.3585 114.4C67.3585 115.12 67.0785 115.685 66.5185 116.095C65.9685 116.495 65.2885 116.695 64.4785 116.695C64.0385 116.695 63.5685 116.625 63.0685 116.485C62.5685 116.335 62.1485 116.145 61.8085 115.915C61.8085 115.245 61.8685 114.65 61.9885 114.13C62.2185 114.09 62.5285 114.07 62.9185 114.07L63.0985 115.54ZM70.4357 116.455C70.1757 116.515 69.9207 116.545 69.6707 116.545C69.4307 116.545 69.1907 116.53 68.9507 116.5C68.8907 116.22 68.8607 115.94 68.8607 115.66C68.8607 115.37 68.8707 115.155 68.8907 115.015C69.1107 114.965 69.3407 114.94 69.5807 114.94C69.8307 114.94 70.0957 114.95 70.3757 114.97C70.4357 115.23 70.4657 115.485 70.4657 115.735C70.4657 115.975 70.4557 116.215 70.4357 116.455Z" fill="#656161"/>
<path d="M117.5 114.687C120.089 114.687 122.187 112.589 122.187 110C122.187 107.411 120.089 105.312 117.5 105.312C114.911 105.312 112.812 107.411 112.812 110C112.812 112.589 114.911 114.687 117.5 114.687Z" fill="#0000FF"/>
<path d="M117.5 102.5C113.358 102.5 110 105.858 110 110C110 114.142 113.358 117.5 117.5 117.5C121.642 117.5 125 114.142 125 110C125 105.858 121.642 102.5 117.5 102.5ZM110.938 110C110.938 106.376 113.876 103.438 117.5 103.438C121.124 103.438 124.062 106.376 124.062 110C124.062 113.624 121.124 116.562 117.5 116.562C113.876 116.562 110.938 113.624 110.938 110Z" fill="#0000FF"/>
<path d="M141.415 107.035L142.99 115.48L144.355 115.615C144.355 115.885 144.27 116.18 144.1 116.5H140.65L140.605 115.975C140.905 115.845 141.275 115.74 141.715 115.66L140.11 107.245L138.13 115.78H136.645L133.915 107.215L132.7 115.48L133.975 115.6C133.975 115.88 133.89 116.18 133.72 116.5H130.27L130.225 115.975C130.665 115.815 131.105 115.695 131.545 115.615L132.865 106.915C132.255 106.825 131.77 106.72 131.41 106.6L131.47 106H134.965L137.35 114.22H137.41L139.27 106H142.615C142.785 106.32 142.87 106.63 142.87 106.93C142.22 107 141.735 107.035 141.415 107.035ZM149.72 109.96C149.67 109.91 149.56 109.885 149.39 109.885C149.22 109.885 148.965 109.945 148.625 110.065C148.295 110.185 147.995 110.325 147.725 110.485C147.665 112.705 147.625 114.37 147.605 115.48L148.865 115.6C148.865 115.88 148.78 116.18 148.61 116.5H145.16L145.115 115.975C145.575 115.815 146.025 115.695 146.465 115.615C146.405 113.075 146.355 111.195 146.315 109.975C145.765 109.945 145.325 109.885 144.995 109.795L145.055 109.015C145.585 108.865 146.37 108.79 147.41 108.79C147.57 109.04 147.67 109.36 147.71 109.75C148.86 109.05 149.545 108.7 149.765 108.7C149.985 108.7 150.24 108.745 150.53 108.835C150.82 108.915 151.035 109.005 151.175 109.105C151.175 110.105 151.08 110.92 150.89 111.55C150.75 111.59 150.585 111.61 150.395 111.61C150.215 111.61 150.09 111.605 150.02 111.595L149.72 109.96ZM153.653 116.455C153.393 116.515 153.138 116.545 152.888 116.545C152.648 116.545 152.408 116.53 152.168 116.5C152.108 116.22 152.078 115.94 152.078 115.66C152.078 115.37 152.088 115.155 152.108 115.015C152.328 114.965 152.558 114.94 152.798 114.94C153.048 114.94 153.313 114.95 153.593 114.97C153.653 115.23 153.683 115.485 153.683 115.735C153.683 115.975 153.673 116.215 153.653 116.455Z" fill="#656161"/>
<path d="M207.5 103.438C203.876 103.438 200.938 106.376 200.938 110C200.938 113.624 203.876 116.562 207.5 116.562C211.124 116.562 214.062 113.624 214.062 110C214.062 106.376 211.124 103.438 207.5 103.438ZM200 110C200 105.858 203.358 102.5 207.5 102.5C211.642 102.5 215 105.858 215 110C215 114.142 211.642 117.5 207.5 117.5C203.358 117.5 200 114.142 200 110Z" fill="#212121"/>
<path d="M224.71 115.195C221.77 115.195 220.3 113.35 220.3 109.66C220.3 107.91 220.655 106.58 221.365 105.67C222.085 104.76 223.23 104.305 224.8 104.305C226.06 104.305 227.18 104.655 228.16 105.355C228.16 105.915 228.09 106.625 227.95 107.485C227.81 107.515 227.52 107.53 227.08 107.53L226.63 105.67C225.92 105.54 225.35 105.475 224.92 105.475C224.13 105.475 223.435 105.585 222.835 105.805L222.55 105.91C222.49 106.01 222.415 106.16 222.325 106.36C222.235 106.55 222.115 106.955 221.965 107.575C221.825 108.195 221.755 108.83 221.755 109.48C221.755 110.89 221.985 112.01 222.445 112.84C222.915 113.67 223.66 114.085 224.68 114.085C225.41 114.085 225.96 114.01 226.33 113.86C226.43 113.81 226.575 113.735 226.765 113.635L227.08 111.835L227.95 111.88C228.1 112.91 228.175 113.745 228.175 114.385C227.965 114.545 227.51 114.72 226.81 114.91C226.12 115.1 225.42 115.195 224.71 115.195ZM232.867 114.28C233.707 114.28 234.272 114.02 234.562 113.5C234.862 112.97 235.012 112.22 235.012 111.25C235.012 109.71 234.672 108.745 233.992 108.355C233.712 108.195 233.317 108.115 232.807 108.115C232.307 108.115 231.832 108.22 231.382 108.43C230.982 109.2 230.782 110.095 230.782 111.115C230.782 112.095 230.912 112.85 231.172 113.38C231.472 113.98 232.037 114.28 232.867 114.28ZM229.402 111.25C229.402 109.98 229.692 108.99 230.272 108.28C230.852 107.56 231.747 107.2 232.957 107.2C234.167 107.2 235.042 107.53 235.582 108.19C236.122 108.84 236.392 109.805 236.392 111.085C236.392 112.365 236.102 113.37 235.522 114.1C234.952 114.83 234.082 115.195 232.912 115.195C231.742 115.195 230.862 114.855 230.272 114.175C229.692 113.495 229.402 112.52 229.402 111.25ZM244.749 108.88C244.789 109.2 244.809 109.57 244.809 109.99C244.809 110.41 244.769 111.74 244.689 113.98L245.949 114.1C245.949 114.38 245.864 114.68 245.694 115H242.244L242.199 114.475C242.659 114.315 243.109 114.195 243.549 114.115C243.489 111.455 243.434 109.975 243.384 109.675C243.344 109.375 243.274 109.125 243.174 108.925C243.074 108.715 242.919 108.57 242.709 108.49C242.499 108.41 242.179 108.37 241.749 108.37C241.329 108.37 240.774 108.53 240.084 108.85C240.024 111.13 239.984 112.84 239.964 113.98L241.224 114.1C241.224 114.38 241.139 114.68 240.969 115H237.519L237.474 114.475C237.934 114.315 238.384 114.195 238.824 114.115C238.814 113.395 238.789 112.38 238.749 111.07C238.709 109.75 238.684 108.885 238.674 108.475C238.124 108.445 237.684 108.385 237.354 108.295L237.414 107.515C237.954 107.365 238.739 107.29 239.769 107.29C239.909 107.54 239.999 107.8 240.039 108.07C240.479 107.84 240.914 107.64 241.344 107.47C241.774 107.29 242.044 107.2 242.154 107.2C243.264 107.2 244.039 107.54 244.479 108.22C244.939 107.97 245.414 107.74 245.904 107.53C246.404 107.31 246.704 107.2 246.804 107.2C247.714 107.2 248.394 107.425 248.844 107.875C249.304 108.315 249.534 109.04 249.534 110.05C249.534 110.35 249.494 111.66 249.414 113.98L250.674 114.1C250.674 114.38 250.589 114.68 250.419 115H246.969L246.924 114.475C247.384 114.315 247.834 114.195 248.274 114.115C248.234 112.535 248.199 111.34 248.169 110.53C248.139 109.72 248.024 109.16 247.824 108.85C247.624 108.53 247.224 108.37 246.624 108.37C246.024 108.37 245.399 108.54 244.749 108.88ZM253.715 114.235L253.64 117.445L254.945 117.55C254.945 117.83 254.86 118.13 254.69 118.45H251.21L251.165 117.925C251.625 117.775 252.075 117.66 252.515 117.58C252.455 113.5 252.405 110.465 252.365 108.475C251.915 108.465 251.475 108.405 251.045 108.295L251.105 107.515C251.685 107.365 252.495 107.29 253.535 107.29C253.625 107.45 253.71 107.745 253.79 108.175C255.07 107.525 255.88 107.2 256.22 107.2C257.15 107.2 257.84 107.565 258.29 108.295C258.74 109.015 258.965 109.955 258.965 111.115C258.965 112.265 258.71 113.23 258.2 114.01C257.7 114.79 256.97 115.18 256.01 115.18C255.65 115.18 255.255 115.09 254.825 114.91C254.405 114.73 254.035 114.505 253.715 114.235ZM255.95 108.325C255.33 108.325 254.61 108.545 253.79 108.985C253.77 110.845 253.75 112.24 253.73 113.17C253.98 113.42 254.31 113.65 254.72 113.86C255.14 114.06 255.505 114.16 255.815 114.16C256.995 114.16 257.585 113.19 257.585 111.25C257.585 110.51 257.5 109.93 257.33 109.51C257.16 109.08 256.965 108.775 256.745 108.595C256.525 108.415 256.26 108.325 255.95 108.325ZM266.077 110.095L266.002 113.965C266.432 113.995 266.862 114.065 267.292 114.175L267.262 114.7C267.102 114.78 266.812 114.87 266.392 114.97C265.982 115.06 265.577 115.105 265.177 115.105C264.997 114.745 264.897 114.4 264.877 114.07C263.737 114.82 262.937 115.195 262.477 115.195C261.767 115.195 261.197 115.005 260.767 114.625C260.337 114.245 260.122 113.715 260.122 113.035C260.122 111.465 261.082 110.655 263.002 110.605C264.122 110.575 264.687 110.56 264.697 110.56L264.682 110.05C264.662 109.36 264.532 108.865 264.292 108.565C264.052 108.255 263.622 108.1 263.002 108.1C262.742 108.1 262.462 108.16 262.162 108.28L261.802 109.78C261.752 109.79 261.667 109.795 261.547 109.795L260.932 109.75C260.772 109.32 260.687 108.725 260.677 107.965C260.867 107.865 261.302 107.715 261.982 107.515C262.662 107.305 263.097 107.2 263.287 107.2C264.307 107.2 265.027 107.425 265.447 107.875C265.867 108.325 266.077 109.065 266.077 110.095ZM262.807 114.175C263.097 114.175 263.767 113.85 264.817 113.2L264.742 111.325C264.062 111.385 263.492 111.44 263.032 111.49C262.572 111.54 262.202 111.675 261.922 111.895C261.642 112.105 261.502 112.44 261.502 112.9C261.502 113.75 261.937 114.175 262.807 114.175ZM272.813 107.2C273.773 107.2 274.468 107.44 274.898 107.92C275.328 108.39 275.543 109.11 275.543 110.08C275.543 110.36 275.503 111.66 275.423 113.98L276.683 114.1C276.683 114.38 276.598 114.68 276.428 115H272.978L272.933 114.475C273.393 114.315 273.843 114.195 274.283 114.115C274.223 111.495 274.168 110.04 274.118 109.75C274.078 109.45 274.008 109.19 273.908 108.97C273.808 108.75 273.658 108.595 273.458 108.505C273.258 108.415 272.993 108.37 272.663 108.37C272.003 108.37 271.363 108.53 270.743 108.85C270.683 111.13 270.643 112.84 270.623 113.98L271.883 114.1C271.883 114.38 271.798 114.68 271.628 115H268.178L268.133 114.475C268.593 114.315 269.043 114.195 269.483 114.115C269.423 111.575 269.373 109.695 269.333 108.475C268.783 108.445 268.343 108.385 268.013 108.295L268.073 107.515C268.613 107.365 269.398 107.29 270.428 107.29C270.548 107.47 270.638 107.73 270.698 108.07C271.128 107.84 271.558 107.64 271.988 107.47C272.428 107.29 272.703 107.2 272.813 107.2ZM278.936 117.79C279.316 117.79 279.686 117.425 280.046 116.695C280.416 115.965 280.626 115.4 280.676 115H280.316L277.946 108.4L276.686 108.28C276.686 108 276.771 107.7 276.941 107.38H280.391L280.436 107.905C280.116 108.045 279.761 108.155 279.371 108.235L280.676 112.33L281.021 113.65H281.171L282.971 108.235L281.711 107.905L281.756 107.38H285.131C285.301 107.7 285.386 108 285.386 108.28C284.976 108.33 284.566 108.365 284.156 108.385C283.896 109.145 283.506 110.28 282.986 111.79C282.476 113.3 282.071 114.47 281.771 115.3C281.481 116.13 281.191 116.805 280.901 117.325C280.611 117.845 280.321 118.19 280.031 118.36C279.751 118.54 279.436 118.63 279.086 118.63C278.466 118.63 277.886 118.51 277.346 118.27L277.076 118.135C277.146 116.995 277.191 116.37 277.211 116.26C277.291 116.23 277.581 116.215 278.081 116.215L278.591 117.745C278.681 117.775 278.796 117.79 278.936 117.79Z" fill="#656161"/>
<path d="M27.5 143.438C23.8756 143.438 20.9375 146.376 20.9375 150C20.9375 153.624 23.8756 156.562 27.5 156.562C31.1244 156.562 34.0625 153.624 34.0625 150C34.0625 146.376 31.1244 143.438 27.5 143.438ZM20 150C20 145.858 23.3579 142.5 27.5 142.5C31.6422 142.5 35 145.858 35 150C35 154.142 31.6422 157.5 27.5 157.5C23.3579 157.5 20 154.142 20 150Z" fill="#212121"/>
<path d="M51.415 147.035L52.99 155.48L54.355 155.615C54.355 155.885 54.27 156.18 54.1 156.5H50.65L50.605 155.975C50.905 155.845 51.275 155.74 51.715 155.66L50.11 147.245L48.13 155.78H46.645L43.915 147.215L42.7 155.48L43.975 155.6C43.975 155.88 43.89 156.18 43.72 156.5H40.27L40.225 155.975C40.665 155.815 41.105 155.695 41.545 155.615L42.865 146.915C42.255 146.825 41.77 146.72 41.41 146.6L41.47 146H44.965L47.35 154.22H47.41L49.27 146H52.615C52.785 146.32 52.87 146.63 52.87 146.93C52.22 147 51.735 147.035 51.415 147.035ZM59.7202 149.96C59.6702 149.91 59.5602 149.885 59.3902 149.885C59.2202 149.885 58.9652 149.945 58.6252 150.065C58.2952 150.185 57.9952 150.325 57.7252 150.485C57.6652 152.705 57.6252 154.37 57.6052 155.48L58.8652 155.6C58.8652 155.88 58.7802 156.18 58.6102 156.5H55.1602L55.1152 155.975C55.5752 155.815 56.0252 155.695 56.4652 155.615C56.4052 153.075 56.3552 151.195 56.3152 149.975C55.7652 149.945 55.3252 149.885 54.9952 149.795L55.0552 149.015C55.5852 148.865 56.3702 148.79 57.4102 148.79C57.5702 149.04 57.6702 149.36 57.7102 149.75C58.8602 149.05 59.5452 148.7 59.7652 148.7C59.9852 148.7 60.2402 148.745 60.5302 148.835C60.8202 148.915 61.0352 149.005 61.1752 149.105C61.1752 150.105 61.0802 150.92 60.8902 151.55C60.7502 151.59 60.5852 151.61 60.3952 151.61C60.2152 151.61 60.0902 151.605 60.0202 151.595L59.7202 149.96ZM63.0985 155.54C63.4485 155.69 63.8735 155.765 64.3735 155.765C64.8835 155.765 65.2835 155.67 65.5735 155.48C65.8635 155.29 66.0085 155.03 66.0085 154.7C66.0085 154.37 65.8735 154.095 65.6035 153.875C65.3335 153.655 65.0035 153.46 64.6135 153.29C64.2235 153.12 63.8335 152.94 63.4435 152.75C63.0535 152.56 62.7235 152.31 62.4535 152C62.1835 151.69 62.0485 151.33 62.0485 150.92C62.0485 150.23 62.2785 149.69 62.7385 149.3C63.1985 148.9 63.8335 148.7 64.6435 148.7C65.4635 148.7 66.2335 148.885 66.9535 149.255C66.9635 149.355 66.9685 149.625 66.9685 150.065C66.9685 150.495 66.9235 150.865 66.8335 151.175C66.5935 151.255 66.3085 151.295 65.9785 151.295L65.4835 149.765C65.2635 149.655 64.9635 149.6 64.5835 149.6C64.2135 149.6 63.9185 149.7 63.6985 149.9C63.4785 150.09 63.3685 150.335 63.3685 150.635C63.3685 150.925 63.5035 151.18 63.7735 151.4C64.0535 151.62 64.3885 151.82 64.7785 152C65.1685 152.17 65.5585 152.355 65.9485 152.555C66.3385 152.745 66.6685 153 66.9385 153.32C67.2185 153.63 67.3585 153.99 67.3585 154.4C67.3585 155.12 67.0785 155.685 66.5185 156.095C65.9685 156.495 65.2885 156.695 64.4785 156.695C64.0385 156.695 63.5685 156.625 63.0685 156.485C62.5685 156.335 62.1485 156.145 61.8085 155.915C61.8085 155.245 61.8685 154.65 61.9885 154.13C62.2185 154.09 62.5285 154.07 62.9185 154.07L63.0985 155.54ZM70.4357 156.455C70.1757 156.515 69.9207 156.545 69.6707 156.545C69.4307 156.545 69.1907 156.53 68.9507 156.5C68.8907 156.22 68.8607 155.94 68.8607 155.66C68.8607 155.37 68.8707 155.155 68.8907 155.015C69.1107 154.965 69.3407 154.94 69.5807 154.94C69.8307 154.94 70.0957 154.95 70.3757 154.97C70.4357 155.23 70.4657 155.485 70.4657 155.735C70.4657 155.975 70.4557 156.215 70.4357 156.455Z" fill="#656161"/>
<path d="M117.5 143.438C113.876 143.438 110.938 146.376 110.938 150C110.938 153.624 113.876 156.562 117.5 156.562C121.124 156.562 124.062 153.624 124.062 150C124.062 146.376 121.124 143.438 117.5 143.438ZM110 150C110 145.858 113.358 142.5 117.5 142.5C121.642 142.5 125 145.858 125 150C125 154.142 121.642 157.5 117.5 157.5C113.358 157.5 110 154.142 110 150Z" fill="#212121"/>
<path d="M141.415 147.035L142.99 155.48L144.355 155.615C144.355 155.885 144.27 156.18 144.1 156.5H140.65L140.605 155.975C140.905 155.845 141.275 155.74 141.715 155.66L140.11 147.245L138.13 155.78H136.645L133.915 147.215L132.7 155.48L133.975 155.6C133.975 155.88 133.89 156.18 133.72 156.5H130.27L130.225 155.975C130.665 155.815 131.105 155.695 131.545 155.615L132.865 146.915C132.255 146.825 131.77 146.72 131.41 146.6L131.47 146H134.965L137.35 154.22H137.41L139.27 146H142.615C142.785 146.32 142.87 146.63 142.87 146.93C142.22 147 141.735 147.035 141.415 147.035ZM149.72 149.96C149.67 149.91 149.56 149.885 149.39 149.885C149.22 149.885 148.965 149.945 148.625 150.065C148.295 150.185 147.995 150.325 147.725 150.485C147.665 152.705 147.625 154.37 147.605 155.48L148.865 155.6C148.865 155.88 148.78 156.18 148.61 156.5H145.16L145.115 155.975C145.575 155.815 146.025 155.695 146.465 155.615C146.405 153.075 146.355 151.195 146.315 149.975C145.765 149.945 145.325 149.885 144.995 149.795L145.055 149.015C145.585 148.865 146.37 148.79 147.41 148.79C147.57 149.04 147.67 149.36 147.71 149.75C148.86 149.05 149.545 148.7 149.765 148.7C149.985 148.7 150.24 148.745 150.53 148.835C150.82 148.915 151.035 149.005 151.175 149.105C151.175 150.105 151.08 150.92 150.89 151.55C150.75 151.59 150.585 151.61 150.395 151.61C150.215 151.61 150.09 151.605 150.02 151.595L149.72 149.96ZM153.653 156.455C153.393 156.515 153.138 156.545 152.888 156.545C152.648 156.545 152.408 156.53 152.168 156.5C152.108 156.22 152.078 155.94 152.078 155.66C152.078 155.37 152.088 155.155 152.108 155.015C152.328 154.965 152.558 154.94 152.798 154.94C153.048 154.94 153.313 154.95 153.593 154.97C153.653 155.23 153.683 155.485 153.683 155.735C153.683 155.975 153.673 156.215 153.653 156.455Z" fill="#656161"/>
<path d="M207.5 154.687C210.089 154.687 212.187 152.589 212.187 150C212.187 147.411 210.089 145.312 207.5 145.312C204.911 145.312 202.812 147.411 202.812 150C202.812 152.589 204.911 154.687 207.5 154.687Z" fill="#0000FF"/>
<path d="M207.5 142.5C203.358 142.5 200 145.858 200 150C200 154.142 203.358 157.5 207.5 157.5C211.642 157.5 215 154.142 215 150C215 145.858 211.642 142.5 207.5 142.5ZM200.938 150C200.938 146.376 203.876 143.438 207.5 143.438C211.124 143.438 214.062 146.376 214.062 150C214.062 153.624 211.124 156.562 207.5 156.562C203.876 156.562 200.938 153.624 200.938 150Z" fill="#0000FF"/>
<path d="M224.71 155.195C221.77 155.195 220.3 153.35 220.3 149.66C220.3 147.91 220.655 146.58 221.365 145.67C222.085 144.76 223.23 144.305 224.8 144.305C226.06 144.305 227.18 144.655 228.16 145.355C228.16 145.915 228.09 146.625 227.95 147.485C227.81 147.515 227.52 147.53 227.08 147.53L226.63 145.67C225.92 145.54 225.35 145.475 224.92 145.475C224.13 145.475 223.435 145.585 222.835 145.805L222.55 145.91C222.49 146.01 222.415 146.16 222.325 146.36C222.235 146.55 222.115 146.955 221.965 147.575C221.825 148.195 221.755 148.83 221.755 149.48C221.755 150.89 221.985 152.01 222.445 152.84C222.915 153.67 223.66 154.085 224.68 154.085C225.41 154.085 225.96 154.01 226.33 153.86C226.43 153.81 226.575 153.735 226.765 153.635L227.08 151.835L227.95 151.88C228.1 152.91 228.175 153.745 228.175 154.385C227.965 154.545 227.51 154.72 226.81 154.91C226.12 155.1 225.42 155.195 224.71 155.195ZM232.867 154.28C233.707 154.28 234.272 154.02 234.562 153.5C234.862 152.97 235.012 152.22 235.012 151.25C235.012 149.71 234.672 148.745 233.992 148.355C233.712 148.195 233.317 148.115 232.807 148.115C232.307 148.115 231.832 148.22 231.382 148.43C230.982 149.2 230.782 150.095 230.782 151.115C230.782 152.095 230.912 152.85 231.172 153.38C231.472 153.98 232.037 154.28 232.867 154.28ZM229.402 151.25C229.402 149.98 229.692 148.99 230.272 148.28C230.852 147.56 231.747 147.2 232.957 147.2C234.167 147.2 235.042 147.53 235.582 148.19C236.122 148.84 236.392 149.805 236.392 151.085C236.392 152.365 236.102 153.37 235.522 154.1C234.952 154.83 234.082 155.195 232.912 155.195C231.742 155.195 230.862 154.855 230.272 154.175C229.692 153.495 229.402 152.52 229.402 151.25ZM244.749 148.88C244.789 149.2 244.809 149.57 244.809 149.99C244.809 150.41 244.769 151.74 244.689 153.98L245.949 154.1C245.949 154.38 245.864 154.68 245.694 155H242.244L242.199 154.475C242.659 154.315 243.109 154.195 243.549 154.115C243.489 151.455 243.434 149.975 243.384 149.675C243.344 149.375 243.274 149.125 243.174 148.925C243.074 148.715 242.919 148.57 242.709 148.49C242.499 148.41 242.179 148.37 241.749 148.37C241.329 148.37 240.774 148.53 240.084 148.85C240.024 151.13 239.984 152.84 239.964 153.98L241.224 154.1C241.224 154.38 241.139 154.68 240.969 155H237.519L237.474 154.475C237.934 154.315 238.384 154.195 238.824 154.115C238.814 153.395 238.789 152.38 238.749 151.07C238.709 149.75 238.684 148.885 238.674 148.475C238.124 148.445 237.684 148.385 237.354 148.295L237.414 147.515C237.954 147.365 238.739 147.29 239.769 147.29C239.909 147.54 239.999 147.8 240.039 148.07C240.479 147.84 240.914 147.64 241.344 147.47C241.774 147.29 242.044 147.2 242.154 147.2C243.264 147.2 244.039 147.54 244.479 148.22C244.939 147.97 245.414 147.74 245.904 147.53C246.404 147.31 246.704 147.2 246.804 147.2C247.714 147.2 248.394 147.425 248.844 147.875C249.304 148.315 249.534 149.04 249.534 150.05C249.534 150.35 249.494 151.66 249.414 153.98L250.674 154.1C250.674 154.38 250.589 154.68 250.419 155H246.969L246.924 154.475C247.384 154.315 247.834 154.195 248.274 154.115C248.234 152.535 248.199 151.34 248.169 150.53C248.139 149.72 248.024 149.16 247.824 148.85C247.624 148.53 247.224 148.37 246.624 148.37C246.024 148.37 245.399 148.54 244.749 148.88ZM253.715 154.235L253.64 157.445L254.945 157.55C254.945 157.83 254.86 158.13 254.69 158.45H251.21L251.165 157.925C251.625 157.775 252.075 157.66 252.515 157.58C252.455 153.5 252.405 150.465 252.365 148.475C251.915 148.465 251.475 148.405 251.045 148.295L251.105 147.515C251.685 147.365 252.495 147.29 253.535 147.29C253.625 147.45 253.71 147.745 253.79 148.175C255.07 147.525 255.88 147.2 256.22 147.2C257.15 147.2 257.84 147.565 258.29 148.295C258.74 149.015 258.965 149.955 258.965 151.115C258.965 152.265 258.71 153.23 258.2 154.01C257.7 154.79 256.97 155.18 256.01 155.18C255.65 155.18 255.255 155.09 254.825 154.91C254.405 154.73 254.035 154.505 253.715 154.235ZM255.95 148.325C255.33 148.325 254.61 148.545 253.79 148.985C253.77 150.845 253.75 152.24 253.73 153.17C253.98 153.42 254.31 153.65 254.72 153.86C255.14 154.06 255.505 154.16 255.815 154.16C256.995 154.16 257.585 153.19 257.585 151.25C257.585 150.51 257.5 149.93 257.33 149.51C257.16 149.08 256.965 148.775 256.745 148.595C256.525 148.415 256.26 148.325 255.95 148.325ZM266.077 150.095L266.002 153.965C266.432 153.995 266.862 154.065 267.292 154.175L267.262 154.7C267.102 154.78 266.812 154.87 266.392 154.97C265.982 155.06 265.577 155.105 265.177 155.105C264.997 154.745 264.897 154.4 264.877 154.07C263.737 154.82 262.937 155.195 262.477 155.195C261.767 155.195 261.197 155.005 260.767 154.625C260.337 154.245 260.122 153.715 260.122 153.035C260.122 151.465 261.082 150.655 263.002 150.605C264.122 150.575 264.687 150.56 264.697 150.56L264.682 150.05C264.662 149.36 264.532 148.865 264.292 148.565C264.052 148.255 263.622 148.1 263.002 148.1C262.742 148.1 262.462 148.16 262.162 148.28L261.802 149.78C261.752 149.79 261.667 149.795 261.547 149.795L260.932 149.75C260.772 149.32 260.687 148.725 260.677 147.965C260.867 147.865 261.302 147.715 261.982 147.515C262.662 147.305 263.097 147.2 263.287 147.2C264.307 147.2 265.027 147.425 265.447 147.875C265.867 148.325 266.077 149.065 266.077 150.095ZM262.807 154.175C263.097 154.175 263.767 153.85 264.817 153.2L264.742 151.325C264.062 151.385 263.492 151.44 263.032 151.49C262.572 151.54 262.202 151.675 261.922 151.895C261.642 152.105 261.502 152.44 261.502 152.9C261.502 153.75 261.937 154.175 262.807 154.175ZM272.813 147.2C273.773 147.2 274.468 147.44 274.898 147.92C275.328 148.39 275.543 149.11 275.543 150.08C275.543 150.36 275.503 151.66 275.423 153.98L276.683 154.1C276.683 154.38 276.598 154.68 276.428 155H272.978L272.933 154.475C273.393 154.315 273.843 154.195 274.283 154.115C274.223 151.495 274.168 150.04 274.118 149.75C274.078 149.45 274.008 149.19 273.908 148.97C273.808 148.75 273.658 148.595 273.458 148.505C273.258 148.415 272.993 148.37 272.663 148.37C272.003 148.37 271.363 148.53 270.743 148.85C270.683 151.13 270.643 152.84 270.623 153.98L271.883 154.1C271.883 154.38 271.798 154.68 271.628 155H268.178L268.133 154.475C268.593 154.315 269.043 154.195 269.483 154.115C269.423 151.575 269.373 149.695 269.333 148.475C268.783 148.445 268.343 148.385 268.013 148.295L268.073 147.515C268.613 147.365 269.398 147.29 270.428 147.29C270.548 147.47 270.638 147.73 270.698 148.07C271.128 147.84 271.558 147.64 271.988 147.47C272.428 147.29 272.703 147.2 272.813 147.2ZM278.936 157.79C279.316 157.79 279.686 157.425 280.046 156.695C280.416 155.965 280.626 155.4 280.676 155H280.316L277.946 148.4L276.686 148.28C276.686 148 276.771 147.7 276.941 147.38H280.391L280.436 147.905C280.116 148.045 279.761 148.155 279.371 148.235L280.676 152.33L281.021 153.65H281.171L282.971 148.235L281.711 147.905L281.756 147.38H285.131C285.301 147.7 285.386 148 285.386 148.28C284.976 148.33 284.566 148.365 284.156 148.385C283.896 149.145 283.506 150.28 282.986 151.79C282.476 153.3 282.071 154.47 281.771 155.3C281.481 156.13 281.191 156.805 280.901 157.325C280.611 157.845 280.321 158.19 280.031 158.36C279.751 158.54 279.436 158.63 279.086 158.63C278.466 158.63 277.886 158.51 277.346 158.27L277.076 158.135C277.146 156.995 277.191 156.37 277.211 156.26C277.291 156.23 277.581 156.215 278.081 156.215L278.591 157.745C278.681 157.775 278.796 157.79 278.936 157.79Z" fill="#656161"/>
<rect x="0.5" y="0.5" width="305" height="179" rx="4.5" stroke="#9747FF" stroke-dasharray="10 5"/>
</svg>
