<svg width="60" height="100" viewBox="0 0 60 100" fill="none" xmlns="http://www.w3.org/2000/svg">
<path d="M36.25 20C38.1992 20 39.8011 21.4872 39.9828 23.3888L40 23.75V36.25C40 38.1992 38.5128 39.8011 36.6112 39.9828L36.25 40H23.75C21.8008 40 20.1989 38.5128 20.0172 36.6112L20 36.25V23.75C20 21.8008 21.4872 20.1989 23.3888 20.0172L23.75 20H36.25ZM36.25 22.5H23.75C23.0596 22.5 22.5 23.0596 22.5 23.75V36.25C22.5 36.9403 23.0596 37.5 23.75 37.5H36.25C36.9403 37.5 37.5 36.9403 37.5 36.25V23.75C37.5 23.0596 36.9403 22.5 36.25 22.5Z" fill="#212121"/>
<path d="M36.25 60C38.1992 60 39.8011 61.4872 39.9828 63.3888L40 63.75V76.25C40 78.1992 38.5128 79.8011 36.6112 79.9828L36.25 80H23.75C21.8008 80 20.1989 78.5128 20.0172 76.6112L20 76.25V63.75C20 61.8008 21.4872 60.1989 23.3888 60.0172L23.75 60H36.25ZM36.25 62.5H23.75C23.0596 62.5 22.5 63.0596 22.5 63.75V76.25C22.5 76.9403 23.0596 77.5 23.75 77.5H36.25C36.9403 77.5 37.5 76.9403 37.5 76.25V63.75C37.5 63.0596 36.9403 62.5 36.25 62.5Z" fill="#212121"/>
<path d="M19.9314 63.4523C19.9314 61.3364 21.6467 59.6211 23.7626 59.6211H36.1003C38.2161 59.6211 39.9314 61.3364 39.9314 63.4523V75.79C39.9314 77.9058 38.2161 79.6211 36.1003 79.6211H23.7626C21.6467 79.6211 19.9314 77.9058 19.9314 75.79V63.4523ZM35.4365 66.5547C35.7154 66.2758 35.7154 65.8235 35.4365 65.5446C35.1575 65.2656 34.7053 65.2656 34.4263 65.5446L27.7885 72.1824L25.4365 69.8302C25.1575 69.5514 24.7053 69.5514 24.4263 69.8302C24.1474 70.1092 24.1474 70.5615 24.4263 70.8405L27.2835 73.6977C27.5624 73.9765 28.0147 73.9765 28.2936 73.6977L35.4365 66.5547Z" fill="#0000FF"/>
<rect x="0.5" y="0.5" width="59" height="99" rx="4.5" stroke="#9747FF" stroke-dasharray="10 5"/>
</svg>
